<svg width="117" height="26" viewBox="0 0 117 26" fill="none" xmlns="http://www.w3.org/2000/svg">
<path d="M0.615347 0.181242C0.615347 4.69113 0.497902 9.11881 0.656453 13.5406C0.762153 16.559 3.0582 18.8609 6.01782 19.3894C8.78952 19.8885 11.6728 18.397 12.9236 15.8132C14.1802 13.2118 13.5872 10.1699 11.3968 8.20861C10.193 7.13399 8.79539 6.54676 7.11593 6.61136V9.79999C7.40954 9.87046 7.68554 9.92331 7.94979 9.99965C9.13011 10.3579 9.89351 11.1447 10.1578 12.3485C10.4279 13.5876 10.0579 14.6505 9.06552 15.4432C8.07898 16.236 6.96325 16.3945 5.80642 15.866C4.59086 15.314 3.95079 14.3392 3.95079 13.0004C3.93904 9.0366 3.94491 5.07283 3.94491 1.10906C3.94491 0.809573 3.94491 0.510089 3.94491 0.181242H0.621218H0.615347ZM7.12768 3.39336C12.9882 4.45037 16.2473 7.44522 16.6231 12.0608C16.7993 14.2629 16.353 16.3182 15.1374 18.168C13.2466 21.0395 10.4983 22.4195 7.13942 22.6015V25.8958C11.8431 25.6727 15.5661 23.7642 18.0148 19.7887C20.7454 15.3434 20.7572 10.7219 18.0383 6.27664C15.5955 2.27764 11.8607 0.333921 7.12768 0.140137V3.39336Z" fill="#EC661A"/>
<path d="M0.615276 0.181152H3.93897C3.93897 0.515871 3.93897 0.815355 3.93897 1.10897C3.93897 5.07274 3.9331 9.03651 3.94484 13.0003C3.94484 14.3392 4.59079 15.3139 5.80047 15.8659C6.95731 16.3944 8.07303 16.23 9.05957 15.4431C10.052 14.6504 10.4219 13.5875 10.1518 12.3485C9.88756 11.1446 9.12417 10.3578 7.94385 9.99956C7.67959 9.91735 7.4036 9.8645 7.10998 9.7999V6.61127C8.78945 6.54667 10.1929 7.1339 11.3909 8.20852C13.5812 10.1699 14.1802 13.2117 12.9176 15.8131C11.6669 18.3969 8.78945 19.8884 6.01187 19.3893C3.05226 18.8549 0.756208 16.5589 0.650508 13.5405C0.497829 9.12459 0.609402 4.69104 0.609402 0.181152H0.615276Z" fill="#EC661A"/>
<path d="M7.12756 3.39336V0.140137C11.8606 0.333921 15.5954 2.27764 18.0382 6.27664C20.7571 10.7219 20.7453 15.3434 18.0147 19.7887C15.5719 23.7642 11.8489 25.6727 7.13931 25.8958V22.6015C10.4924 22.4195 13.2465 21.0395 15.1373 18.168C16.3529 16.3182 16.805 14.2629 16.623 12.0608C16.2472 7.44522 12.9881 4.45037 7.12756 3.39336Z" fill="#EC661A"/>
<path d="M3.9272 25.9899C4.83853 25.9899 5.5773 25.2511 5.5773 24.3398C5.5773 23.4285 4.83853 22.6897 3.9272 22.6897C3.01588 22.6897 2.2771 23.4285 2.2771 24.3398C2.2771 25.2511 3.01588 25.9899 3.9272 25.9899Z" fill="#EC661A"/>
<path d="M30.0701 19.4162V3.1665H36.1614L39.1159 12.9601H39.2162L42.1707 3.1665H48.1891V19.4162H43.7118V8.46452H43.6115L40.3469 19.4162H37.1827L33.9456 8.43717H33.827V19.4162H30.0701Z" fill="#EC661A"/>
<path d="M52.9673 22.9542C51.9551 22.9542 51.1527 22.8265 50.5782 22.5712V19.8629C51.1618 19.9632 51.5995 20.0088 51.9095 20.0088C53.0038 20.0088 53.6968 19.6349 53.9886 18.8963L54.1801 18.3674L49.5569 6.95068H53.861L56.2045 13.6986H56.2501L58.6939 6.95068H62.5603L57.7456 19.7717C57.3261 20.9845 56.7607 21.8143 56.0495 22.2703C55.3382 22.7262 54.3078 22.9633 52.9582 22.9633L52.9673 22.9542Z" fill="#EC661A"/>
<path d="M69.8735 19.4162V3.1665H74.4238V9.43112H79.5303V3.1665H84.0988V19.4162H79.5303V12.6956H74.4238V19.4162H69.8735Z" fill="#EC661A"/>
<path d="M93.619 19.6897C88.9137 19.6897 86.561 17.6654 86.561 13.6166V3.19385H91.1295V13.4525C91.1295 14.4829 91.3393 15.2306 91.7679 15.6866C92.1965 16.1425 92.8621 16.3796 93.7649 16.3796C94.6676 16.3796 95.3151 16.1516 95.7072 15.6866C96.0993 15.2215 96.2999 14.4738 96.2999 13.4251V3.19385H100.367V13.5893C100.367 15.6228 99.8106 17.1456 98.7073 18.1578C97.6039 19.17 95.9078 19.6806 93.619 19.6806V19.6897Z" fill="#EC661A"/>
<path d="M102.865 19.4162V3.1665H109.905C113.616 3.1665 115.468 4.54344 115.468 7.30644C115.468 9.17579 114.565 10.3704 112.759 10.881V10.954C115.048 11.3552 116.197 12.6409 116.197 14.8021C116.197 16.2064 115.705 17.328 114.711 18.1669C113.717 19.0058 112.212 19.4253 110.197 19.4253H102.865V19.4162ZM107.315 9.91441H108.957C110.388 9.91441 111.109 9.25786 111.109 7.93564C111.109 7.27908 110.935 6.79578 110.589 6.5131C110.242 6.2213 109.714 6.0754 109.002 6.0754H107.306V9.92353L107.315 9.91441ZM107.315 16.4708H109.249C110.744 16.4708 111.501 15.7778 111.501 14.3917C111.501 13.0057 110.708 12.3856 109.13 12.3856H107.315V16.4708Z" fill="#EC661A"/>
</svg>
