<svg version="1.2" xmlns="http://www.w3.org/2000/svg" viewBox="0 0 1440 260" width="1440" height="260">
	<title>bio-tech-header-svg</title>
	<defs>
		<clipPath clipPathUnits="userSpaceOnUse" id="cp1">
			<path d="m0 0h1440v260h-1440z"/>
		</clipPath>
		<linearGradient id="g1" x2="1" gradientUnits="userSpaceOnUse" gradientTransform="matrix(1902.489,222.688,-64.902,554.475,-355.749,-65)">
			<stop offset="0" stop-color="#fdc9c6"/>
			<stop offset="1" stop-color="#fffcf3"/>
		</linearGradient>
		<linearGradient id="g2" x2="1" gradientUnits="userSpaceOnUse" gradientTransform="matrix(-112.374,99.695,-99.695,-112.374,232.374,130.081)">
			<stop offset="0" stop-color="#ffffff" stop-opacity=".1"/>
			<stop offset="1" stop-color="#ffffff" stop-opacity=".4"/>
		</linearGradient>
		<linearGradient id="g3" x2="1" gradientUnits="userSpaceOnUse" gradientTransform="matrix(-83.51,89.236,-89.236,-83.51,1308.59,9.507)">
			<stop offset="0" stop-color="#ffffff" stop-opacity=".5"/>
			<stop offset="1" stop-color="#ffffff" stop-opacity=".15"/>
		</linearGradient>
		<linearGradient id="g4" x2="1" gradientUnits="userSpaceOnUse" gradientTransform="matrix(-33.204,58.525,-58.525,-33.204,301.695,116.764)">
			<stop offset="0" stop-color="#ffffff" stop-opacity=".1"/>
			<stop offset="1" stop-color="#ffffff" stop-opacity=".4"/>
		</linearGradient>
	</defs>
	<style>
		.s0 { fill: url(#g1) } 
		.s1 { fill: url(#g2) } 
		.s2 { fill: url(#g3) } 
		.s3 { fill: url(#g4) } 
	</style>
	<g id="Clip-Path" clip-path="url(#cp1)">
		<g id="Layer">
			<path id="Layer" class="s0" d="m0 0h1440v260h-1440z"/>
			<path id="Layer" class="s1" d="m209.5 309c-49.5 0-89.5-40-89.5-89.5 0-49.4 40-89.4 89.5-89.4 49.4 0 89.4 40 89.4 89.4 0 49.5-40 89.5-89.4 89.5z"/>
			<path id="Layer" class="s2" d="m1261.9 106c-43.1 0-78-34.9-78-78.1 0-43.1 34.9-78 78-78 43.2 0 78.1 34.9 78.1 78 0 43.2-34.9 78.1-78.1 78.1z"/>
			<path id="Layer" class="s3" d="m283.2 175.3c-16.2 0-29.3-13.1-29.3-29.3 0-16.2 13.1-29.2 29.3-29.2 16.2 0 29.3 13 29.3 29.2 0 16.2-13.1 29.3-29.3 29.3z"/>
		</g>
	</g>
</svg>