<svg width="746" height="467" viewBox="0 0 746 467" fill="none" xmlns="http://www.w3.org/2000/svg">
<path d="M433.031 172.672C433.039 174.633 435.586 176.32 438.094 176.672L437.594 177.672C435.438 177.312 433.297 176.117 432.406 174.414C431.516 176.133 429.383 177.312 427.219 177.672L426.719 176.672C429.227 176.32 431.766 174.664 431.766 172.672V171.875H433.031V172.672ZM426.062 180.234V179.203H438.719V180.234H432.969V185.266H431.766V180.234H426.062ZM446.859 172.672C446.867 174.633 449.414 176.32 451.922 176.672L451.422 177.672C449.266 177.312 447.125 176.117 446.234 174.414C445.344 176.133 443.211 177.312 441.047 177.672L440.547 176.672C443.055 176.32 445.594 174.664 445.594 172.672V171.875H446.859V172.672ZM439.891 180.234V179.203H452.547V180.234H446.797V185.266H445.594V180.234H439.891ZM466.438 182.516V183.547H453.719V182.516H457.297V179.875H455.312V175.594H463.625V173.422H455.281V172.406H464.828V176.609H456.531V178.859H465.156V179.875H462.984V182.516H466.438ZM458.5 182.516H461.781V179.875H458.5V182.516ZM483.438 171.375V185.266H482.266V171.375H483.438ZM471.391 181.562C473.328 180.406 474.461 177.867 474.453 175.344V174.031H471.781V173.016H478.188V174.031H475.641V175.344C475.641 177.742 476.727 180.141 478.641 181.25L477.891 182.156C476.523 181.336 475.555 179.836 475.07 178.07C474.57 179.984 473.562 181.617 472.172 182.484L471.391 181.562ZM477.125 177.391V176.391H479.469V171.719H480.625V184.547H479.469V177.391H477.125ZM491.672 180.156C494.648 180.156 496.539 181.094 496.547 182.703C496.539 184.297 494.648 185.234 491.672 185.234C488.695 185.234 486.805 184.297 486.812 182.703C486.805 181.094 488.695 180.156 491.672 180.156ZM485.406 178.859V177.859H490.641V175.172H491.844V177.859H498.047V178.859H485.406ZM486.906 173.094V172.094H496.438V173.266C496.43 174.391 496.43 175.516 496.047 176.953L494.844 176.812C495.219 175.383 495.219 174.351 495.219 173.266V173.094H486.906ZM488.031 182.703C488.023 183.672 489.461 184.266 491.672 184.266C493.891 184.266 495.312 183.672 495.328 182.703C495.312 181.711 493.891 181.101 491.672 181.094C489.461 181.101 488.023 181.711 488.031 182.703Z" fill="#373737"/>
<path d="M45.4661 172.219C46.6379 172.211 47.6301 172.656 48.2786 173.391H51.9192V171.375H53.1536V179.609H51.9192V177.625H48.2786C47.6379 178.359 46.6379 178.805 45.4661 178.797C43.3879 178.805 41.8489 177.445 41.8567 175.516C41.8489 173.57 43.3879 172.211 45.4661 172.219ZM43.0286 175.516C43.0286 176.805 44.0442 177.758 45.4661 177.75C46.8411 177.758 47.8723 176.805 47.8723 175.516C47.8723 174.195 46.8411 173.273 45.4661 173.281C44.0442 173.273 43.0286 174.195 43.0286 175.516ZM43.8879 182.578C43.8801 180.906 45.6614 179.937 48.5442 179.937C51.4192 179.937 53.2004 180.906 53.2004 182.578C53.2004 184.266 51.4192 185.234 48.5442 185.234C45.6614 185.234 43.8801 184.266 43.8879 182.578ZM45.0911 182.578C45.0833 183.625 46.4114 184.258 48.5442 184.25C50.677 184.258 52.0051 183.625 51.9973 182.578C52.0051 181.523 50.677 180.898 48.5442 180.891C46.4114 180.898 45.0833 181.523 45.0911 182.578ZM48.8645 174.391C48.9895 174.734 49.0598 175.109 49.0598 175.516C49.0598 175.906 48.9895 176.273 48.8723 176.609H51.9192V174.391H48.8645ZM59.2942 172.031C61.1536 172.023 62.5754 173.109 62.8411 174.703H65.7473V171.375H66.9817V178.828H65.7473V175.719H62.8489C62.6067 177.359 61.177 178.453 59.2942 178.453C57.177 178.453 55.677 177.141 55.6848 175.234C55.677 173.351 57.177 172.023 59.2942 172.031ZM56.8567 175.234C56.8567 176.5 57.8645 177.414 59.2942 177.422C60.6926 177.414 61.7004 176.5 61.7004 175.234C61.7004 173.953 60.6926 173.062 59.2942 173.078C57.8645 173.062 56.8567 173.953 56.8567 175.234ZM58.0286 185.078V179.531H59.2629V181.297H65.7473V179.531H66.9817V185.078H58.0286ZM59.2629 184.078H65.7473V182.281H59.2629V184.078ZM80.5598 172.281V177.937H74.0442V172.281H80.5598ZM75.0442 184.266C77.4348 184 79.7317 182.648 79.7317 181.266H75.6223V180.312H79.7473V178.953H80.9661V180.312H85.1223V181.266H80.9973C80.9895 182.617 83.2239 183.969 85.6067 184.266L85.1848 185.219C83.0989 184.93 81.1926 183.945 80.3645 182.664C79.5286 183.976 77.5754 184.93 75.4817 185.219L75.0442 184.266ZM75.2473 176.969H79.3567V173.281H75.2473V176.969ZM83.5598 179.359V171.375H84.7629V179.359H83.5598ZM99.0911 172.703V173.703H97.6692V178.305C98.3801 178.258 99.0833 178.187 99.7473 178.109L99.8411 179.031C97.0208 179.469 93.7551 179.539 91.3411 179.531L91.2004 178.516C91.7629 178.516 92.3645 178.508 92.9973 178.492V173.703H91.5911V172.703H99.0911ZM93.3254 184.969V180.641H94.5286V183.937H102.654V184.969H93.3254ZM94.2004 178.469C94.9426 178.453 95.7083 178.422 96.4661 178.383V173.703H94.2004V178.469ZM100.794 181.609V171.391H102.013V175.609H104.107V176.656H102.013V181.609H100.794ZM116.888 171.375V185.266H115.7V177.906H113.763V184.562H112.591V171.672H113.763V176.891H115.7V171.375H116.888ZM105.497 181.531V173H110.81V181.531H105.497ZM106.654 180.547H109.654V173.984H106.654V180.547ZM134.7 171.375V185.266H133.529V171.375H134.7ZM122.654 181.562C124.591 180.406 125.724 177.867 125.716 175.344V174.031H123.044V173.016H129.45V174.031H126.904V175.344C126.904 177.742 127.99 180.141 129.904 181.25L129.154 182.156C127.786 181.336 126.818 179.836 126.333 178.07C125.833 179.984 124.825 181.617 123.435 182.484L122.654 181.562ZM128.388 177.391V176.391H130.732V171.719H131.888V184.547H130.732V177.391H128.388ZM148.575 172.922V173.922H137.31V172.922H142.372V171.297H143.575V172.922H148.575ZM136.654 181.266V180.25H149.372V181.266H146.013V185.297H144.794V181.266H141.2V185.297H139.966V181.266H136.654ZM138.45 177.016C138.435 175.539 140.138 174.719 142.982 174.719C145.802 174.719 147.505 175.539 147.513 177.016C147.505 178.484 145.802 179.312 142.982 179.312C140.138 179.312 138.435 178.484 138.45 177.016ZM139.716 177.016C139.7 177.867 140.911 178.367 142.982 178.359C145.029 178.367 146.232 177.867 146.247 177.016C146.232 176.156 145.029 175.672 142.982 175.656C140.911 175.672 139.7 176.156 139.716 177.016Z" fill="#373737"/>
<path d="M110.6 309.375H97L93.6 306H83.4C81.53 306 80 307.519 80 309.375V329.625C80 331.481 81.53 333 83.4 333H110.6C112.47 333 114 331.481 114 329.625V312.75C114 310.894 112.47 309.375 110.6 309.375ZM110.6 329.625H83.4V309.375H92.189L95.589 312.75H110.6V329.625Z" fill="#BFBFBF"/>
<path d="M98.836 322.942L97.663 327.937L102.1 325.356L106.537 327.937L105.364 322.942L109.274 319.584L104.123 319.146L102.1 314.437L100.077 319.146L94.926 319.584L98.836 322.942Z" fill="#EC661A" fill-opacity="0.6"/>
<path d="M91.5 340.5H77.5L74 337H63.5C61.575 337 60 338.575 60 340.5V361.5C60 363.425 61.575 365 63.5 365H91.5C93.425 365 95 363.425 95 361.5V344C95 342.075 93.425 340.5 91.5 340.5ZM91.5 361.5H63.5V340.5H72.5475L76.0475 344H91.5V361.5Z" fill="#BFBFBF"/>
<path d="M79.39 354.57L78.1825 359.75L82.75 357.072L87.3175 359.75L86.11 354.57L90.135 351.087L84.8325 350.632L82.75 345.75L80.6675 350.632L75.365 351.087L79.39 354.57Z" fill="#EC661A" fill-opacity="0.6"/>
<path d="M130.5 340.5H116.5L113 337H102.5C100.575 337 99 338.575 99 340.5V361.5C99 363.425 100.575 365 102.5 365H130.5C132.425 365 134 363.425 134 361.5V344C134 342.075 132.425 340.5 130.5 340.5ZM130.5 361.5H102.5V340.5H111.548L115.047 344H130.5V361.5Z" fill="#BFBFBF"/>
<path d="M118.39 354.57L117.182 359.75L121.75 357.072L126.317 359.75L125.11 354.57L129.135 351.087L123.832 350.632L121.75 345.75L119.667 350.632L114.365 351.087L118.39 354.57Z" fill="#EC661A" fill-opacity="0.6"/>
<path d="M71.5 372.5H57.5L54 369H43.5C41.575 369 40 370.575 40 372.5V393.5C40 395.425 41.575 397 43.5 397H71.5C73.425 397 75 395.425 75 393.5V376C75 374.075 73.425 372.5 71.5 372.5ZM71.5 393.5H43.5V372.5H52.5475L56.0475 376H71.5V393.5Z" fill="#BFBFBF"/>
<path d="M59.39 386.57L58.1825 391.75L62.75 389.072L67.3175 391.75L66.11 386.57L70.135 383.087L64.8325 382.632L62.75 377.75L60.6675 382.632L55.365 383.087L59.39 386.57Z" fill="#EC661A" fill-opacity="0.6"/>
<path d="M110.6 372.5H97L93.6 369H83.4C81.53 369 80 370.575 80 372.5V393.5C80 395.425 81.53 397 83.4 397H110.6C112.47 397 114 395.425 114 393.5V376C114 374.075 112.47 372.5 110.6 372.5ZM110.6 393.5H83.4V372.5H92.189L95.589 376H110.6V393.5Z" fill="#BFBFBF"/>
<path d="M98.836 386.57L97.663 391.75L102.1 389.072L106.537 391.75L105.364 386.57L109.274 383.087L104.123 382.632L102.1 377.75L100.077 382.632L94.926 383.087L98.836 386.57Z" fill="#EC661A" fill-opacity="0.6"/>
<path d="M150.5 372.5H136.5L133 369H122.5C120.575 369 119 370.575 119 372.5V393.5C119 395.425 120.575 397 122.5 397H150.5C152.425 397 154 395.425 154 393.5V376C154 374.075 152.425 372.5 150.5 372.5ZM150.5 393.5H122.5V372.5H131.548L135.047 376H150.5V393.5Z" fill="#BFBFBF"/>
<path d="M138.39 386.57L137.182 391.75L141.75 389.072L146.317 391.75L145.11 386.57L149.135 383.087L143.832 382.632L141.75 377.75L139.667 382.632L134.365 383.087L138.39 386.57Z" fill="#EC661A" fill-opacity="0.6"/>
<path d="M0.5 417C0.5 412.582 4.08172 409 8.5 409H185.5C189.918 409 193.5 412.582 193.5 417V444C193.5 448.418 189.918 452 185.5 452H8.5C4.08173 452 0.5 448.418 0.5 444V417Z" fill="#EC661A" fill-opacity="0.1"/>
<path d="M35.8125 427.828C35.8125 429.984 37.1328 432.266 39.2188 433.266L38.375 434.391C36.8516 433.672 35.7031 432.211 35.1094 430.5C34.4922 432.351 33.2734 433.898 31.6719 434.641L30.8438 433.5C32.9766 432.523 34.3516 430.133 34.3594 427.828V426.906H31.2656V425.719H34.3438V423.609H35.8438V425.719H38.8906V426.906H35.8125V427.828ZM40.4375 437.328V423.328H41.9219V428.969H44.1719V430.219H41.9219V437.328H40.4375ZM56.5 423.328V430.609H55.0312V428.937H51.9688V430.094H45.5156V423.969H47V425.859H50.5V423.969H51.9688V425.25H55.0312V423.328H56.5ZM47 428.906H50.5V427H47V428.906ZM47.3438 432.391V431.234H56.5V434.672H48.8594V435.969H57V437.156H47.375V433.562H55.0312V432.391H47.3438ZM51.9688 427.797H55.0312V426.391H51.9688V427.797ZM69.6406 423.328V429.187H71.75V430.437H69.6406V437.328H68.1562V423.328H69.6406ZM58.5 433.516C59.6016 433.516 60.8828 433.516 62.2188 433.476V432.055C60.6406 431.82 59.6094 430.867 59.625 429.516C59.6094 427.937 60.9766 426.898 62.9688 426.891C64.9531 426.898 66.3359 427.937 66.3438 429.516C66.3359 430.867 65.2891 431.828 63.7031 432.055V433.422C64.9453 433.359 66.1953 433.258 67.3594 433.094L67.4531 434.187C64.4219 434.726 61.1484 434.758 58.7344 434.75L58.5 433.516ZM58.7656 426.172V424.984H62.2188V423.359H63.7031V424.984H67.1562V426.172H58.7656ZM61.0156 429.516C61.0156 430.406 61.7969 430.961 62.9688 430.953C64.1406 430.961 64.9141 430.406 64.9219 429.516C64.9141 428.617 64.1406 428.047 62.9688 428.047C61.7969 428.047 61.0156 428.617 61.0156 429.516ZM80.6562 427.812V429.016H77.9219V430.789C79.1641 430.726 80.3984 430.641 81.5469 430.516L81.6562 431.609C78.6719 432.016 75.3984 432.101 72.7656 432.094L72.5625 430.906C73.7578 430.898 75.0859 430.883 76.4531 430.844V429.016H73.8125V424.219H80.5312V425.422H75.2969V427.812H80.6562ZM74.875 437.031V433.078H76.3594V435.828H84.5469V437.031H74.875ZM82.625 433.828V423.328H84.1094V433.828H82.625ZM94.1094 424.141C95.2734 424.133 96.2656 424.57 96.9219 425.297H100.422V423.328H101.906V431.594H100.422V429.703H96.9141C96.2578 430.422 95.2656 430.851 94.1094 430.844C92 430.851 90.4297 429.453 90.4375 427.5C90.4297 425.523 92 424.133 94.1094 424.141ZM91.8594 427.5C91.8516 428.726 92.7969 429.594 94.1094 429.578C95.3828 429.594 96.3281 428.726 96.3281 427.5C96.3281 426.242 95.3828 425.406 94.1094 425.422C92.7969 425.406 91.8516 426.242 91.8594 427.5ZM92.4844 434.609C92.4766 432.898 94.2891 431.898 97.2188 431.906C100.133 431.898 101.945 432.898 101.953 434.609C101.945 436.312 100.133 437.305 97.2188 437.297C94.2891 437.305 92.4766 436.312 92.4844 434.609ZM93.9375 434.609C93.9297 435.57 95.1641 436.133 97.2188 436.125C99.2734 436.133 100.5 435.57 100.5 434.609C100.5 433.609 99.2734 433.055 97.2188 433.047C95.1641 433.055 93.9297 433.609 93.9375 434.609ZM97.6016 426.484C97.6953 426.797 97.75 427.141 97.75 427.5C97.75 427.844 97.6953 428.18 97.6016 428.484H100.422V426.484H97.6016ZM107.938 423.969C109.781 423.953 111.211 425.023 111.516 426.594H114.25V423.328H115.734V430.844H114.25V427.812H111.523C111.234 429.422 109.797 430.5 107.938 430.5C105.797 430.5 104.258 429.148 104.266 427.219C104.258 425.312 105.797 423.953 107.938 423.969ZM105.688 427.219C105.68 428.414 106.617 429.25 107.938 429.25C109.234 429.25 110.156 428.414 110.156 427.219C110.156 426.016 109.234 425.195 107.938 425.203C106.617 425.195 105.68 426.016 105.688 427.219ZM106.609 437.156V431.516H108.078V433.141H114.25V431.516H115.734V437.156H106.609ZM108.078 435.937H114.25V434.312H108.078V435.937ZM125.547 424.375C127.641 424.383 129.133 426.289 129.141 429.281C129.133 432.305 127.641 434.211 125.547 434.203C123.453 434.211 121.961 432.305 121.969 429.281C121.961 426.289 123.453 424.383 125.547 424.375ZM123.391 429.281C123.383 431.508 124.273 432.875 125.547 432.875C126.844 432.875 127.719 431.508 127.719 429.281C127.719 427.086 126.844 425.711 125.547 425.703C124.273 425.711 123.383 427.086 123.391 429.281ZM131.219 437.328V423.328H132.703V428.812H134.953V430.062H132.703V437.328H131.219ZM147.219 423.328V437.359H145.734V423.328H147.219ZM136.109 429.281C136.109 426.289 137.617 424.383 139.734 424.375C141.812 424.383 143.344 426.289 143.344 429.281C143.344 432.305 141.812 434.211 139.734 434.203C137.617 434.211 136.109 432.305 136.109 429.281ZM137.547 429.281C137.539 431.508 138.43 432.875 139.734 432.875C141.016 432.875 141.906 431.508 141.906 429.281C141.906 427.086 141.016 425.711 139.734 425.703C138.43 425.711 137.539 427.086 137.547 429.281ZM155.406 424.219V425.437H151.5V426.953H154.859V428.109H151.5V429.781C153.352 429.766 154.562 429.695 156 429.437L156.141 430.609C154.531 430.914 153.195 430.969 150.984 430.969H150.078V424.219H155.406ZM152.031 437.156V432.359H161.391V437.156H152.031ZM153.516 435.953H159.938V433.531H153.516V435.953ZM155.5 428V426.797H157.234V423.562H158.641V431.625H157.234V428H155.5ZM159.984 431.734V423.328H161.391V431.734H159.984Z" fill="#FD6F22"/>
<path d="M320 378C320 373.582 323.582 370 328 370H481C485.418 370 489 373.582 489 378V405C489 409.418 485.418 413 481 413H328C323.582 413 320 409.418 320 405V378Z" fill="#EC661A"/>
<path d="M354.391 385.141C355.555 385.133 356.547 385.57 357.203 386.297H360.703V384.328H362.188V392.594H360.703V390.703H357.195C356.539 391.422 355.547 391.851 354.391 391.844C352.281 391.851 350.711 390.453 350.719 388.5C350.711 386.523 352.281 385.133 354.391 385.141ZM352.141 388.5C352.133 389.726 353.078 390.594 354.391 390.578C355.664 390.594 356.609 389.726 356.609 388.5C356.609 387.242 355.664 386.406 354.391 386.422C353.078 386.406 352.133 387.242 352.141 388.5ZM352.766 395.609C352.758 393.898 354.57 392.898 357.5 392.906C360.414 392.898 362.227 393.898 362.234 395.609C362.227 397.312 360.414 398.305 357.5 398.297C354.57 398.305 352.758 397.312 352.766 395.609ZM354.219 395.609C354.211 396.57 355.445 397.133 357.5 397.125C359.555 397.133 360.781 396.57 360.781 395.609C360.781 394.609 359.555 394.055 357.5 394.047C355.445 394.055 354.211 394.609 354.219 395.609ZM357.883 387.484C357.977 387.797 358.031 388.141 358.031 388.5C358.031 388.844 357.977 389.18 357.883 389.484H360.703V387.484H357.883ZM368.219 384.969C370.062 384.953 371.492 386.023 371.797 387.594H374.531V384.328H376.016V391.844H374.531V388.812H371.805C371.516 390.422 370.078 391.5 368.219 391.5C366.078 391.5 364.539 390.148 364.547 388.219C364.539 386.312 366.078 384.953 368.219 384.969ZM365.969 388.219C365.961 389.414 366.898 390.25 368.219 390.25C369.516 390.25 370.438 389.414 370.438 388.219C370.438 387.016 369.516 386.195 368.219 386.203C366.898 386.195 365.961 387.016 365.969 388.219ZM366.891 398.156V392.516H368.359V394.141H374.531V392.516H376.016V398.156H366.891ZM368.359 396.937H374.531V395.312H368.359V396.937ZM383.047 388.453C383.039 390.664 384.5 393.133 386.625 394.141L385.781 395.297C384.211 394.547 382.961 392.969 382.328 391.141C381.688 393.133 380.375 394.859 378.781 395.656L377.906 394.484C380.031 393.461 381.57 390.82 381.578 388.453V386.969H378.422V385.734H386.094V386.969H383.047V388.453ZM387.594 398.328V384.328H389.078V389.875H391.328V391.125H389.078V398.328H387.594ZM392.984 392.312C392.984 389.539 393.727 387.234 395.125 385.266H396.656C395.57 386.719 394.711 389.687 394.703 392.312C394.711 394.937 395.57 397.898 396.656 399.359H395.125C393.727 397.391 392.984 395.086 392.984 392.312ZM402.875 388.453C402.867 390.797 404.406 393.219 406.562 394.141L405.75 395.297C404.102 394.57 402.789 393.023 402.141 391.156C401.492 393.156 400.18 394.859 398.547 395.656L397.688 394.484C399.797 393.492 401.359 390.867 401.375 388.453V386.969H398.172V385.734H406.062V386.969H402.875V388.453ZM407.828 398.328V384.328H409.312V398.328H407.828ZM416.406 387.891C416.391 390.367 417.836 392.906 419.922 393.922L419 395.109C417.477 394.312 416.297 392.75 415.68 390.883C415.055 392.867 413.828 394.547 412.234 395.375L411.312 394.172C413.461 393.141 414.914 390.453 414.922 387.891V385.5H416.406V387.891ZM420.969 398.328V384.328H422.453V389.906H424.703V391.172H422.453V398.328H420.969ZM437.391 384.328V398.328H435.969V391.094H434.156V397.609H432.797V384.609H434.156V389.875H435.969V384.328H437.391ZM425.844 394.969V386.016H431.094V387.219H427.328V393.703C429.047 393.695 430.344 393.617 431.844 393.328L431.953 394.547C430.273 394.898 428.82 394.953 426.781 394.969H425.844ZM452.016 395.453V396.672H439.203V395.453H442.641V392.344H440.328V391.141H442.422V386.781H440.297V385.562H450.844V386.781H448.703V391.141H450.797V392.344H448.5V395.453H452.016ZM443.891 391.141H447.25V386.781H443.891V391.141ZM444.125 395.453H447.016V392.344H444.125V395.453ZM456.734 392.312C456.734 395.086 455.992 397.391 454.594 399.359H453.062C454.148 397.906 455.008 394.937 455.016 392.312C455.008 389.687 454.148 386.726 453.062 385.266H454.594C455.992 387.234 456.734 389.539 456.734 392.312Z" fill="white"/>
<g clip-path="url(#clip0_1_209)">
<path d="M448.978 333.138C443.953 310.525 435.363 304.835 432.758 303.344C430.667 302.146 418.572 299.951 418.572 299.951H405.932C405.932 299.951 390.552 301.877 385.142 305.23C376.824 310.388 354.183 354.282 364.668 365.69C367.758 369.054 377.47 366.512 382.749 365.69L379.315 386.019L439.634 384.603L437.384 357.611C437.384 357.611 450.909 341.825 448.978 333.137V333.138Z" fill="white"/>
<path d="M449.381 333.047C445.989 317.777 440.158 307.1 432.963 302.982C431.555 302.176 425.953 300.969 422.183 300.219C420.654 299.915 419.425 299.684 418.902 299.588C418.768 299.563 418.68 299.548 418.645 299.541L418.608 299.534H405.93L405.879 299.538C405.752 299.554 405.055 299.642 403.976 299.802C399.663 300.434 389.26 302.186 384.921 304.876C378.583 308.807 364.269 334.547 361.878 351.972C360.985 358.495 361.818 363.206 364.361 365.97C367.107 368.959 374.533 367.596 379.958 366.601C380.765 366.452 381.537 366.311 382.241 366.193L378.82 386.446L440.082 385.008L437.81 357.749C438.427 357.015 441.455 353.342 444.255 348.852C448.483 342.079 450.206 336.76 449.381 333.047ZM379.807 385.593L383.252 365.192L382.684 365.28C381.824 365.414 380.845 365.593 379.807 365.784C374.574 366.744 367.408 368.059 364.972 365.409C362.605 362.834 361.842 358.352 362.702 352.085C363.766 344.322 367.391 333.99 372.647 323.742C377.266 314.73 382.376 307.432 385.36 305.582C389.443 303.051 399.484 301.319 403.873 300.66C405.04 300.484 405.807 300.383 405.957 300.365H418.533C419.588 300.557 420.901 300.806 422.303 301.085C426.448 301.916 431.356 303.018 432.552 303.702C441.982 309.101 446.636 324.517 448.571 333.228C450.434 341.614 437.201 357.186 437.067 357.342L436.954 357.473L439.182 384.2L379.807 385.593Z" fill="black"/>
<path d="M436.987 336.488C436.799 336.488 436.628 336.36 436.583 336.169C435.433 331.322 434.181 326.47 434.169 326.422C434.112 326.199 434.245 325.973 434.468 325.915C434.69 325.859 434.916 325.992 434.974 326.214C434.988 326.262 436.24 331.121 437.394 335.976C437.447 336.199 437.309 336.423 437.086 336.476C437.055 336.484 437.022 336.488 436.99 336.488H436.987Z" fill="#1E1E1E"/>
<path d="M381.007 366.45C380.823 366.45 380.655 366.326 380.605 366.14C380.547 365.917 380.68 365.691 380.903 365.633C383.667 364.913 387.201 363.599 391.407 361.724L389.278 344.998C380.539 346.932 376.594 348.067 376.554 348.078C376.333 348.143 376.104 348.015 376.039 347.794C375.976 347.573 376.102 347.344 376.323 347.279C376.363 347.268 380.463 346.089 389.542 344.088C389.657 344.063 389.775 344.088 389.871 344.154C389.966 344.221 390.029 344.325 390.044 344.442L392.269 361.925C392.292 362.106 392.194 362.282 392.027 362.357C387.654 364.316 383.983 365.69 381.112 366.437C381.077 366.445 381.042 366.45 381.007 366.45Z" fill="#1E1E1E"/>
<path d="M449.333 331.564C448.682 330.722 447.697 330.239 446.633 330.239H413.129C411.571 330.239 410.211 331.292 409.822 332.8L403.476 357.361C403.21 358.392 403.431 359.464 404.082 360.306C404.733 361.148 405.718 361.63 406.782 361.63H440.286C441.844 361.63 443.204 360.577 443.592 359.069L449.939 334.508C450.205 333.477 449.984 332.404 449.333 331.563V331.564Z" fill="white"/>
<path d="M446.633 329.824H413.128C411.382 329.824 409.857 331.005 409.419 332.697L403.072 357.258C402.446 359.682 404.276 362.046 406.782 362.046H440.286C442.033 362.046 443.558 360.866 443.996 359.174L450.342 334.613C450.968 332.189 449.139 329.824 446.633 329.824ZM449.537 334.405L443.191 358.966C442.849 360.291 441.653 361.216 440.286 361.216H406.782C405.847 361.216 404.982 360.793 404.409 360.052C403.836 359.313 403.642 358.37 403.876 357.465L410.223 332.904C410.565 331.579 411.76 330.654 413.127 330.654H446.631C447.566 330.654 448.431 331.078 449.004 331.818C449.577 332.557 449.771 333.5 449.537 334.405Z" fill="black"/>
<path d="M433.895 349.063C433.912 349.45 434.099 349.802 434.435 350.079C434.733 350.325 435.145 350.509 435.64 350.645C435.494 350.82 435.406 351.027 435.381 351.26C435.335 351.683 435.467 352.065 435.766 352.364C436.339 352.937 437.565 353.221 439.486 353.221C440.454 353.221 441.598 353.148 442.923 353.005C445.739 352.699 447.838 351.471 449.163 349.355C449.899 348.181 452.151 342.844 449.731 338.191C449.66 338.05 449.512 337.964 449.354 337.967C449.197 337.971 449.054 338.064 448.987 338.206C448.939 338.306 447.755 340.689 443.498 341.42C441.95 341.685 440.442 341.71 439.111 341.733C437.113 341.767 435.67 341.79 434.971 342.572C434.674 342.906 434.548 343.351 434.601 343.894C434.634 344.226 434.81 344.493 435.097 344.706C434.186 345.006 433.955 345.589 433.955 346.101C433.955 346.806 434.131 347.28 434.489 347.6C434.408 347.655 434.333 347.715 434.269 347.783C433.857 348.214 433.883 348.809 433.895 349.063Z" fill="white"/>
<path d="M433.895 349.063C433.912 349.45 434.099 349.802 434.435 350.079C434.733 350.325 435.145 350.509 435.64 350.645C435.494 350.82 435.406 351.027 435.381 351.26C435.335 351.683 435.467 352.065 435.766 352.364C436.339 352.937 437.565 353.221 439.486 353.221C440.454 353.221 441.598 353.148 442.923 353.005C445.739 352.699 447.838 351.471 449.163 349.355C449.899 348.181 452.151 342.844 449.731 338.191C449.66 338.05 449.512 337.964 449.354 337.967C449.197 337.971 449.054 338.064 448.987 338.206C448.939 338.306 447.755 340.689 443.498 341.42C441.95 341.685 440.442 341.71 439.111 341.733C437.113 341.767 435.67 341.79 434.971 342.572C434.674 342.906 434.548 343.351 434.601 343.894C434.634 344.226 434.81 344.493 435.097 344.706C434.186 345.006 433.955 345.589 433.955 346.101C433.955 346.806 434.131 347.28 434.489 347.6C434.408 347.655 434.333 347.715 434.269 347.783C433.857 348.214 433.883 348.809 433.895 349.063ZM434.868 348.357C435.034 348.183 435.373 348.146 435.629 348.146C435.67 348.146 435.71 348.138 435.748 348.126C436.56 348.276 437.654 348.292 439.054 348.316C439.26 348.319 439.459 348.321 439.654 348.321C443.061 348.321 444.635 347.839 444.705 347.818C444.924 347.748 445.045 347.515 444.977 347.296C444.908 347.077 444.675 346.956 444.456 347.025C444.441 347.03 442.734 347.545 439.067 347.485C435.265 347.424 434.785 347.27 434.785 346.101C434.785 345.483 435.748 345.343 436.557 345.335C436.621 345.335 436.681 345.318 436.734 345.292C438.236 345.551 440.305 345.489 442.214 345.372C444.569 345.225 445.301 344.96 445.377 344.93C445.59 344.845 445.695 344.604 445.61 344.39C445.527 344.178 445.286 344.073 445.072 344.156C445.07 344.158 444.379 344.405 442.163 344.543C440.378 344.654 438.906 344.664 437.789 344.575C436.087 344.438 435.452 344.08 435.428 343.812C435.388 343.406 435.502 343.225 435.59 343.125C436.047 342.613 437.473 342.59 439.124 342.564C440.486 342.54 442.028 342.515 443.639 342.238C446.96 341.669 448.604 340.131 449.303 339.233C451.025 343.371 449.109 347.881 448.461 348.913C447.277 350.805 445.384 351.902 442.834 352.18C438.063 352.696 436.726 352.15 436.354 351.778C436.233 351.657 436.186 351.524 436.206 351.348C436.216 351.248 436.258 351.178 436.344 351.11C436.505 350.986 436.761 350.919 437.038 350.886C437.523 350.933 438.045 350.953 438.589 350.953C440.371 350.953 442.397 350.732 444.175 350.471C444.401 350.438 444.559 350.227 444.526 349.999C444.491 349.772 444.281 349.616 444.054 349.649C441.631 350.006 439.843 350.131 438.518 350.126C438.48 350.106 438.44 350.091 438.395 350.084C438.287 350.068 437.674 349.986 437.03 350.053C435.751 349.918 435.195 349.629 434.964 349.438C434.758 349.269 434.728 349.121 434.724 349.025C434.712 348.769 434.722 348.51 434.868 348.357Z" fill="black"/>
<path d="M384.69 345.822C384.662 345.822 384.632 345.818 384.604 345.813C384.38 345.765 384.237 345.546 384.284 345.322C385.718 338.532 390.132 329.862 390.175 329.776C390.28 329.572 390.53 329.492 390.733 329.595C390.937 329.699 391.019 329.95 390.914 330.153C390.871 330.239 386.507 338.811 385.096 345.493C385.054 345.689 384.881 345.822 384.69 345.822Z" fill="#1E1E1E"/>
<path d="M416.851 346.132C416.647 346.532 416.215 346.961 415.642 347.384C415.657 347.392 415.671 347.399 415.682 347.407C415.89 347.54 416.129 347.819 416.086 348.392C416.049 348.867 415.694 349.353 415.002 349.88C412.016 352.148 402.734 354.983 396.166 354.983C395.208 354.983 394.31 354.923 393.496 354.792C393.313 354.763 393.174 354.617 393.157 354.44L392.455 346.56C392.442 346.419 392.51 346.281 392.633 346.202C392.667 346.18 396 344.03 399.462 342.077C405.857 338.472 407.275 338.54 407.818 339.081C408.056 339.319 408.16 339.626 408.119 339.972C407.969 341.177 405.815 342.892 404.206 344.018C405.767 343.678 407.871 343.165 409.113 342.635C409.716 342.376 410.347 342.036 410.955 341.705C412.675 340.772 414.301 339.892 415.098 341.086C415.266 341.338 415.31 341.634 415.224 341.944C415.184 342.094 415.113 342.243 415.015 342.396C415.138 342.396 415.257 342.408 415.373 342.437C415.691 342.519 415.936 342.715 416.083 343.005C416.312 343.459 416.24 343.955 415.872 344.493C415.92 344.493 415.97 344.501 416.016 344.508C416.35 344.565 416.627 344.741 416.818 345.015C416.979 345.24 417.114 345.619 416.851 346.132Z" fill="white"/>
<path d="M417.381 344.902C417.185 344.611 416.901 344.425 416.559 344.365C416.511 344.357 416.461 344.35 416.411 344.349C416.788 343.779 416.861 343.251 416.627 342.771C416.476 342.462 416.225 342.255 415.9 342.168C415.782 342.137 415.659 342.124 415.533 342.125C415.632 341.964 415.706 341.805 415.747 341.647C415.835 341.318 415.789 341.004 415.618 340.737C414.801 339.47 413.135 340.403 411.372 341.393C410.747 341.743 410.101 342.105 409.484 342.379C408.212 342.94 406.055 343.485 404.455 343.845C406.106 342.652 408.313 340.833 408.466 339.555C408.509 339.189 408.403 338.864 408.158 338.612C407.602 338.037 406.149 337.966 399.595 341.788C396.047 343.859 392.631 346.139 392.596 346.162C392.47 346.247 392.4 346.393 392.413 346.542L393.132 354.896C393.149 355.086 393.292 355.24 393.479 355.27C394.313 355.409 395.235 355.472 396.216 355.472C402.948 355.472 412.459 352.467 415.52 350.062C416.229 349.505 416.592 348.988 416.63 348.485C416.675 347.877 416.43 347.582 416.217 347.441C416.204 347.432 416.19 347.424 416.175 347.416C416.763 346.966 417.205 346.512 417.414 346.087C417.683 345.543 417.545 345.141 417.381 344.902ZM416.669 345.72C415.872 347.341 409.865 349.976 407.81 350.099C407.581 350.112 407.406 350.308 407.42 350.537C407.433 350.758 407.615 350.928 407.835 350.928H407.86C409.238 350.845 412.381 349.714 414.718 348.37C414.777 348.37 414.837 348.355 414.894 348.326C415.221 348.156 415.651 348.062 415.76 348.135C415.784 348.15 415.815 348.243 415.802 348.424C415.794 348.538 415.699 348.865 415.006 349.41C411.744 351.974 400.256 355.376 393.933 354.499L393.262 346.717C394.042 346.202 396.942 344.3 399.95 342.542C406.724 338.587 407.532 339.163 407.562 339.189C407.614 339.243 407.659 339.311 407.642 339.455C407.503 340.624 404.268 343.068 402.262 344.335C402.093 344.442 402.023 344.652 402.096 344.838C402.169 345.024 402.363 345.131 402.559 345.094C402.762 345.056 407.534 344.146 409.819 343.138C410.472 342.849 411.136 342.477 411.777 342.117C413.386 341.215 414.555 340.619 414.92 341.187C414.952 341.237 414.98 341.305 414.945 341.434C414.85 341.795 414.419 342.243 413.864 342.69C413.862 342.69 413.861 342.69 413.861 342.69C413.723 342.769 413.628 342.833 413.595 342.856C413.545 342.891 413.505 342.934 413.475 342.984C412.835 343.452 412.109 343.89 411.553 344.181C411.518 344.198 408.08 345.905 406.43 345.924C406.201 345.926 406.016 346.115 406.02 346.345C406.021 346.572 406.207 346.755 406.435 346.755H406.44C408.28 346.731 411.777 344.996 411.931 344.92C412.14 344.81 413.323 344.178 414.324 343.381C414.769 343.125 415.367 342.884 415.689 342.97C415.78 342.994 415.837 343.042 415.882 343.135C416.101 343.585 415.491 344.294 414.683 344.936L414.668 344.946C414.668 344.946 414.659 344.953 414.656 344.955C414.641 344.965 414.628 344.976 414.616 344.988C414.145 345.355 413.612 345.697 413.14 345.953C413.135 345.953 413.13 345.958 413.125 345.961C413.087 345.983 409.406 348.146 407.162 348.146H407.084C406.863 348.14 406.666 348.322 406.661 348.551C406.654 348.781 406.837 348.97 407.066 348.976H407.159C409.603 348.976 413.299 346.821 413.54 346.678C413.632 346.63 414.385 346.213 415.139 345.631C415.139 345.631 415.141 345.631 415.143 345.631C415.337 345.489 415.991 345.107 416.416 345.182C416.537 345.204 416.622 345.262 416.695 345.367C416.72 345.405 416.78 345.494 416.669 345.72Z" fill="black"/>
<path d="M398.67 358.496L398.285 359.079C397.222 359.667 394.28 361.269 390.758 362.953C389.859 356.431 388.837 348.498 388.533 344.299C390.921 343.736 393.659 343.112 396.767 342.432L398.672 358.496H398.67Z" fill="#2479F1"/>
<path d="M406.991 299.534L407.891 299.95L408.793 300.365L414.017 302.771L414.733 303.101L413.233 304.197L402.503 312.04L403.873 300.66L403.924 300.23L403.976 299.802L406.991 299.534Z" fill="#2479F1"/>
<path d="M423.794 311.845L413.233 304.197L412.569 303.716L414.017 302.771H414.018L417.71 300.365L418.346 299.95L418.902 299.588C419.425 299.684 420.654 299.915 422.183 300.219L422.243 300.655L422.303 301.085L423.794 311.845Z" fill="#2479F1"/>
<path d="M425.445 276.976C425.393 276.667 425.307 276.199 425.249 275.872C425.249 275.872 417.619 276.496 414.495 275.093L409.784 283.201C409.784 283.201 405.133 279.459 403.418 283.201C401.702 286.944 406.601 289.751 406.601 289.751L406.453 300.385C409.284 304.898 416.192 304.971 419.106 300.607L418.235 295.521C418.235 295.521 427.002 295.494 425.448 276.974L425.445 276.976Z" fill="white"/>
<path d="M412.871 304.242C412.83 304.242 412.788 304.242 412.748 304.242C409.988 304.202 407.504 302.844 406.101 300.607C406.058 300.539 406.036 300.461 406.038 300.381L406.183 289.981C405.223 289.357 401.407 286.594 403.041 283.03C403.497 282.034 404.188 281.421 405.093 281.207C406.824 280.8 408.828 282.014 409.658 282.594L414.136 274.886C414.243 274.701 414.472 274.628 414.665 274.716C417.655 276.06 425.139 275.465 425.215 275.46C425.43 275.442 425.621 275.591 425.659 275.802C425.68 275.92 425.704 276.058 425.73 276.199C425.775 276.45 425.823 276.712 425.855 276.911C425.856 276.921 425.858 276.933 425.858 276.945C426.318 282.429 426.119 289.784 422.552 293.674C421.054 295.308 419.485 295.765 418.715 295.891L419.512 300.542C419.53 300.647 419.507 300.755 419.448 300.843C418.022 302.98 415.569 304.247 412.869 304.247L412.871 304.242ZM406.868 300.267C408.132 302.203 410.324 303.375 412.758 303.41C415.168 303.445 417.361 302.364 418.666 300.511L417.823 295.591C417.803 295.471 417.836 295.347 417.914 295.254C417.992 295.161 418.108 295.106 418.231 295.106C418.248 295.106 420.169 295.059 421.966 293.082C423.809 291.052 425.837 286.621 425.033 277.026C425.001 276.833 424.956 276.583 424.913 276.344C424.912 276.334 424.91 276.324 424.908 276.314C423.369 276.417 417.622 276.712 414.674 275.615L410.145 283.411C410.083 283.515 409.98 283.588 409.862 283.61C409.743 283.633 409.62 283.602 409.527 283.525C409.502 283.505 407.086 281.587 405.286 282.014C404.633 282.169 404.147 282.614 403.798 283.374C403.162 284.761 403.456 286.18 404.67 287.594C405.621 288.701 406.799 289.384 406.81 289.392C406.941 289.467 407.021 289.608 407.018 289.757L406.872 300.267H406.868Z" fill="#1E1E1E"/>
<path d="M407.82 285.878C407.675 285.878 407.534 285.802 407.458 285.667C407.067 284.98 406.174 284.721 406.166 284.719C405.945 284.658 405.817 284.429 405.879 284.208C405.94 283.987 406.167 283.859 406.388 283.919C406.438 283.932 407.619 284.267 408.182 285.257C408.295 285.456 408.225 285.71 408.026 285.823C407.961 285.86 407.891 285.878 407.821 285.878H407.82Z" fill="#1E1E1E"/>
<path d="M413.964 280.744C413.823 280.744 413.686 280.673 413.608 280.543C413.49 280.347 413.552 280.091 413.748 279.973C413.811 279.935 415.322 279.029 417.623 278.507C417.848 278.456 418.07 278.597 418.12 278.819C418.171 279.044 418.03 279.266 417.808 279.316C415.646 279.807 414.193 280.674 414.18 280.682C414.113 280.722 414.038 280.742 413.965 280.742L413.964 280.744Z" fill="#1E1E1E"/>
<path d="M419.443 286.381C419.214 286.381 419.028 286.195 419.028 285.966C419.028 285.737 419.214 285.551 419.443 285.551C420.357 285.551 420.672 285.403 420.775 285.279C420.938 285.083 420.84 284.56 420.727 283.954C420.521 282.849 420.239 281.338 420.872 279.407C421.288 278.137 422.313 277.936 424.314 277.981C424.543 277.986 424.724 278.177 424.719 278.406C424.714 278.635 424.525 278.819 424.294 278.811C422.185 278.761 421.861 279.049 421.659 279.666C421.092 281.395 421.351 282.786 421.541 283.803C421.698 284.648 421.823 285.315 421.411 285.812C421.079 286.212 420.49 286.383 419.442 286.383L419.443 286.381Z" fill="#1E1E1E"/>
<path d="M422.917 281.757C423.312 281.757 423.631 281.437 423.631 281.043C423.631 280.649 423.312 280.329 422.917 280.329C422.523 280.329 422.203 280.649 422.203 281.043C422.203 281.437 422.523 281.757 422.917 281.757Z" fill="#1E1E1E"/>
<path d="M417.268 281.38C417.268 281.775 416.948 282.094 416.554 282.094C416.161 282.094 415.84 281.773 415.84 281.38C415.84 280.986 416.161 280.666 416.554 280.666C416.948 280.666 417.268 280.986 417.268 281.38Z" fill="#1E1E1E"/>
<path d="M410.249 282.595C410.251 281.983 411.152 281.362 411.478 280.8L414.794 275.095C417.883 276.481 425.426 275.865 425.426 275.865C425.426 275.865 430.534 275.706 430.534 269.676C430.534 263.647 423.889 262 421.559 262C419.229 262 415.46 263.096 413.748 265.221C413.748 265.221 407.237 262.824 403.127 267.483C399.016 272.141 400.797 279.457 400.797 279.457C400.797 279.457 397.85 281.348 397.85 284.453C397.85 289.141 403.416 289.875 406.799 294.518L406.99 289.586C406.99 289.586 402.147 286.811 403.843 283.11C404.789 281.046 407.008 281.93 408.457 282.544C408.492 282.858 408.974 282.635 409.012 282.991" fill="#1E1E1E"/>
<path d="M418.025 288.998C418.243 290.362 420.825 290.828 421.874 288.892L418.025 288.998Z" fill="white"/>
<path d="M429.993 348.732C431.556 347.168 431.556 344.633 429.993 343.07C428.429 341.507 425.894 341.507 424.331 343.07C422.767 344.633 422.767 347.168 424.331 348.732C425.894 350.295 428.429 350.295 429.993 348.732Z" fill="white"/>
<path d="M427.162 350.318C424.726 350.318 422.743 348.336 422.743 345.9C422.743 343.464 424.726 341.481 427.162 341.481C429.598 341.481 431.58 343.464 431.58 345.9C431.58 348.336 429.598 350.318 427.162 350.318ZM427.162 342.311C425.182 342.311 423.573 343.92 423.573 345.9C423.573 347.879 425.182 349.488 427.162 349.488C429.141 349.488 430.75 347.879 430.75 345.9C430.75 343.92 429.141 342.311 427.162 342.311Z" fill="black"/>
<path d="M421.375 337.034H414.729C413.944 337.034 413.308 336.398 413.308 335.613C413.308 334.827 413.944 334.191 414.729 334.191H421.375C422.16 334.191 422.796 334.827 422.796 335.613C422.796 336.398 422.16 337.034 421.375 337.034Z" fill="white"/>
<path d="M421.375 337.449H414.729C413.716 337.449 412.893 336.625 412.893 335.613C412.893 334.6 413.716 333.776 414.729 333.776H421.375C422.388 333.776 423.211 334.6 423.211 335.613C423.211 336.625 422.388 337.449 421.375 337.449ZM414.729 334.606C414.175 334.606 413.723 335.058 413.723 335.613C413.723 336.167 414.175 336.619 414.729 336.619H421.375C421.929 336.619 422.381 336.167 422.381 335.613C422.381 335.058 421.929 334.606 421.375 334.606H414.729Z" fill="black"/>
</g>
<path d="M328.719 457.781V458.797H316.062V457.781H321.781V456.328C319.117 456.188 317.469 455.188 317.469 453.547C317.469 451.836 319.375 450.805 322.391 450.797C325.375 450.805 327.289 451.836 327.297 453.547C327.289 455.188 325.633 456.188 323 456.328V457.781H328.719ZM317.703 463.969V459.922H318.938V462.938H327.312V463.969H317.703ZM318.734 453.547C318.727 454.68 320.148 455.328 322.391 455.328C324.617 455.328 326.039 454.68 326.047 453.547C326.039 452.484 324.617 451.797 322.391 451.797C320.148 451.797 318.727 452.484 318.734 453.547ZM340.641 450.375V455.906H342.969V456.938H340.641V464.297H339.422V450.375H340.641ZM330.438 452.688V451.672H336.75V456.641H331.688V459.891C334.266 459.898 336.07 459.797 338.172 459.406L338.297 460.422C336.109 460.82 334.258 460.922 331.578 460.938H330.469V455.625H335.531V452.688H330.438ZM355.188 450.391V460.547H353.969V450.391H355.188ZM344.047 454.766C344.039 452.766 345.609 451.367 347.688 451.359C349.766 451.367 351.32 452.766 351.328 454.766C351.32 456.789 349.766 458.195 347.688 458.188C345.609 458.195 344.039 456.789 344.047 454.766ZM345.25 454.766C345.234 456.148 346.281 457.109 347.688 457.109C349.07 457.109 350.125 456.148 350.125 454.766C350.125 453.406 349.07 452.438 347.688 452.438C346.281 452.438 345.234 453.406 345.25 454.766ZM346.219 463.969V459.516H347.438V462.938H355.625V463.969H346.219ZM363.875 450.625C366.961 450.625 368.773 451.477 368.781 453.016C368.773 454.594 366.961 455.445 363.875 455.453C360.773 455.445 358.953 454.594 358.953 453.016C358.953 451.477 360.773 450.625 363.875 450.625ZM357.547 457.391V456.391H370.203V457.391H357.547ZM359.078 459.531V458.594H368.578V461.703H360.328V463.141H369V464.109H359.109V460.797H367.375V459.531H359.078ZM360.234 453.016C360.219 453.984 361.57 454.516 363.875 454.516C366.18 454.516 367.523 453.984 367.531 453.016C367.523 452.102 366.18 451.555 363.875 451.547C361.57 451.555 360.219 452.102 360.234 453.016ZM388.047 457.75V458.75H375.375V457.75H381.094V456.375H377.062V450.781H386.469V451.781H378.297V453.078H386.094V454.016H378.297V455.391H386.547V456.375H382.312V457.75H388.047ZM376.922 462.016C376.914 460.57 378.641 459.781 381.719 459.797C384.766 459.781 386.484 460.57 386.5 462.016C386.484 463.477 384.766 464.234 381.719 464.234C378.641 464.234 376.914 463.477 376.922 462.016ZM378.156 462.016C378.141 462.859 379.422 463.297 381.719 463.281C383.992 463.297 385.258 462.859 385.266 462.016C385.258 461.188 383.992 460.727 381.719 460.719C379.422 460.727 378.141 461.188 378.156 462.016ZM396.156 452.781V453.781H389.188V452.781H392.078V450.797H393.297V452.781H396.156ZM389.688 457.875C389.688 456.031 390.945 454.727 392.672 454.719C394.422 454.727 395.672 456.031 395.688 457.875C395.672 459.742 394.422 461.055 392.672 461.063C390.945 461.055 389.688 459.742 389.688 457.875ZM390.781 457.875C390.781 459.109 391.57 459.992 392.672 459.984C393.781 459.992 394.594 459.109 394.594 457.875C394.594 456.656 393.781 455.766 392.672 455.75C391.57 455.766 390.781 456.656 390.781 457.875ZM396.875 463.578V450.719H398.031V456.234H399.875V450.375H401.047V464.266H399.875V457.25H398.031V463.578H396.875ZM418.203 451.781V453.172C418.188 454.875 418.188 456.781 417.688 459.578L416.438 459.438C416.961 456.781 416.961 454.836 416.969 453.172V452.797H408.406V451.781H418.203ZM407.062 462.297V461.281H412.031V456.313H413.234V461.281H419.719V462.297H407.062ZM432.688 450.391V458.578H431.516V454.906H429.625V458.484H428.453V450.656H429.625V453.891H431.516V450.391H432.688ZM420.969 457.813C423.852 456.641 425.484 454.758 425.719 452.422H421.531V451.406H426.984C426.977 454.727 425.102 457.234 421.578 458.734L420.969 457.813ZM423.312 460.219V459.219H432.688V464.266H431.484V460.219H423.312ZM446.625 450.375V464.266H445.438V450.375H446.625ZM434.891 456.375C434.898 453.422 436.07 451.555 437.875 451.547C439.562 451.555 440.703 453.18 440.859 455.797H442.656V450.672H443.828V463.563H442.656V456.813H440.867C440.75 459.516 439.586 461.211 437.875 461.203C436.07 461.211 434.898 459.328 434.891 456.375ZM436.047 456.375C436.031 458.625 436.75 460.047 437.875 460.031C439.008 460.047 439.727 458.625 439.719 456.375C439.727 454.117 439.008 452.703 437.875 452.703C436.75 452.703 436.031 454.117 436.047 456.375ZM460.438 450.375V464.266H459.266V450.375H460.438ZM448.562 460.375C451.578 458.586 453.094 456.078 453.328 453.172H449.156V452.156H454.547C454.547 453.523 454.328 454.844 453.852 456.078H456.344V450.75H457.516V463.563H456.344V457.078H453.398C452.562 458.695 451.219 460.125 449.281 461.266L448.562 460.375ZM479.109 461.438V462.453H466.391V461.438H472.078V458.031H473.281V461.438H479.109ZM466.891 457.172C469.32 456.758 472.023 454.727 472.031 452.391V451.328H473.312V452.391C473.32 454.711 476.062 456.758 478.484 457.172L477.938 458.188C475.82 457.75 473.586 456.32 472.688 454.32C471.773 456.313 469.562 457.75 467.438 458.188L466.891 457.172ZM492.078 450.375V464.266H490.875V457H488.953V463.578H487.781V450.75H488.953V455.984H490.875V450.375H492.078ZM480.234 460.422C483.461 458.617 484.789 456.078 485 453.203H480.766V452.188H486.203C486.188 455.719 484.945 459.055 480.953 461.281L480.234 460.422Z" fill="#373737"/>
<path d="M657.5 362C661.091 362 664 359.091 664 355.5C664 351.909 661.091 349 657.5 349C653.909 349 651 351.909 651 355.5C651 359.091 653.909 362 657.5 362ZM657.5 365.25C653.161 365.25 644.5 367.427 644.5 371.75V375H670.5V371.75C670.5 367.427 661.839 365.25 657.5 365.25Z" fill="#BFBFBF"/>
<path d="M687.5 362C691.091 362 694 359.091 694 355.5C694 351.909 691.091 349 687.5 349C683.909 349 681 351.909 681 355.5C681 359.091 683.909 362 687.5 362ZM687.5 365.25C683.161 365.25 674.5 367.427 674.5 371.75V375H700.5V371.75C700.5 367.427 691.839 365.25 687.5 365.25Z" fill="#BFBFBF"/>
<path d="M717.5 362C721.091 362 724 359.091 724 355.5C724 351.909 721.091 349 717.5 349C713.909 349 711 351.909 711 355.5C711 359.091 713.909 362 717.5 362ZM717.5 365.25C713.161 365.25 704.5 367.427 704.5 371.75V375H730.5V371.75C730.5 367.427 721.839 365.25 717.5 365.25Z" fill="#BFBFBF"/>
<path d="M642.5 396C646.091 396 649 393.091 649 389.5C649 385.909 646.091 383 642.5 383C638.909 383 636 385.909 636 389.5C636 393.091 638.909 396 642.5 396ZM642.5 399.25C638.161 399.25 629.5 401.427 629.5 405.75V409H655.5V405.75C655.5 401.427 646.839 399.25 642.5 399.25Z" fill="#BFBFBF"/>
<path d="M672.5 396C676.091 396 679 393.091 679 389.5C679 385.909 676.091 383 672.5 383C668.909 383 666 385.909 666 389.5C666 393.091 668.909 396 672.5 396ZM672.5 399.25C668.161 399.25 659.5 401.427 659.5 405.75V409H685.5V405.75C685.5 401.427 676.839 399.25 672.5 399.25Z" fill="#BFBFBF"/>
<path d="M702.5 396C706.091 396 709 393.091 709 389.5C709 385.909 706.091 383 702.5 383C698.909 383 696 385.909 696 389.5C696 393.091 698.909 396 702.5 396ZM702.5 399.25C698.161 399.25 689.5 401.427 689.5 405.75V409H715.5V405.75C715.5 401.427 706.839 399.25 702.5 399.25Z" fill="#BFBFBF"/>
<path d="M732.5 396C736.091 396 739 393.091 739 389.5C739 385.909 736.091 383 732.5 383C728.909 383 726 385.909 726 389.5C726 393.091 728.909 396 732.5 396ZM732.5 399.25C728.161 399.25 719.5 401.427 719.5 405.75V409H745.5V405.75C745.5 401.427 736.839 399.25 732.5 399.25Z" fill="#BFBFBF"/>
<path d="M685.203 424.781V426.172C685.188 427.875 685.188 429.781 684.688 432.578L683.438 432.437C683.961 429.781 683.961 427.836 683.969 426.172V425.797H675.406V424.781H685.203ZM674.062 435.297V434.281H679.031V429.312H680.234V434.281H686.719V435.297H674.062ZM699.688 423.391V431.578H698.516V427.906H696.625V431.484H695.453V423.656H696.625V426.891H698.516V423.391H699.688ZM687.969 430.812C690.852 429.641 692.484 427.758 692.719 425.422H688.531V424.406H693.984C693.977 427.726 692.102 430.234 688.578 431.734L687.969 430.812ZM690.312 433.219V432.219H699.688V437.266H698.484V433.219H690.312Z" fill="#373737"/>
<path d="M398.5 231.92L404.017 242L409.5 231.92L404.017 233.686L398.5 231.92Z" fill="#EC661A"/>
<line x1="403.97" y1="235.5" x2="403.97" y2="115" stroke="url(#paint0_linear_1_209)" stroke-width="2"/>
<line x1="174.479" y1="250.979" x2="305.416" y2="120.041" stroke="url(#paint1_linear_1_209)" stroke-width="2"/>
<path d="M173.047 244.675L169.821 255.704L180.825 252.453L175.7 249.825L173.047 244.675Z" fill="#EC661A"/>
<path d="M306.697 126.581L309.924 115.552L298.919 118.802L304.045 121.431L306.697 126.581Z" fill="#EC661A"/>
<path d="M223.58 425L213.5 430.517L223.58 436L221.814 430.517L223.58 425Z" fill="#EC661A"/>
<path d="M599.42 436L609.5 430.482L599.42 425L601.186 430.482L599.42 436Z" fill="#EC661A"/>
<line x1="218.54" y1="430.47" x2="606.25" y2="430.47" stroke="url(#paint2_linear_1_209)" stroke-width="2"/>
<g clip-path="url(#clip1_1_209)">
<path d="M407.237 0H338.763C330.057 0 323 7.05721 323 15.7627V84.2373C323 92.9428 330.057 100 338.763 100H407.237C415.943 100 423 92.9428 423 84.2373V15.7627C423 7.05721 415.943 0 407.237 0Z" fill="#EC661A"/>
<path d="M361.307 19.7056C361.307 26.4348 361.132 33.0413 361.369 39.639C361.526 44.1426 364.952 47.5773 369.368 48.3659C373.504 49.1107 377.806 46.8851 379.672 43.0299C381.547 39.1483 380.662 34.6097 377.394 31.6832C375.598 30.0797 373.513 29.2035 371.007 29.2999V34.0577C371.445 34.1628 371.857 34.2417 372.251 34.3556C374.012 34.89 375.151 36.0641 375.545 37.8603C375.948 39.7091 375.396 41.295 373.916 42.4779C372.444 43.6607 370.779 43.8973 369.053 43.1087C367.239 42.2851 366.284 40.8306 366.284 38.8329C366.266 32.9186 366.275 27.0043 366.275 21.09C366.275 20.6431 366.275 20.1963 366.275 19.7056H361.316H361.307ZM371.024 24.4984C379.769 26.0755 384.631 30.5441 385.192 37.431C385.455 40.7167 384.789 43.7834 382.975 46.5434C380.154 50.828 376.054 52.8871 371.042 53.1587V58.0741C378.06 57.7412 383.615 54.8935 387.269 48.9617C391.343 42.3289 391.361 35.4333 387.304 28.8005C383.659 22.8336 378.086 19.9334 371.024 19.6443V24.4984Z" fill="white"/>
<path d="M361.307 19.7056H366.266C366.266 20.205 366.266 20.6519 366.266 21.09C366.266 27.0043 366.258 32.9186 366.275 38.8329C366.275 40.8306 367.239 42.2851 369.044 43.1087C370.77 43.8973 372.435 43.652 373.907 42.4779C375.388 41.295 375.94 39.7091 375.537 37.8603C375.142 36.0641 374.003 34.89 372.242 34.3556C371.848 34.2329 371.436 34.154 370.998 34.0577V29.2999C373.504 29.2035 375.598 30.0797 377.385 31.6832C380.654 34.6097 381.547 39.1483 379.663 43.0299C377.797 46.8851 373.504 49.1107 369.359 48.3659C364.943 47.5686 361.517 44.1426 361.36 39.639C361.132 33.05 361.298 26.4348 361.298 19.7056H361.307Z" fill="white"/>
<path d="M371.033 24.4984V19.6443C378.095 19.9334 383.668 22.8336 387.313 28.8005C391.369 35.4333 391.352 42.3289 387.278 48.9617C383.633 54.8935 378.078 57.7412 371.05 58.0741V53.1587C376.054 52.8871 380.163 50.828 382.984 46.5434C384.798 43.7834 385.473 40.7167 385.201 37.431C384.64 30.5441 379.777 26.0755 371.033 24.4984Z" fill="white"/>
<path d="M366.249 58.2143C367.609 58.2143 368.711 57.112 368.711 55.7522C368.711 54.3924 367.609 53.2901 366.249 53.2901C364.889 53.2901 363.787 54.3924 363.787 55.7522C363.787 57.112 364.889 58.2143 366.249 58.2143Z" fill="white"/>
<path d="M333.138 84.3337V68.7199H338.991L341.829 78.1302H341.926L344.765 68.7199H350.548V84.3337H346.245V73.8106H346.149L343.012 84.3337H339.972L336.861 73.7843H336.747V84.3337H333.146H333.138Z" fill="white"/>
<path d="M355.148 87.7245C354.175 87.7245 353.404 87.6019 352.852 87.3565V84.7542C353.413 84.8506 353.833 84.8944 354.131 84.8944C355.183 84.8944 355.848 84.5352 356.129 83.8255L356.313 83.3173L351.871 72.3473H356.006L358.258 78.8312H358.302L360.65 72.3473H364.365L359.739 84.6666C359.336 85.8319 358.793 86.6293 358.109 87.0674C357.426 87.5055 356.436 87.7333 355.139 87.7333L355.148 87.7245Z" fill="white"/>
<path d="M371.392 84.3337V68.7199H375.764V74.7393H380.671V68.7199H385.061V84.3337H380.671V77.8761H375.764V84.3337H371.392Z" fill="white"/>
<path d="M394.208 84.5878C389.687 84.5878 387.427 82.6426 387.427 78.7523V68.7374H391.816V78.5946C391.816 79.5847 392.018 80.3032 392.43 80.7413C392.841 81.1794 393.481 81.4072 394.348 81.4072C395.216 81.4072 395.838 81.1881 396.215 80.7413C396.592 80.2944 396.784 79.5759 396.784 78.5683V68.7374H400.692V78.726C400.692 80.6799 400.158 82.1432 399.097 83.1157C398.037 84.0883 396.408 84.579 394.208 84.579V84.5878Z" fill="white"/>
<path d="M403.084 84.3337V68.7199H409.848C413.414 68.7199 415.193 70.0429 415.193 72.6978C415.193 74.494 414.326 75.6418 412.591 76.1325V76.2026C414.79 76.5881 415.894 77.8235 415.894 79.9001C415.894 81.2495 415.421 82.3272 414.466 83.1333C413.511 83.9394 412.065 84.3424 410.129 84.3424H403.084V84.3337ZM407.36 75.2037H408.937C410.313 75.2037 411.005 74.5729 411.005 73.3024C411.005 72.6715 410.838 72.2071 410.505 71.9355C410.173 71.6551 409.664 71.5149 408.981 71.5149H407.351V75.2125L407.36 75.2037ZM407.36 81.5035H409.217C410.654 81.5035 411.382 80.8376 411.382 79.5058C411.382 78.174 410.619 77.5782 409.104 77.5782H407.36V81.5035Z" fill="white"/>
</g>
<defs>
<linearGradient id="paint0_linear_1_209" x1="404.97" y1="242" x2="404.97" y2="115" gradientUnits="userSpaceOnUse">
<stop stop-color="#EC661A"/>
<stop offset="1" stop-color="#EC661A" stop-opacity="0.5"/>
</linearGradient>
<linearGradient id="paint1_linear_1_209" x1="168.123" y1="258.749" x2="306.124" y2="120.749" gradientUnits="userSpaceOnUse">
<stop stop-color="#EC661A"/>
<stop offset="0.52" stop-color="#EC661A" stop-opacity="0.45"/>
<stop offset="1" stop-color="#EC661A"/>
</linearGradient>
<linearGradient id="paint2_linear_1_209" x1="197.626" y1="431.47" x2="606.25" y2="431.47" gradientUnits="userSpaceOnUse">
<stop stop-color="#EC661A"/>
<stop offset="0.52" stop-color="#EC661A" stop-opacity="0.45"/>
<stop offset="1" stop-color="#EC661A"/>
</linearGradient>
<clipPath id="clip0_1_209">
<rect width="108" height="108" fill="white" transform="translate(350.5 262)"/>
</clipPath>
<clipPath id="clip1_1_209">
<rect width="100" height="100" fill="white" transform="translate(323)"/>
</clipPath>
</defs>
</svg>
