<svg width="59" height="58" viewBox="0 0 59 58" fill="none" xmlns="http://www.w3.org/2000/svg">
<path d="M46.8815 9.66683H44.4648V4.8335H39.6315V9.66683H20.2982V4.8335H15.4648V9.66683H13.0482C10.3657 9.66683 8.23901 11.8418 8.23901 14.5002L8.21484 48.3335C8.21484 50.9918 10.3657 53.1668 13.0482 53.1668H46.8815C49.5398 53.1668 51.7148 50.9918 51.7148 48.3335V14.5002C51.7148 11.8418 49.5398 9.66683 46.8815 9.66683ZM46.8815 48.3335H13.0482V24.1668H46.8815V48.3335ZM22.7148 33.8335H17.8815V29.0002H22.7148V33.8335ZM32.3815 33.8335H27.5482V29.0002H32.3815V33.8335ZM42.0482 33.8335H37.2148V29.0002H42.0482V33.8335ZM22.7148 43.5002H17.8815V38.6668H22.7148V43.5002ZM32.3815 43.5002H27.5482V38.6668H32.3815V43.5002ZM42.0482 43.5002H37.2148V38.6668H42.0482V43.5002Z" fill="#EC661A"/>
</svg>
