<svg width="97" height="33" viewBox="0 0 97 33" fill="none" xmlns="http://www.w3.org/2000/svg">
<g clip-path="url(#clip0_1055_3512)">
<path d="M31.4097 27.6165H12.2686C11.8515 26.1017 11.0761 22.8623 11.3117 22.0233C11.6062 20.9745 12.2686 17.3389 22.1338 15.4512C31.999 13.5635 72.4894 15.1017 81.8391 16.43C89.3189 17.4928 89.1766 24.5635 88.1704 27.9661H72.0477L31.4097 27.6165Z" fill="white"/>
<ellipse cx="5.49174" cy="5.21541" rx="5.49174" ry="5.21541" transform="matrix(-1 0 0 1 27.0039 20.5415)" fill="white"/>
<ellipse cx="5.49174" cy="5.21541" rx="5.49174" ry="5.21541" transform="matrix(-1 0 0 1 82.3633 20.5415)" fill="white"/>
<path d="M82.6003 14.9436C82.4825 11.9233 74.871 13.3589 88.5151 12.986L95.6562 17.5305C94.9201 21.1661 95.4878 25.437 86.9691 20.8864C84.6133 19.6279 82.7475 18.719 82.6003 14.9436Z" fill="white"/>
<path d="M84.4335 25.7923C84.4134 29.793 81.0119 33.0194 76.8369 33.0001C72.6619 32.9809 69.2949 29.7214 69.315 25.7221C69.3352 21.7214 72.7367 18.4936 76.9116 18.5143C81.0866 18.5335 84.4536 21.793 84.4335 25.7937V25.7923ZM81.0651 25.7772C81.0766 23.5592 79.2105 21.7531 76.8958 21.7421C74.5826 21.7311 72.6964 23.5206 72.6849 25.7372C72.6734 27.9552 74.5409 29.7613 76.8541 29.7723C79.1688 29.7834 81.0536 27.9952 81.0651 25.7772Z" fill="#EC661A"/>
<path d="M28.9062 25.5305C28.886 29.5312 25.4845 32.7576 21.3095 32.7383C17.136 32.719 13.7676 29.4595 13.7877 25.4589C13.8078 21.4582 17.2093 18.2318 21.3843 18.2511C25.5593 18.2703 28.9263 21.5298 28.9062 25.5305ZM25.5377 25.5154C25.5492 23.2974 23.6831 21.4913 21.3685 21.4803C19.0539 21.4692 17.1691 23.2588 17.159 25.4754C17.1475 27.692 19.0136 29.4995 21.3282 29.5091C23.6429 29.5202 25.5277 27.732 25.5392 25.514L25.5377 25.5154Z" fill="#EC661A"/>
<path d="M17.8383 7.69069C17.7205 4.67035 34.5991 1.49153 48.2432 1.11865L66.1328 8.87925C59.458 11.303 56.2383 17.1432 46.6972 19.1568C34.7709 21.6737 17.9856 11.4661 17.8383 7.69069Z" fill="white"/>
<path d="M96.4648 19.9443L96.4375 25.0898C96.4331 26.05 95.6352 27.0268 94.6648 27.2637L92.8922 27.6949C91.9218 27.9305 90.3087 28.1206 89.3081 28.1151L85.2438 28.0958C85.4666 27.3657 85.5874 26.5956 85.5917 25.7993C85.6162 21.1938 81.7244 17.4274 76.9169 17.4053C72.1107 17.3819 68.1802 21.1112 68.1572 25.718C68.1529 26.5143 68.2664 27.2871 68.4806 28.0187L29.7169 27.8354C29.9398 27.1053 30.0605 26.3352 30.0648 25.5375C30.0878 20.9321 26.1975 17.1656 21.39 17.1422C16.5839 17.1201 12.6547 20.848 12.6303 25.4549C12.626 26.2387 12.7352 26.9965 12.9437 27.717C12.0897 27.6646 11.1452 27.5709 10.4839 27.4648L3.57588 26.2443C2.60258 26.039 1.55596 25.2028 1.27993 24.2797C1.27993 24.2797 0.436028 21.8606 0.466217 16.0015L0.47628 14.0907C0.486343 12.0821 1.48409 9.1808 4.53624 8.55949L8.24829 8.047C9.24603 7.97812 12.6475 7.4684 13.5331 7.02204C18.079 4.73102 22.3446 3.01999 26.3672 1.84073C30.5666 0.609124 36.0656 0.216496 40.3369 0.0511794C46.7992 -0.198174 50.7485 0.439674 56.0161 2.29949C61.1759 4.12211 65.3983 6.43517 68.8242 8.16686C73.1243 10.338 96.5122 10.5805 96.4648 19.9443ZM4.97329 11.9044L2.37543 11.892C2.03183 11.8906 1.69398 12.1606 1.62209 12.4858L1.4122 13.2559C1.42371 13.2559 1.4352 13.2531 1.44814 13.2531L3.3401 13.2628C3.53563 13.2628 3.64346 13.4088 3.57588 13.5851L3.1604 14.6996C3.09426 14.8773 2.88005 15.0206 2.68453 15.0192L1.33025 15.0124C1.33025 15.0124 1.32018 15.011 1.31443 15.011L1.24543 16.2591C1.22817 16.587 1.49271 16.857 1.8363 16.8584L2.6414 16.8625C2.985 16.8625 3.38036 16.6201 3.52126 16.3211L5.33846 12.4513C5.47935 12.151 5.31402 11.9044 4.97042 11.903L4.97329 11.9044ZM62.3735 8.88874L62.3706 8.88599C62.487 8.17926 57.8448 5.55899 53.9976 4.23507C50.2223 2.93458 45.8892 2.32842 40.6978 2.30362C37.2129 2.44552 32.1768 2.79406 28.4633 3.85484C26.383 4.44999 23.1741 5.67195 23.1741 5.67195C22.5257 5.91855 22.3388 6.54951 22.7572 7.07301L23.9821 8.60633C24.4004 9.13121 25.3162 9.56241 26.0164 9.56516L61.1011 9.73048C61.8013 9.73324 62.3735 9.35439 62.3735 8.88737V8.88874ZM94.3514 17.1835C91.9045 14.3029 86.1927 13.4005 85.9986 13.384C85.9914 13.384 85.9856 13.384 85.9799 13.384C85.8936 13.3826 85.8117 13.4198 85.7642 13.4859C85.7125 13.5562 85.7096 13.6457 85.7542 13.7201L88.411 16.6958C88.4498 16.7578 88.5174 16.8005 88.595 16.8102L94.1142 17.5458C94.1257 17.5458 94.1343 17.5472 94.1458 17.5486C94.2364 17.55 94.3212 17.5073 94.3687 17.437C94.4204 17.3571 94.4132 17.2565 94.35 17.1835H94.3514Z" fill="#EC661A"/>
</g>
<defs>
<clipPath id="clip0_1055_3512">
<rect width="96" height="33" fill="white" transform="matrix(-1 0 0 1 96.4648 0)"/>
</clipPath>
</defs>
</svg>
