<svg width="120" height="96" viewBox="0 0 120 96" fill="none" xmlns="http://www.w3.org/2000/svg">
<path d="M79.0617 72.3721H40.9404V91.4824H79.0617V72.3721Z" fill="#F78745"/>
<path fill-rule="evenodd" clip-rule="evenodd" d="M119.675 73.6144C119.675 75.592 117.97 77.1946 115.865 77.1946H4.14048C2.03286 77.1946 0.325195 75.592 0.325195 73.6144V4.50056C0.325195 2.52296 2.03286 0.922852 4.14048 0.922852H115.865C117.97 0.922852 119.675 2.52539 119.675 4.50056V73.612V73.6144Z" fill="#FA9E68"/>
<path fill-rule="evenodd" clip-rule="evenodd" d="M117.591 59.9709C117.591 61.9047 115.901 63.4731 113.82 63.4731H6.17905C4.09512 63.4731 2.41113 61.9047 2.41113 59.9709V6.4441C2.41113 4.51034 4.09512 2.94189 6.17905 2.94189H113.82C115.899 2.94189 117.591 4.51034 117.591 6.4441V59.9685V59.9709Z" fill="white"/>
<path d="M84.7386 91.605H34.9268V95.0767H84.7386V91.605Z" fill="#FA9E68"/>
<path fill-rule="evenodd" clip-rule="evenodd" d="M8.49023 9.97754H108.895C109.54 9.97754 110.066 10.4646 110.066 11.0613V16.1174C110.066 16.7141 109.54 17.2012 108.895 17.2012H8.49023C7.84558 17.2012 7.31934 16.7141 7.31934 16.1174V11.0613C7.31934 10.4646 7.84558 9.97754 8.49023 9.97754Z" fill="#FAE5D9"/>
<path d="M7.68741 24.9243H109.695C109.9 24.9243 110.066 25.0778 110.066 25.2677V26.8703C110.066 27.0602 109.9 27.2137 109.695 27.2137H7.68741C7.48217 27.2137 7.31641 27.0602 7.31641 26.8703V25.2702C7.31641 25.0802 7.48217 24.9268 7.68741 24.9268V24.9243Z" fill="#FAE5D9"/>
<path fill-rule="evenodd" clip-rule="evenodd" d="M7.68741 20.9521H109.695C109.898 20.9521 110.066 21.1056 110.066 21.2956V22.8981C110.066 23.0856 109.898 23.2415 109.695 23.2415H7.68741C7.4848 23.2415 7.31641 23.0881 7.31641 22.8981V21.2956C7.31641 21.108 7.48217 20.9521 7.68741 20.9521Z" fill="#FAE5D9"/>
<path fill-rule="evenodd" clip-rule="evenodd" d="M7.55848 32.8691H73.9891C74.1207 32.8691 74.2312 33.0226 74.2312 33.2125V34.8151C74.2312 35.0026 74.1233 35.1585 73.9891 35.1585H7.55848C7.42692 35.1585 7.31641 35.0051 7.31641 34.8151V33.2125C7.31641 33.025 7.42429 32.8691 7.55848 32.8691Z" fill="#FAE5D9"/>
<path fill-rule="evenodd" clip-rule="evenodd" d="M7.68741 28.897H109.695C109.898 28.897 110.066 29.0504 110.066 29.2404V30.8429C110.066 31.0304 109.898 31.1863 109.695 31.1863H7.68741C7.4848 31.1863 7.31641 31.0329 7.31641 30.8429V29.2404C7.31641 29.0528 7.48217 28.897 7.68741 28.897Z" fill="#FAE5D9"/>
</svg>
