<svg width="69" height="41" viewBox="0 0 69 41" fill="none" xmlns="http://www.w3.org/2000/svg">
<g clip-path="url(#clip0_5634_3484)">
<path d="M67.2648 13.5258H62.1648V8.45361C62.1648 7.52033 61.4032 6.76289 60.4648 6.76289H55.3648V1.69072C55.3648 0.757443 54.6032 0 53.6648 0H2.66484C1.72644 0 0.964844 0.757443 0.964844 1.69072V25.7835C0.964844 26.7168 1.72644 27.4742 2.66484 27.4742H7.76484V32.5464C7.76484 33.4797 8.52644 34.2371 9.46484 34.2371H14.5648V39.3093C14.5648 40.2426 15.3264 41 16.2648 41H67.2648C68.2032 41 68.9648 40.2426 68.9648 39.3093V15.2165C68.9648 14.2832 68.2032 13.5258 67.2648 13.5258ZM4.36484 24.0928V3.38144H51.9648V6.76289H9.46484C8.52644 6.76289 7.76484 7.52033 7.76484 8.45361V24.0928H4.36484ZM11.1648 30.8557V10.1443H58.7648V13.5258H16.2648C15.3264 13.5258 14.5648 14.2832 14.5648 15.2165V30.8557H11.1648ZM65.5648 37.6186H17.9648V16.9072H65.5648V37.6186Z" fill="#22BCB3"/>
<path d="M39.9786 31.575L40.0065 31.6785H40.1137H41.0975H41.2044L41.2325 31.5754L42.1253 28.3086H43.424L44.3219 31.5756L44.3502 31.6785H44.4569H45.4302H45.5373L45.5653 31.5752L46.453 28.3086H47.4396H47.5796V28.1686V27.3314V27.1914H47.4396H46.7593L47.627 23.9982L47.675 23.8215H47.4919H46.5291H46.4201L46.3934 23.9271L45.5672 27.1914H44.2825L43.4307 23.9261L43.4034 23.8215H43.2953H42.2487H42.1405L42.1132 23.9261L41.2614 27.1914H39.9768L39.1506 23.9271L39.1238 23.8215H39.0149H38.0625H37.8797L37.9273 23.998L38.7902 27.1914H38.1148H37.9748V27.3314V28.1686V28.3086H38.1148H39.096L39.9786 31.575ZM40.2624 28.3086H40.9689L40.6119 29.6844L40.2624 28.3086ZM43.1166 27.1914H42.4321L42.7725 25.9455L43.1166 27.1914ZM44.5751 28.3086H45.2816L44.9321 29.6844L44.5751 28.3086Z" fill="#22BCB3" stroke="#22BCB3" stroke-width="0.28"/>
</g>
<defs>
<clipPath id="clip0_5634_3484">
<rect width="68" height="41" fill="white" transform="translate(0.964844)"/>
</clipPath>
</defs>
</svg>
