<svg width="103" height="94" viewBox="0 0 103 94" fill="none" xmlns="http://www.w3.org/2000/svg">
<g clip-path="url(#clip0_1055_3452)">
<path d="M77.1425 84.676C79.9013 85.8122 83.5372 86.4382 87.3798 86.4382C91.2224 86.4382 94.8583 85.8122 97.6171 84.676C100.817 83.3582 102.58 81.427 102.58 79.2391V54.199C102.58 52.0111 100.818 50.0799 97.6171 48.7622C94.8583 47.626 91.2224 47 87.3798 47C83.5372 47 79.9013 47.626 77.1425 48.7622C73.9414 50.0799 72.1797 52.0111 72.1797 54.199V79.2391C72.1797 81.427 73.9414 83.3582 77.1425 84.676ZM96.4892 81.7697C94.08 82.762 90.8454 83.3081 87.3798 83.3081C83.9142 83.3081 80.6796 82.762 78.2704 81.7697C76.1621 80.9012 75.2197 79.873 75.2197 79.2391V78.6992C75.7867 79.0498 76.4281 79.3753 77.1425 79.6679C79.9013 80.8041 83.5372 81.4301 87.3798 81.4301C91.2224 81.4301 94.8583 80.8041 97.6171 79.6679C98.33 79.3737 98.9729 79.0498 99.5399 78.6992V79.2391C99.5399 79.873 98.596 80.9012 96.4892 81.7697ZM80.7997 60.7392C82.8517 61.1758 85.0664 61.3981 87.3798 61.3981C89.6933 61.3981 91.9079 61.1758 93.9599 60.7392C96.205 60.2619 98.1035 59.5529 99.5399 58.6671V59.207C99.5399 59.7078 99.0033 60.2274 98.6841 60.4919C97.5806 61.4074 95.6836 62.1853 93.3443 62.6829C91.5203 63.071 89.4577 63.2761 87.3798 63.2761C85.302 63.2761 83.2393 63.071 81.4153 62.6829C79.076 62.1853 77.179 61.4074 76.0755 60.4919C75.7563 60.2274 75.2197 59.7078 75.2197 59.207V58.6671C76.6561 59.5529 78.5546 60.2619 80.7997 60.7392ZM80.7997 65.7472C82.8517 66.1838 85.0664 66.4061 87.3798 66.4061C89.6933 66.4061 91.9079 66.1838 93.9599 65.7472C96.205 65.2699 98.1035 64.5609 99.5399 63.6751V64.2151C99.5399 64.7159 99.0033 65.2355 98.6841 65.4999C97.5806 66.4155 95.6836 67.1933 93.3443 67.6909C91.5203 68.0791 89.4577 68.2841 87.3798 68.2841C85.302 68.2841 83.2393 68.0791 81.4153 67.6909C79.076 67.1933 77.179 66.4155 76.0755 65.4999C75.7563 65.2355 75.2197 64.7159 75.2197 64.2151V63.6751C76.6561 64.5609 78.5546 65.2699 80.7997 65.7472ZM93.3443 72.699C91.5203 73.0871 89.4577 73.2921 87.3798 73.2921C85.302 73.2921 83.2393 73.0871 81.4153 72.699C79.076 72.2013 77.179 71.4235 76.0755 70.508C75.7563 70.2435 75.2197 69.7239 75.2197 69.2231V68.6832C76.6561 69.569 78.5546 70.2779 80.7997 70.7552C82.8517 71.1919 85.0664 71.4141 87.3798 71.4141C89.6933 71.4141 91.9079 71.1919 93.9599 70.7552C96.205 70.2779 98.1035 69.569 99.5399 68.6832V69.2231C99.5399 69.7239 99.0033 70.2435 98.6841 70.508C97.5806 71.4235 95.6836 72.2013 93.3443 72.699ZM75.2197 73.6912C76.6561 74.577 78.5546 75.2859 80.7997 75.7632C82.8517 76.1999 85.0664 76.4221 87.3798 76.4221C89.6933 76.4221 91.9079 76.1999 93.9599 75.7632C96.205 75.2859 98.1035 74.577 99.5399 73.6912V74.2311C99.5399 74.8649 98.596 75.8931 96.4892 76.7617C94.08 77.7539 90.8454 78.3001 87.3798 78.3001C83.9142 78.3001 80.6796 77.7539 78.2704 76.7617C76.1621 75.8931 75.2197 74.8649 75.2197 74.2311V73.6912ZM78.2704 51.6684C80.6796 50.6762 83.9142 50.13 87.3798 50.13C90.8454 50.13 94.08 50.6762 96.4892 51.6684C98.5975 52.537 99.5399 53.5652 99.5399 54.199C99.5399 54.6998 99.0033 55.2194 98.6841 55.4839C97.5806 56.3994 95.6836 57.1772 93.3443 57.6749C91.5203 58.063 89.4577 58.268 87.3798 58.268C85.302 58.268 83.2393 58.063 81.4153 57.6749C79.076 57.1772 77.179 56.3994 76.0755 55.4839C75.7563 55.2194 75.2197 54.6998 75.2197 54.199C75.2197 53.5652 76.1636 52.537 78.2704 51.6684Z" fill="#EC661A"/>
</g>
<g clip-path="url(#clip1_1055_3452)">
<path d="M83.4081 1.32178V83.8872C83.1534 88.7841 79.1028 92.6786 74.1484 92.6786H19.7812V1.32178H83.4081Z" fill="white" stroke="#666666" stroke-width="2" stroke-linecap="round" stroke-linejoin="round"/>
<path d="M1.24219 76.9609V83.4189C1.24219 88.5295 5.39141 92.6869 10.5102 92.6869H74.1535C69.0265 92.6869 64.8855 88.5377 64.8855 83.4189V76.9609H1.24219Z" fill="white" stroke="#666666" stroke-width="2" stroke-linecap="round" stroke-linejoin="round"/>
<line x1="26.375" y1="39.145" x2="76.2889" y2="39.145" stroke="#666666" stroke-width="1.5"/>
<line x1="26.375" y1="45.8208" x2="61.2958" y2="45.8208" stroke="#666666" stroke-width="1.5"/>
<line x1="26.375" y1="52.4966" x2="68.7262" y2="52.4966" stroke="#666666" stroke-width="1.5"/>
<circle cx="51.6732" cy="20.5838" r="11.095" fill="#EC661A"/>
<ellipse cx="51.672" cy="17.193" rx="3.39075" ry="3.39075" fill="white"/>
<rect x="44.25" y="21.916" width="14.8449" height="14.0704" rx="7.03519" fill="white"/>
</g>
<defs>
<clipPath id="clip0_1055_3452">
<rect width="30.4002" height="39.4382" fill="white" transform="translate(72.1797 47)"/>
</clipPath>
<clipPath id="clip1_1055_3452">
<rect width="83.8061" height="93.0001" fill="white" transform="translate(0.421875 0.5)"/>
</clipPath>
</defs>
</svg>
