<svg width="157" height="76" viewBox="0 0 157 76" fill="none" xmlns="http://www.w3.org/2000/svg">
<g clip-path="url(#clip0_1055_3399)">
<path d="M73.0065 51.7593H94.3227C94.7872 49.983 95.6507 46.1843 95.3883 45.2005C95.0604 43.9707 94.3227 39.7075 83.3365 37.4939C72.3503 35.2803 27.2587 37.0839 16.8466 38.6417C8.51686 39.8878 8.67537 48.1793 9.79583 52.1692H27.7506L73.0065 51.7593Z" fill="white"/>
<ellipse cx="84.0338" cy="49.5787" rx="6.11579" ry="6.11579" fill="white"/>
<ellipse cx="22.3814" cy="49.5787" rx="6.11579" ry="6.11579" fill="white"/>
<path d="M16.0044 36.8986C16.1356 33.3568 24.612 35.0403 9.41742 34.603L1.46484 39.9321C2.2847 44.1953 1.65246 49.2036 11.1391 43.8674C13.7626 42.3916 15.8405 41.3258 16.0044 36.8986Z" fill="white"/>
<path d="M13.961 49.6201C13.9835 54.3114 17.7715 58.0949 22.4209 58.0723C27.0703 58.0497 30.8199 54.2274 30.7975 49.5377C30.7751 44.8464 26.987 41.0613 22.3376 41.0856C17.6882 41.1082 13.9386 44.9304 13.961 49.6217V49.6201ZM17.7123 49.6023C17.6994 47.0014 19.7776 44.8835 22.3552 44.8706C24.9313 44.8577 27.0319 46.9562 27.0447 49.5555C27.0575 52.1564 24.9777 54.2743 22.4017 54.2872C19.824 54.3001 17.7251 52.2033 17.7123 49.6023Z" fill="#BFBFBF"/>
<path d="M75.797 49.3131C75.8194 54.0045 79.6074 57.7879 84.2568 57.7653C88.9046 57.7427 92.6558 53.9205 92.6334 49.2291C92.611 44.5378 88.823 40.7543 84.1736 40.777C79.5242 40.7996 75.7746 44.6218 75.797 49.3131ZM79.5482 49.2954C79.5354 46.6944 81.6135 44.5766 84.1912 44.5636C86.7688 44.5507 88.8678 46.6492 88.879 49.2485C88.8918 51.8478 86.8137 53.9673 84.236 53.9786C81.6583 53.9915 79.5594 51.8946 79.5466 49.2937L79.5482 49.2954Z" fill="#BFBFBF"/>
<path d="M88.1222 28.3931C88.2534 24.8514 69.4569 21.1238 54.2623 20.6865L34.3398 29.7869C41.7732 32.629 45.3587 39.4776 55.984 41.8387C69.2656 44.7902 87.9582 32.8203 88.1222 28.3931Z" fill="white"/>
<path d="M0.56258 42.7621L0.593 48.7958C0.597803 49.9218 1.48637 51.0672 2.56707 51.3451L4.54114 51.8507C5.62184 52.127 7.41819 52.3499 8.53251 52.3434L13.0586 52.3208C12.8105 51.4646 12.676 50.5616 12.6712 49.6278C12.644 44.2273 16.9779 39.8106 22.3318 39.7847C27.684 39.7573 32.0613 44.1304 32.0869 49.5325C32.0917 50.4662 31.9652 51.3725 31.7266 52.2304L74.8952 52.0155C74.6471 51.1593 74.5126 50.2562 74.5078 49.3209C74.4822 43.9203 78.8145 39.5036 84.1684 39.4762C89.5206 39.4503 93.8963 43.8218 93.9235 49.224C93.9283 50.1432 93.8066 51.0317 93.5744 51.8766C94.5255 51.8152 95.5773 51.7053 96.3138 51.5809L104.007 50.1496C105.091 49.9089 106.256 48.9283 106.564 47.846C106.564 47.846 107.503 45.0092 107.47 38.1386L107.459 35.8979C107.447 33.5425 106.336 30.1404 102.937 29.4118L98.8034 28.8108C97.6923 28.73 93.9043 28.1323 92.918 27.6089C87.8556 24.9224 83.1053 22.916 78.6256 21.5331C73.949 20.0889 67.8251 19.6285 63.0684 19.4346C55.8718 19.1422 51.4737 19.8902 45.6076 22.0711C39.8615 24.2083 35.1592 26.9207 31.344 28.9514C26.5553 31.4974 0.509746 31.7817 0.56258 42.7621ZM102.451 33.3341L105.344 33.3196C105.726 33.318 106.103 33.6346 106.183 34.0159L106.416 34.9189C106.404 34.9189 106.391 34.9157 106.376 34.9157L104.269 34.927C104.052 34.927 103.932 35.0982 104.007 35.305L104.469 36.6119C104.543 36.8203 104.782 36.9883 104.999 36.9867L106.508 36.9787C106.508 36.9787 106.519 36.977 106.525 36.977L106.602 38.4407C106.621 38.8251 106.327 39.1418 105.944 39.1434L105.047 39.1482C104.665 39.1482 104.225 38.8639 104.068 38.5134L102.044 33.9755C101.887 33.6233 102.071 33.3341 102.454 33.3325L102.451 33.3341ZM38.5278 29.7979L38.531 29.7946C38.4013 28.9659 43.5711 25.8933 47.8554 24.3408C52.0597 22.8158 56.8852 22.105 62.6665 22.0759C66.5474 22.2423 72.1559 22.651 76.2913 23.8949C78.608 24.5928 82.1815 26.0257 82.1815 26.0257C82.9036 26.3149 83.1117 27.0548 82.6458 27.6687L81.2817 29.4667C80.8158 30.0822 79.796 30.5878 79.0163 30.5911L39.9447 30.7849C39.165 30.7882 38.5278 30.3439 38.5278 29.7963V29.7979ZM2.9161 39.5246C5.64105 36.1467 12.0019 35.0886 12.2181 35.0692C12.2261 35.0692 12.2325 35.0692 12.2389 35.0692C12.335 35.0676 12.4262 35.1112 12.4791 35.1887C12.5367 35.2711 12.5399 35.3761 12.4903 35.4633L9.53155 38.9528C9.48833 39.0255 9.41308 39.0755 9.32662 39.0869L3.18027 39.9495C3.16746 39.9495 3.15785 39.9511 3.14504 39.9527C3.04418 39.9544 2.94972 39.9043 2.89688 39.8219C2.83925 39.7282 2.84725 39.6103 2.9177 39.5246H2.9161Z" fill="#BFBFBF"/>
</g>
<g clip-path="url(#clip1_1055_3399)">
<path d="M88.7096 60.2857H110.026C110.49 58.5093 111.354 54.7107 111.091 53.7268C110.763 52.4971 110.026 48.2338 99.0396 46.0202C88.0534 43.8066 42.9618 45.6103 32.5497 47.168C24.22 48.4142 24.3785 56.7056 25.499 60.6956H43.4537L88.7096 60.2857Z" fill="white"/>
<ellipse cx="99.7369" cy="58.105" rx="6.11579" ry="6.11579" fill="white"/>
<ellipse cx="38.0845" cy="58.105" rx="6.11579" ry="6.11579" fill="white"/>
<path d="M31.7075 45.425C31.8387 41.8832 40.3152 43.5666 25.1205 43.1294L17.168 48.4584C17.9878 52.7217 17.3556 57.73 26.8422 52.3937C29.4658 50.918 31.5436 49.8522 31.7075 45.425Z" fill="white"/>
<path d="M29.6642 58.1465C29.6866 62.8378 33.4746 66.6213 38.124 66.5986C42.7734 66.576 46.523 62.7538 46.5006 58.0641C46.4782 53.3728 42.6901 49.5877 38.0408 49.6119C33.3914 49.6345 29.6417 53.4568 29.6642 58.1481V58.1465ZM33.4154 58.1287C33.4026 55.5278 35.4807 53.4099 38.0584 53.397C40.6344 53.3841 42.735 55.4826 42.7478 58.0819C42.7606 60.6828 40.6809 62.8007 38.1048 62.8136C35.5271 62.8265 33.4282 60.7296 33.4154 58.1287Z" fill="#BFBFBF"/>
<path d="M91.5001 57.8395C91.5225 62.5308 95.3106 66.3143 99.9599 66.2916C104.608 66.269 108.359 62.4468 108.337 57.7555C108.314 53.0641 104.526 49.2807 99.8767 49.3033C95.2273 49.3259 91.4777 53.1482 91.5001 57.8395ZM95.2513 57.8217C95.2385 55.2208 97.3166 53.1029 99.8943 53.09C102.472 53.0771 104.571 55.1756 104.582 57.7749C104.595 60.3742 102.517 62.4937 99.9391 62.505C97.3615 62.5179 95.2625 60.421 95.2497 57.8201L95.2513 57.8217Z" fill="#BFBFBF"/>
<path d="M103.825 36.9195C103.956 33.3777 85.16 29.6501 69.9654 29.2129L50.043 38.3133C57.4763 41.1554 61.0618 48.0039 71.6871 50.3651C84.9687 53.3166 103.661 41.3467 103.825 36.9195Z" fill="white"/>
<path d="M16.2657 51.2884L16.2961 57.3222C16.3009 58.4482 17.1895 59.5936 18.2702 59.8714L20.2443 60.3771C21.325 60.6533 23.1213 60.8763 24.2356 60.8698L28.7617 60.8472C28.5136 59.991 28.3791 59.0879 28.3743 58.1542C28.3471 52.7537 32.6811 48.337 38.0349 48.3111C43.3872 48.2836 47.7644 52.6567 47.79 58.0589C47.7948 58.9926 47.6683 59.8989 47.4298 60.7567L90.5984 60.5419C90.3502 59.6857 90.2157 58.7826 90.2109 57.8472C90.1853 52.4467 94.5177 48.03 99.8715 48.0025C105.224 47.9767 109.599 52.3482 109.627 57.7503C109.631 58.6695 109.51 59.558 109.278 60.4029C110.229 60.3415 111.28 60.2317 112.017 60.1073L119.71 58.676C120.794 58.4353 121.959 57.4547 122.267 56.3723C122.267 56.3723 123.207 53.5355 123.173 46.6649L123.162 44.4243C123.15 42.0689 122.039 38.6667 118.64 37.9381L114.507 37.3372C113.395 37.2564 109.607 36.6587 108.621 36.1353C103.559 33.4487 98.8084 31.4423 94.3288 30.0595C89.6521 28.6152 83.5282 28.1548 78.7715 27.961C71.5749 27.6686 67.1769 28.4165 61.3107 30.5974C55.5646 32.7347 50.8624 35.4471 47.0471 37.4777C42.2584 40.0237 16.2129 40.308 16.2657 51.2884ZM118.154 41.8605L121.047 41.846C121.429 41.8444 121.806 42.161 121.886 42.5422L122.119 43.4453C122.107 43.4453 122.094 43.4421 122.079 43.4421L119.972 43.4534C119.755 43.4534 119.635 43.6246 119.71 43.8314L120.173 45.1383C120.246 45.3467 120.485 45.5147 120.703 45.5131L122.211 45.505C122.211 45.505 122.222 45.5034 122.228 45.5034L122.305 46.967C122.324 47.3515 122.03 47.6681 121.647 47.6698L120.751 47.6746C120.368 47.6746 119.928 47.3903 119.771 47.0397L117.747 42.5019C117.59 42.1497 117.774 41.8605 118.157 41.8589L118.154 41.8605ZM54.2309 38.3242L54.2341 38.321C54.1045 37.4923 59.2742 34.4196 63.5585 32.8672C67.7629 31.3422 72.5884 30.6314 78.3697 30.6023C82.2506 30.7687 87.859 31.1774 91.9944 32.4213C94.3111 33.1192 97.8846 34.5521 97.8846 34.5521C98.6067 34.8413 98.8148 35.5812 98.3489 36.195L96.9849 37.9931C96.519 38.6086 95.4991 39.1142 94.7194 39.1174L55.6479 39.3113C54.8682 39.3145 54.2309 38.8703 54.2309 38.3226V38.3242ZM18.6192 48.051C21.3442 44.6731 27.7051 43.6149 27.9212 43.5955C27.9292 43.5955 27.9356 43.5955 27.942 43.5955C28.0381 43.5939 28.1293 43.6375 28.1822 43.7151C28.2398 43.7975 28.243 43.9025 28.1934 43.9897L25.2347 47.4791C25.1915 47.5518 25.1162 47.6019 25.0297 47.6132L18.8834 48.4759C18.8706 48.4759 18.861 48.4775 18.8482 48.4791C18.7473 48.4807 18.6528 48.4306 18.6 48.3483C18.5424 48.2546 18.5504 48.1366 18.6208 48.051H18.6192Z" fill="#BFBFBF"/>
</g>
<g clip-path="url(#clip2_1055_3399)">
<path d="M100.94 68.812H122.256C122.721 67.0357 123.584 63.237 123.322 62.2532C122.994 61.0234 122.256 56.7602 111.27 54.5466C100.284 52.333 55.1923 54.1367 44.7802 55.6944C36.4505 56.9406 36.609 65.232 37.7294 69.222H55.6842L100.94 68.812Z" fill="white"/>
<ellipse cx="111.967" cy="66.6314" rx="6.11579" ry="6.11579" fill="white"/>
<ellipse cx="50.315" cy="66.6314" rx="6.11579" ry="6.11579" fill="white"/>
<path d="M43.938 53.9513C44.0692 50.4096 52.5456 52.093 37.351 51.6558L29.3984 56.9848C30.2183 61.248 29.5861 66.2563 39.0727 60.9201C41.6962 59.4444 43.774 58.3785 43.938 53.9513Z" fill="white"/>
<path d="M41.8946 66.6728C41.917 71.3642 45.7051 75.1476 50.3545 75.125C55.0039 75.1024 58.7535 71.2802 58.7311 66.5905C58.7087 61.8991 54.9206 58.1141 50.2712 58.1383C45.6218 58.1609 41.8722 61.9831 41.8946 66.6745V66.6728ZM45.6458 66.6551C45.633 64.0542 47.7112 61.9363 50.2888 61.9234C52.8649 61.9104 54.9654 64.0089 54.9783 66.6082C54.9911 69.2091 52.9113 71.327 50.3353 71.34C47.7576 71.3529 45.6587 69.256 45.6458 66.6551Z" fill="#BFBFBF"/>
<path d="M103.731 66.3659C103.753 71.0572 107.541 74.8406 112.19 74.818C116.838 74.7954 120.589 70.9732 120.567 66.2819C120.545 61.5905 116.757 57.8071 112.107 57.8297C107.458 57.8523 103.708 61.6745 103.731 66.3659ZM107.482 66.3481C107.469 63.7472 109.547 61.6293 112.125 61.6164C114.702 61.6034 116.801 63.7019 116.813 66.3012C116.825 68.9005 114.747 71.02 112.17 71.0313C109.592 71.0443 107.493 68.9474 107.48 66.3465L107.482 66.3481Z" fill="#BFBFBF"/>
<path d="M116.056 45.4459C116.187 41.9041 97.3905 38.1765 82.1959 37.7393L62.2734 46.8396C69.7068 49.6818 73.2923 56.5303 83.9176 58.8915C97.1992 61.8429 115.892 49.8731 116.056 45.4459Z" fill="white"/>
<path d="M28.4962 59.8148L28.5266 65.8486C28.5314 66.9746 29.42 68.1199 30.5007 68.3978L32.4747 68.9034C33.5554 69.1797 35.3518 69.4026 36.4661 69.3962L40.9922 69.3736C40.7441 68.5173 40.6096 67.6143 40.6048 66.6806C40.5775 61.28 44.9115 56.8633 50.2654 56.8375C55.6176 56.81 59.9948 61.1831 60.0205 66.5852C60.0253 67.519 59.8988 68.4253 59.6602 69.2831L102.829 69.0682C102.581 68.212 102.446 67.309 102.441 66.3736C102.416 60.9731 106.748 56.5564 112.102 56.5289C117.454 56.5031 121.83 60.8745 121.857 66.2767C121.862 67.1959 121.74 68.0844 121.508 68.9293C122.459 68.8679 123.511 68.7581 124.247 68.6337L131.94 67.2024C133.024 66.9616 134.19 65.9811 134.497 64.8987C134.497 64.8987 135.437 62.0619 135.403 55.1913L135.392 52.9506C135.381 50.5953 134.27 47.1931 130.871 46.4645L126.737 45.8636C125.626 45.7828 121.838 45.1851 120.852 44.6616C115.789 41.9751 111.039 39.9687 106.559 38.5858C101.883 37.1416 95.7587 36.6812 91.002 36.4873C83.8054 36.1949 79.4073 36.9429 73.5412 39.1238C67.7951 41.2611 63.0928 43.9735 59.2776 46.0041C54.4889 48.5501 28.4433 48.8344 28.4962 59.8148ZM130.384 50.3869L133.277 50.3723C133.66 50.3707 134.036 50.6874 134.116 51.0686L134.35 51.9717C134.337 51.9717 134.324 51.9684 134.31 51.9684L132.203 51.9797C131.985 51.9797 131.865 52.151 131.94 52.3578L132.403 53.6647C132.477 53.8731 132.715 54.0411 132.933 54.0395L134.441 54.0314C134.441 54.0314 134.452 54.0298 134.459 54.0298L134.536 55.4934C134.555 55.8779 134.26 56.1945 133.878 56.1961L132.981 56.201C132.598 56.201 132.158 55.9167 132.001 55.5661L129.977 51.0282C129.821 50.6761 130.005 50.3869 130.387 50.3853L130.384 50.3869ZM66.4614 46.8506L66.4646 46.8474C66.3349 46.0186 71.5047 42.946 75.789 41.3935C79.9933 39.8685 84.8188 39.1577 90.6001 39.1286C94.481 39.295 100.089 39.7038 104.225 40.9477C106.542 41.6456 110.115 43.0785 110.115 43.0785C110.837 43.3676 111.045 44.1075 110.579 44.7214L109.215 46.5194C108.749 47.1349 107.73 47.6406 106.95 47.6438L67.8783 47.8377C67.0986 47.8409 66.4614 47.3966 66.4614 46.849V46.8506ZM30.8497 56.5774C33.5746 53.1994 39.9355 52.1413 40.1517 52.1219C40.1597 52.1219 40.1661 52.1219 40.1725 52.1219C40.2686 52.1203 40.3598 52.1639 40.4126 52.2414C40.4703 52.3238 40.4735 52.4288 40.4239 52.5161L37.4651 56.0055C37.4219 56.0782 37.3467 56.1283 37.2602 56.1396L31.1139 57.0022C31.1011 57.0022 31.0914 57.0039 31.0786 57.0055C30.9778 57.0071 30.8833 56.957 30.8305 56.8746C30.7728 56.7809 30.7808 56.663 30.8513 56.5774H30.8497Z" fill="#BFBFBF"/>
</g>
<rect x="101.688" y="1.625" width="45.25" height="61.7662" rx="1.25" fill="white" stroke="#666666" stroke-width="1.5"/>
<circle cx="124.312" cy="16.75" r="9.5625" fill="#EC661A"/>
<path d="M121.649 20.5385L120.738 17.1686H119.65V16.3313H120.508L119.598 12.9614H120.55L121.403 16.3313H122.905L123.784 12.9614H124.83L125.71 16.3313H127.211L128.064 12.9614H129.027L128.111 16.3313H128.975V17.1686H127.881L126.965 20.5385H125.992L125.066 17.1686H123.554L122.633 20.5385H121.649ZM121.617 17.1686L122.109 19.1047H122.183L122.685 17.1686H121.617ZM123.784 16.3313H124.836L124.339 14.5313H124.276L123.784 16.3313ZM125.929 17.1686L126.432 19.1047H126.505L126.997 17.1686H125.929Z" fill="white"/>
<line x1="106.141" y1="33.2573" x2="139.859" y2="33.2573" stroke="#666666" stroke-width="1.5"/>
<line x1="106.141" y1="38.2573" x2="129.73" y2="38.2573" stroke="#666666" stroke-width="1.5"/>
<path fill-rule="evenodd" clip-rule="evenodd" d="M150.585 37.4805H137.879V56.3833H132.027L144.232 69.8725L156.437 56.3833H150.585V37.4805Z" fill="#EC661A"/>
<defs>
<clipPath id="clip0_1055_3399">
<rect width="106.909" height="38.6971" fill="white" transform="translate(0.5625 19.375)"/>
</clipPath>
<clipPath id="clip1_1055_3399">
<rect width="106.909" height="38.6971" fill="white" transform="translate(16.2656 27.9014)"/>
</clipPath>
<clipPath id="clip2_1055_3399">
<rect width="106.909" height="38.6971" fill="white" transform="translate(28.4961 36.4277)"/>
</clipPath>
</defs>
</svg>
