<svg width="362" height="350" viewBox="0 0 362 350" fill="none" xmlns="http://www.w3.org/2000/svg">
<circle opacity="0.4" cx="181.868" cy="186.29" r="143.669" stroke="#EC661A"/>
<ellipse cx="181.869" cy="52.1092" rx="52.1092" ry="52.1092" fill="#F4BFA1"/>
<circle cx="181.868" cy="52.1092" r="46.8983" fill="#F97C36"/>
<path d="M189.194 41.7963C191.175 41.7827 192.899 42.5155 194.052 43.7504H199.915V40.4121H202.927V54.8507H199.915V51.7296H194.039C192.872 52.9373 191.162 53.6701 189.194 53.6565C185.49 53.6701 182.708 51.1868 182.708 47.74C182.708 44.266 185.49 41.7827 189.194 41.7963ZM185.585 47.74C185.585 49.7483 187.091 51.1053 189.194 51.1053C191.23 51.1053 192.736 49.7483 192.75 47.74C192.736 45.6637 191.23 44.3746 189.194 44.3746C187.091 44.3746 185.585 45.6637 185.585 47.74ZM186.29 60.143C186.263 57.1169 189.479 55.3528 194.622 55.3664C199.779 55.3528 202.995 57.1169 203.009 60.143C202.995 63.1556 199.779 64.9197 194.622 64.9197C189.479 64.9197 186.263 63.1556 186.29 60.143ZM189.248 60.143C189.221 61.7036 191.216 62.5449 194.622 62.5585C198.096 62.5449 200.05 61.7036 200.05 60.143C200.05 58.5418 198.096 57.6868 194.622 57.6733C191.216 57.6868 189.221 58.5418 189.248 60.143ZM195.409 46.1658C195.545 46.6679 195.626 47.1836 195.626 47.74C195.626 48.2828 195.545 48.7984 195.423 49.287H199.915V46.1658H195.409Z" fill="white"/>
<path d="M178.908 40.4395V54.7695H175.896V52.0555H170.061V49.6128H175.896V46.9802H170.291C168.744 50.8749 165.162 53.6025 159.829 55.0952L158.607 52.7068C164.348 51.1598 167.414 48.2423 167.876 44.5919H159.91V42.1493H171.173C171.173 43.0042 171.106 43.8184 170.97 44.5919H175.896V40.4395H178.908ZM162.461 59.9261C162.461 56.9136 165.759 55.0545 170.793 55.0409C175.76 55.0545 179.071 56.9136 179.071 59.9261C179.071 62.9387 175.76 64.8249 170.793 64.8114C165.759 64.8249 162.461 62.9387 162.461 59.9261ZM165.474 59.9261C165.474 61.541 167.496 62.423 170.793 62.423C174.037 62.423 176.045 61.541 176.059 59.9261C176.045 58.2841 174.037 57.4021 170.793 57.4021C167.496 57.4021 165.474 58.2841 165.474 59.9261Z" fill="white"/>
<ellipse cx="309.102" cy="151.986" rx="52.1092" ry="52.1092" fill="#F4BFA1"/>
<circle cx="309.102" cy="151.985" r="46.8983" fill="#F97C36"/>
<path d="M332.008 154.183V156.626H322.237V164.795H319.252V156.626H309.59V154.183H332.008ZM312.331 151.307V141.536H329.267V151.307H312.331ZM315.289 148.945H326.254V143.952H315.289V148.945Z" fill="white"/>
<path d="M293.252 146.72C293.266 150.683 294.623 154.808 297.947 156.898L296.292 159.205C294.08 157.875 292.641 155.595 291.827 152.922C290.945 155.867 289.371 158.363 287.064 159.775L285.191 157.522C288.76 155.364 290.334 151.036 290.348 146.856V142.459H293.252V146.72ZM295.315 151.226V148.729H298.816V140.722H301.665V163.629H298.816V151.226H295.315ZM303.864 164.823V140.288H306.768V164.823H303.864Z" fill="white"/>
<ellipse cx="272.191" cy="297.891" rx="52.1092" ry="52.1092" fill="#F4BFA1"/>
<circle cx="272.19" cy="297.891" r="46.8983" fill="#F97C36"/>
<path d="M292.383 287.388V289.288C292.396 291.201 292.396 293.372 291.785 296.263H295.124V298.705H272.706V296.263H288.732C289.316 293.603 289.37 291.594 289.37 289.803H275.474V287.388H292.383ZM275.393 310.43V301.555H292.355V310.43H275.393ZM278.351 307.987H289.37V303.916H278.351V307.987Z" fill="white"/>
<path d="M257.481 293.168C257.467 296.954 259.747 301.27 263.614 303.075L261.932 305.463C259.163 304.16 257.114 301.528 256.015 298.461C254.902 301.826 252.758 304.703 249.936 306.06L248.172 303.699C252.08 301.84 254.454 297.253 254.468 293.168V291.106H249.121V288.609H262.61V291.106H257.481V293.168ZM264.89 310.728V286.193H267.902V295.747H271.675V298.271H267.902V310.728H264.89Z" fill="white"/>
<ellipse cx="93.283" cy="297.891" rx="52.1092" ry="52.1092" fill="#F4BFA1"/>
<circle cx="93.2827" cy="297.891" r="46.8983" fill="#F97C36"/>
<path d="M102.593 293.168C102.579 296.954 104.859 301.269 108.726 303.074L107.044 305.462C104.275 304.16 102.226 301.527 101.127 298.46C100.014 301.826 97.8704 304.702 95.0478 306.059L93.2837 303.698C97.1919 301.839 99.5666 297.253 99.5802 293.168V291.105H94.2336V288.608H107.722V291.105H102.593V293.168ZM110.002 310.728V286.193H113.015V295.746H116.787V298.27H113.015V310.728H110.002Z" fill="white"/>
<path d="M92.1707 300.821V303.291H82.4273V310.727H79.4419V303.291H69.7529V300.821H92.1707ZM72.6297 298.786V287.251H89.4838V289.639H75.6152V291.811H88.941V294.145H75.6152V296.397H89.7552V298.786H72.6297Z" fill="white"/>
<ellipse cx="52.898" cy="151.986" rx="52.1092" ry="52.1092" fill="#F4BFA1"/>
<circle cx="52.8977" cy="151.985" r="46.8983" fill="#F97C36"/>
<path d="M73.9582 140.288V155.134H70.9456V150.059H67.4446V147.562H70.9456V140.288H73.9582ZM53.4673 145.011V142.568H59.1668V140.098H62.1522V142.568H67.8517V145.011H53.4673ZM54.8515 150.357C54.8379 147.779 57.267 145.96 60.6595 145.96C64.0792 145.96 66.4811 147.779 66.4946 150.357C66.4811 153.003 64.0792 154.754 60.6595 154.754C57.267 154.754 54.8379 153.003 54.8515 150.357ZM57.6469 164.524V156.247H73.9582V164.524H57.6469ZM57.7284 150.357C57.7284 151.714 58.8954 152.501 60.6595 152.501C62.41 152.501 63.5906 151.714 63.5906 150.357C63.5906 149.041 62.41 148.24 60.6595 148.24C58.8954 148.24 57.7284 149.041 57.7284 150.357ZM60.6595 162.082H70.9999V158.635H60.6595V162.082Z" fill="white"/>
<path d="M51.8114 159.394V161.864H29.3936V159.394H39.0555V154.618H31.8633V141.916H34.8759V145.933H46.2476V141.916H49.2602V154.618H42.0409V159.394H51.8114ZM34.8759 152.175H46.2476V148.348H34.8759V152.175Z" fill="white"/>
</svg>
