<svg width="206" height="214" viewBox="0 0 206 214" fill="none" xmlns="http://www.w3.org/2000/svg">
<path d="M68.2269 184.067C69.5145 181.822 70.8202 179.64 72.0284 177.549C92.3541 179.797 112.346 181.301 132.77 182.309C133.42 182.342 134.269 184.645 135.16 187.948C115.223 201.253 85.2109 201.113 68.2261 184.067H68.2269Z" fill="#161D2E"/>
<path d="M140.694 214H58.9279C59.4141 210.015 59.9343 206.033 60.4941 202.057C61.4054 195.579 64.7488 189.05 68.227 182.985C82.238 197.047 105.117 199.604 123.89 192.598C124.221 192.474 124.551 192.347 124.881 192.217C125.375 192.022 125.866 191.821 126.354 191.612C126.679 191.474 127.003 191.332 127.324 191.187C127.324 191.187 127.324 191.187 127.325 191.187C127.647 191.042 127.966 190.895 128.285 190.744C128.444 190.67 128.603 190.593 128.763 190.516C129.238 190.286 129.71 190.049 130.178 189.806H130.179C131.116 189.319 132.036 188.806 132.939 188.267C133.09 188.176 133.24 188.087 133.39 187.996C133.988 187.63 134.578 187.253 135.159 186.865C137.311 194.84 139.701 208.683 140.114 210.775C140.324 211.849 140.518 212.923 140.693 213.999L140.694 214Z" fill="#E06340"/>
<path d="M148.693 132.099C150.825 134.429 153.065 136.67 155.442 138.833C158.088 141.241 161.146 143.267 164.559 144.398C167.11 145.245 172.061 146.537 174.096 144.295C179.287 138.568 183.294 131.477 184.786 123.845C186.462 115.276 189.87 106.751 193.562 98.8538C194.829 97.9757 196.487 98.003 198.028 97.9517C198.238 97.9459 198.463 97.936 198.696 97.9177C199.228 97.8796 199.801 97.8084 200.338 97.6568C201.056 97.4596 201.71 97.1192 202.132 96.541C202.559 95.9553 202.678 95.0648 203.156 94.5628C203.692 93.9971 204.329 93.8637 204.647 93.0428C204.829 92.5689 204.866 92.0429 204.758 91.5467C204.661 91.1003 204.213 90.7184 204.635 90.3895C205.279 89.8859 205.776 89.2662 205.943 88.4437C206.124 87.5474 205.851 86.7704 205.408 86.0074C205.118 85.5038 205.05 85.5535 205.38 85.0416C205.577 84.7326 205.822 84.5213 205.897 84.1411C206.028 83.49 205.825 82.795 205.426 82.2632C204.762 81.3827 203.497 80.8235 202.526 80.3571C201.347 79.7914 200.132 79.2993 198.892 78.881C196.482 78.0684 193.966 77.5208 191.425 77.3535C191.006 75.3016 191.437 73.1843 191.854 71.1333C192.274 69.0839 192.681 66.9566 192.22 64.9147C191.758 62.8728 190.712 60.2104 188.633 60.0107C187.885 65.9162 185.626 70.8524 183.512 76.3114C181.665 81.0878 181.106 90.3638 184.077 94.5222C181.456 102.25 178.915 105.858 173.767 112.229C170.92 115.751 167.655 119.129 166.22 123.427C163.792 120.019 161.018 116.978 158.115 114.034C157.944 120.975 154.285 128.142 148.692 132.097L148.693 132.099Z" fill="#FFB8A6"/>
<path d="M152.069 108.076C154.104 110.069 156.139 112.029 158.117 114.035C157.945 120.976 154.288 128.142 148.693 132.098C145.632 128.751 142.805 125.211 140.195 121.395C142.872 116.122 147.181 111.397 152.069 108.076Z" fill="#F09A84"/>
<path d="M204.442 85.6758C204.612 85.6758 204.762 85.554 204.792 85.38C204.826 85.1862 204.696 85.0015 204.504 84.9683C201.253 84.4034 198.11 83.3638 195.161 81.8793C194.306 81.4494 193.468 80.9433 193.126 80.1597C192.946 79.7505 192.986 79.207 193.224 78.8078C193.339 78.6148 193.548 78.3787 193.886 78.3513C194.082 78.3356 194.228 78.1633 194.212 77.967C194.197 77.7715 194.02 77.6265 193.829 77.6406C193.329 77.6812 192.897 77.9661 192.613 78.4424C192.257 79.0397 192.202 79.8258 192.473 80.4463C192.906 81.437 193.867 82.0268 194.84 82.5172C197.852 84.0331 201.061 85.0943 204.38 85.6716C204.401 85.6749 204.422 85.6766 204.442 85.6766V85.6758Z" fill="#D17C67"/>
<path d="M191.281 93.7897C191.713 94.7813 192.676 95.3711 193.647 95.8614C195.278 96.6824 196.964 97.3691 198.696 97.9166C199.229 97.8785 199.802 97.8073 200.338 97.6557C198.139 97.0642 196.008 96.2516 193.967 95.2236C193.112 94.7937 192.275 94.2876 191.931 93.5047C191.753 93.0947 191.793 92.5505 192.031 92.152C192.146 91.959 192.355 91.7221 192.693 91.6956C192.89 91.6798 193.035 91.5067 193.019 91.3112C193.005 91.1141 192.828 90.9708 192.637 90.9848C192.136 91.0246 191.704 91.3096 191.42 91.7859C191.064 92.3831 191.008 93.1701 191.281 93.7897H191.281Z" fill="#D17C67"/>
<path d="M204.056 90.8139C204.214 90.8139 204.358 90.7087 204.4 90.5488C204.45 90.3583 204.337 90.1636 204.147 90.1131C201.385 89.3792 198.529 88.6204 195.854 87.5079C194.97 87.1409 194.058 86.711 193.363 86.0549C192.632 85.3649 192.236 84.4686 192.305 83.6576C192.381 82.7779 193.098 82.0034 193.874 81.9669C194.07 81.9578 194.222 81.7905 194.212 81.5941C194.203 81.3978 194.021 81.2429 193.841 81.2545C192.709 81.3075 191.702 82.3579 191.596 83.5963C191.51 84.6227 191.987 85.7352 192.875 86.5726C193.653 87.3074 194.635 87.7721 195.581 88.1656C198.299 89.2963 201.179 90.0617 203.964 90.8015C203.995 90.8098 204.026 90.8131 204.055 90.8131L204.056 90.8139Z" fill="#D17C67"/>
<path d="M202.465 94.8791C202.636 94.8791 202.787 94.7549 202.815 94.5809C202.847 94.3871 202.716 94.2032 202.521 94.1717C199.724 93.7111 196.552 93.1901 193.998 91.5988C192.873 90.898 192.199 90.121 191.994 89.2901C191.867 88.7757 191.99 88.1561 192.308 87.7129C192.476 87.4777 192.769 87.1902 193.214 87.1513C193.41 87.1347 193.555 86.9616 193.537 86.7661C193.521 86.5706 193.341 86.4256 193.153 86.4422C192.595 86.4903 192.089 86.7943 191.73 87.2979C191.289 87.9134 191.127 88.7426 191.304 89.4616C191.554 90.4788 192.335 91.4016 193.623 92.2043C196.297 93.871 199.544 94.4045 202.406 94.875C202.426 94.8783 202.445 94.88 202.465 94.88V94.8791Z" fill="#D17C67"/>
<path d="M162.379 134.353C162.572 134.353 162.729 134.2 162.735 134.006C162.846 129.787 164.15 127.104 166.516 123.628C166.627 123.466 166.584 123.244 166.422 123.133C166.26 123.024 166.039 123.063 165.929 123.226C163.486 126.815 162.14 129.593 162.024 133.987C162.019 134.183 162.173 134.347 162.37 134.352H162.379V134.353Z" fill="#D17C67"/>
<path d="M57.9879 148.731C55.856 151.061 53.6158 153.301 51.2391 155.465C48.5928 157.873 45.5348 159.899 42.1219 161.03C39.5708 161.877 34.6198 163.169 32.5855 160.927C27.3939 155.2 23.3873 148.109 21.8954 140.477C20.2192 131.908 16.8113 123.383 13.119 115.486C11.8521 114.608 10.194 114.635 8.65343 114.584C8.44256 114.578 8.21762 114.568 7.98525 114.55C7.45269 114.511 6.87961 114.44 6.34292 114.289C5.62512 114.091 4.971 113.751 4.54926 113.173C4.12172 112.587 4.00264 111.697 3.52549 111.195C2.98879 110.629 2.35204 110.496 2.03449 109.675C1.85173 109.201 1.81534 108.675 1.92285 108.179C2.02043 107.732 2.46781 107.35 2.04606 107.021C1.40187 106.518 0.904872 105.898 0.737827 105.076C0.556724 104.179 0.829616 103.402 1.27286 102.639C1.56312 102.136 1.63094 102.185 1.30098 101.673C1.10417 101.364 0.859389 101.153 0.784136 100.773C0.65265 100.122 0.856077 99.4269 1.2555 98.895C1.91954 98.0145 3.18395 97.4553 4.1548 96.989C5.33403 96.4232 6.54883 95.9311 7.78926 95.5128C10.199 94.7002 12.7146 94.1526 15.2558 93.9853C15.6751 91.9334 15.2443 89.8161 14.8266 87.7651C14.4074 85.7157 13.9997 83.5885 14.4611 81.5465C14.9226 79.5046 15.9687 76.8422 18.0485 76.6426C18.796 82.548 21.0553 87.4843 23.169 92.9432C25.0164 97.7196 25.5746 106.996 22.6041 111.154C25.2248 118.882 27.766 122.489 32.9138 128.861C35.761 132.383 39.0258 135.761 40.4614 140.059C42.8893 136.651 45.6629 133.609 48.5664 130.665C48.7376 137.607 52.396 144.773 57.9895 148.729L57.9879 148.731Z" fill="#FFB8A6"/>
<path d="M54.6132 124.708C52.5781 126.701 50.5429 128.662 48.5657 130.667C48.7377 137.608 52.3953 144.774 57.9896 148.731C61.051 145.383 63.8784 141.844 66.4883 138.027C63.8106 132.754 59.5021 128.03 54.614 124.708H54.6132Z" fill="#F09A84"/>
<path d="M2.23885 102.308C2.06932 102.308 1.91965 102.186 1.88905 102.012C1.85515 101.818 1.98498 101.633 2.17766 101.6C5.42841 101.035 8.57167 99.9956 11.5206 98.5112C12.3748 98.0813 13.2134 97.5751 13.5557 96.7915C13.7352 96.3823 13.6955 95.8389 13.4573 95.4396C13.3424 95.2466 13.134 95.0105 12.7949 94.9832C12.5989 94.9674 12.4534 94.7951 12.4691 94.5988C12.484 94.4033 12.6618 94.2583 12.852 94.2724C13.3523 94.313 13.784 94.598 14.0684 95.0743C14.424 95.6715 14.4794 96.4577 14.2082 97.0781C13.7757 98.0688 12.8148 98.6586 11.8414 99.149C8.82968 100.665 5.62027 101.726 2.30087 102.303C2.2802 102.307 2.25952 102.308 2.23885 102.308V102.308Z" fill="#D17C67"/>
<path d="M15.4007 110.423C14.969 111.414 14.0064 112.004 13.0348 112.494C11.404 113.315 9.71784 114.002 7.9862 114.549C7.45364 114.511 6.88057 114.44 6.34387 114.289C8.54274 113.697 10.6746 112.884 12.7147 111.856C13.5698 111.426 14.4067 110.92 14.7507 110.138C14.9293 109.728 14.8896 109.183 14.6515 108.785C14.5365 108.592 14.3273 108.355 13.9891 108.328C13.7923 108.313 13.6467 108.14 13.6632 107.944C13.6773 107.747 13.8543 107.604 14.0453 107.618C14.5464 107.657 14.9781 107.942 15.2626 108.419C15.6182 109.016 15.6744 109.803 15.4015 110.423H15.4007Z" fill="#D17C67"/>
<path d="M2.62587 107.446C2.46792 107.446 2.32403 107.341 2.28186 107.181C2.23224 106.991 2.3447 106.796 2.5349 106.745C5.29693 106.011 8.15323 105.253 10.8284 104.14C11.7116 103.773 12.6237 103.343 13.3192 102.687C14.0502 101.997 14.4455 101.101 14.3769 100.29C14.3008 99.4102 13.5838 98.6357 12.8082 98.5992C12.6122 98.5901 12.46 98.4228 12.4699 98.2265C12.479 98.0301 12.661 97.8752 12.8412 97.8868C13.9733 97.9399 14.9797 98.9902 15.0856 100.229C15.1724 101.255 14.6953 102.367 13.8071 103.205C13.029 103.94 12.0465 104.404 11.1013 104.798C8.38312 105.929 5.50284 106.694 2.71766 107.434C2.68706 107.442 2.65646 107.445 2.62669 107.445L2.62587 107.446Z" fill="#D17C67"/>
<path d="M4.21697 111.512C4.04579 111.512 3.89529 111.388 3.86717 111.214C3.83492 111.02 3.9664 110.836 4.16074 110.805C6.95832 110.344 10.1297 109.823 12.6842 108.232C13.8088 107.531 14.4828 106.754 14.6879 105.923C14.8152 105.409 14.692 104.789 14.3745 104.346C14.2066 104.11 13.913 103.823 13.4681 103.784C13.2721 103.768 13.1274 103.594 13.1448 103.399C13.1613 103.203 13.3416 103.058 13.5293 103.075C14.0875 103.123 14.5928 103.427 14.9525 103.931C15.3933 104.546 15.5553 105.375 15.3784 106.094C15.1278 107.112 14.3472 108.034 13.0596 108.837C10.3852 110.504 7.1386 111.037 4.27569 111.508C4.25584 111.511 4.23682 111.513 4.21697 111.513V111.512Z" fill="#D17C67"/>
<path d="M44.3018 150.985C44.1091 150.985 43.952 150.832 43.9462 150.638C43.8354 146.419 42.5313 143.736 40.1654 140.26C40.0546 140.098 40.0967 139.876 40.2588 139.765C40.4209 139.656 40.6425 139.695 40.7525 139.858C43.1953 143.447 44.5408 146.224 44.6574 150.619C44.6624 150.815 44.5077 150.979 44.3109 150.984H44.3018V150.985Z" fill="#D17C67"/>
<path d="M104.024 65.9615C100.031 64.7612 97.159 62.214 95.1553 59.0769C95.5787 55.7378 95.6787 52.358 95.4323 49.0015C100.631 50.0535 105.857 50.6739 111.159 50.7775C112.104 50.7957 112.707 50.8868 113.652 50.8868C113.268 54.7694 113.247 58.6652 113.528 62.5436C111.208 65.1356 107.618 66.5621 104.024 65.9623V65.9615Z" fill="#F09A84"/>
<path d="M123.648 24.1744C125.3 35.2671 124.137 50.6077 114.363 57.7863C112.613 59.0711 110.567 60.0345 108.403 60.1778C104.811 60.4164 100.507 57.4276 97.9414 55.0891C94.961 52.3721 92.7415 48.8499 91.2778 45.1065C88.8449 38.8821 88.2916 32.1069 87.764 25.4435C87.597 23.3403 86.8717 21.6901 87.0231 19.5853C87.1744 17.4804 87.965 15.3341 89.5875 13.9888C91.0685 12.762 93.0383 12.3403 94.9321 12.009C100.647 11.01 106.444 10.479 112.246 10.4227C114.741 10.3986 117.384 10.5047 119.479 11.8624C121.593 13.2325 122.8 15.7002 123.216 18.1878C123.631 20.6754 123.278 21.6794 123.649 24.1736L123.648 24.1744Z" fill="#FFB8A6"/>
<path d="M125.461 31.1259C126.053 30.4483 126.758 29.7931 127.641 29.6274C128.905 29.3905 130.188 30.2909 130.702 31.4722C131.216 32.6534 131.087 34.0244 130.7 35.2529C130.124 37.0786 128.989 38.7229 127.486 39.9075C126.54 40.653 125.289 41.2345 124.154 40.8311C119.98 39.3483 123.843 32.9773 125.46 31.1267L125.461 31.1259Z" fill="#FFB8A6"/>
<path d="M87.4143 32.6837C86.7692 32.0566 86.0126 31.461 85.1186 31.3682C83.8402 31.2357 82.6336 32.238 82.2185 33.4566C81.8034 34.6751 82.0424 36.032 82.5286 37.224C83.2514 38.9967 84.5166 40.5433 86.1102 41.6003C87.1141 42.2663 88.4083 42.7426 89.5056 42.2489C93.5453 40.4298 89.1757 34.3959 87.4134 32.6837H87.4143Z" fill="#FFB8A6"/>
<path d="M96.3073 30.8294C97.4088 30.508 98.3821 30.1063 99.3612 29.736L100.808 29.1686C101.274 28.9201 101.844 29.0559 101.989 27.8332L101.993 27.8092C102.022 27.5599 101.928 27.3213 101.764 27.1573C100.872 26.2825 100.419 26.8094 99.8789 26.9924C99.3554 27.2401 98.8444 27.5151 98.3647 27.839C97.4088 28.4893 96.5273 29.2647 95.8806 30.2604C95.7665 30.436 95.8161 30.6712 95.9914 30.7847C96.0873 30.8468 96.2006 30.8601 96.3023 30.8311L96.3081 30.8294H96.3073Z" fill="#824728"/>
<path d="M109.393 26.7598C109.893 27.4093 110.346 27.4598 110.824 27.4664L112.248 27.5633L113.697 27.6661C114.186 27.7017 114.683 27.7373 115.208 27.7398H115.213C115.421 27.7406 115.59 27.5733 115.591 27.3654C115.591 27.2469 115.537 27.14 115.451 27.0705C115.026 26.7275 114.559 26.46 114.072 26.2388C113.587 26.0101 113.077 25.8428 112.56 25.7028C112.042 25.5695 111.512 25.4783 110.978 25.4328C110.45 25.3624 109.891 25.3822 109.382 26.0474C109.221 26.2587 109.229 26.5453 109.382 26.7466L109.393 26.7598Z" fill="#824728"/>
<path d="M107.972 44.3632C109.022 44.3632 110.079 43.9739 110.846 43.2599C111.213 42.9186 111.443 42.5715 111.548 42.1996C111.69 41.6976 111.568 41.16 111.238 40.8294C110.878 40.4699 110.395 40.4202 109.969 40.3763C109.818 40.3606 109.667 40.3457 109.523 40.315C108.749 40.1477 108.215 39.4295 107.972 38.814C107.675 38.0552 107.634 37.1995 107.594 36.372C107.585 36.1757 107.406 36.0232 107.223 36.0332C107.026 36.0423 106.875 36.2096 106.885 36.4059C106.925 37.25 106.969 38.2068 107.312 39.0749C107.712 40.0955 108.483 40.8187 109.373 41.0117C109.542 41.0481 109.719 41.0672 109.897 41.0854C110.25 41.1218 110.555 41.1533 110.735 41.3339C110.883 41.4822 110.935 41.7514 110.863 42.0049C110.796 42.2476 110.631 42.487 110.361 42.7372C109.458 43.5796 108.067 43.8778 106.898 43.4761C106.712 43.4131 106.51 43.5117 106.447 43.6981C106.383 43.8845 106.482 44.0874 106.667 44.1512C107.086 44.2945 107.527 44.3641 107.971 44.3641L107.972 44.3632Z" fill="#D17C67"/>
<path d="M115.436 46.4136C111.156 49.09 105.578 49.5597 100.912 47.6362C101.796 49.4429 102.76 51.2479 104.292 52.5493C105.823 53.8507 107.923 54.6153 109.874 54.1389C111.489 53.7438 112.821 52.5518 113.732 51.1585C114.644 49.7652 114.901 47.9916 115.436 46.4136Z" fill="white"/>
<path d="M111.84 35.5166C111.918 35.6541 112.001 35.7767 112.086 35.8795C112.252 36.0774 112.51 36.2531 112.751 36.1653C112.943 36.0948 113.043 35.8869 113.108 35.6931C113.355 34.955 113.487 33.7414 112.945 33.0903C112.639 32.7226 111.957 32.5461 111.642 32.9893C111.182 33.6338 111.425 34.781 111.839 35.5158L111.84 35.5166Z" fill="#542F1A"/>
<path d="M100.393 37.0982C100.47 37.2357 100.554 37.3583 100.639 37.461C100.804 37.659 101.062 37.8346 101.304 37.7468C101.496 37.6764 101.596 37.4685 101.66 37.2746C101.907 36.5365 102.04 35.323 101.497 34.6719C101.191 34.3041 100.51 34.1277 100.194 34.5708C99.7342 35.2153 99.9774 36.3626 100.392 37.0974L100.393 37.0982Z" fill="#542F1A"/>
<path d="M87.1083 35.1603C86.0217 31.4036 84.9351 27.6478 83.8476 23.8912C83.148 21.4732 82.4418 19.0079 82.5046 16.4913C82.5675 13.9748 83.5226 11.3513 85.5611 9.87931C87.8583 8.22009 90.6262 8.59202 93.4452 8.85544C98.8866 7.58224 102.827 2.79593 108.024 0.740744C109.455 0.174968 111.019 -0.177918 112.533 0.0929586C114.047 0.363835 115.495 1.35456 115.994 2.81167C116.493 4.26877 116.213 6.22952 114.757 6.72405C117.938 5.86669 120.938 4.42864 124.11 3.53317C127.28 2.63688 130.787 2.31962 133.788 3.68228C136.109 4.73514 137.961 6.78038 138.782 9.1959C139.603 11.6114 139.383 14.3641 138.186 16.6173C136.1 20.5462 131.408 22.5119 126.967 22.5716C122.525 22.632 118.206 21.0118 114.022 19.5165C114.936 20.0475 115.876 20.6009 116.511 21.4483C117.145 22.2957 117.4 23.5209 116.836 24.4172C116.103 25.5819 114.461 25.6622 113.091 25.5595C109.242 25.2704 105.396 24.5613 101.825 23.0918C98.254 21.6223 94.961 19.3625 92.5893 16.3108C91.4225 23.2881 91.4084 30.5943 92.1196 37.633C92.1734 38.1615 91.5887 37.9204 91.0661 38.0099C90.5435 38.0993 90.0117 37.9254 89.5288 37.705C88.2247 37.1078 87.5052 36.5412 87.1066 35.1619L87.1083 35.1603Z" fill="#824728"/>
<path d="M125.789 32.7283C125.705 33.3554 125.611 34.0081 125.252 34.5292C124.752 35.2548 123.327 35.722 122.628 35.0295C122.204 34.6087 122.076 33.9808 121.969 33.3918C121.303 29.7487 120.636 26.1055 119.971 22.4632C119.846 21.7781 119.723 21.0566 119.948 20.398C120.272 19.4463 121.319 19.2292 122.202 19.2549C123.044 19.2798 123.771 19.9176 124.15 20.6714C124.529 21.4252 124.626 22.2859 124.717 23.125C125.037 26.0914 126.184 29.7719 125.788 32.7291L125.789 32.7283Z" fill="#824728"/>
<path d="M133.61 129.635C132.072 144.932 131.672 151.755 133.731 171.119C134.353 176.963 135.156 182.566 136.093 187.914C126.021 192.18 111.825 193.298 100.085 193.049C88.3446 192.799 76.7118 189.827 66.3509 184.287C67.1043 179.651 68.3017 174.899 68.0867 170.242C67.8014 164.067 68.8127 159.58 68.9748 155.139C69.2155 148.547 69.5396 150.705 70.0176 138.537C60.2215 137.931 50.9373 134.258 42.8704 128.657C45.7903 116.224 50.3584 104.173 56.4002 92.9249C59.0845 87.9307 61.7018 81.481 66.8214 78.7987C72.453 75.8398 78.4476 73.5957 84.6373 72.1063H84.644C86.2185 71.7286 87.7996 71.3989 89.394 71.1222C92.8118 70.5159 96.2701 70.1448 99.7417 70.0172C105.157 69.8151 110.574 70.4687 115.848 71.722C116.642 71.9108 117.429 72.113 118.217 72.3283C118.688 72.4567 119.172 72.5909 119.67 72.7193C124.776 74.1143 131.141 75.9003 135.164 78.9801C139.746 82.4982 143.607 88.5296 147.033 93.1461C150.976 98.4634 154.259 104.084 157.643 109.725C152.502 119.005 143.729 126.48 133.61 129.633V129.635Z" fill="#4C64A2"/>
<path d="M119.711 76.5291C119.455 79.2387 118.48 81.9475 116.589 83.895C114.403 86.1457 111.221 87.1704 108.099 87.4669C102.602 87.9789 96.9308 86.3751 92.5099 83.0592C88.8565 80.3231 86.0845 76.4413 84.6448 72.1073C86.2193 71.7296 87.8004 71.3999 89.3948 71.1232C92.8126 70.5168 96.2709 70.1457 99.7425 70.0182C105.158 69.8161 110.575 70.4696 115.849 71.723C116.643 71.9118 117.43 72.1139 118.217 72.3293C118.689 72.4577 119.173 72.5919 119.67 72.7203C119.799 73.9877 119.825 75.2609 119.711 76.5283V76.5291Z" fill="#161D2E"/>
<path d="M116.071 76.0369C115.882 78.059 115.149 80.0876 113.736 81.5431C112.101 83.228 109.72 83.9959 107.385 84.2121C103.274 84.5964 99.0288 83.4036 95.7259 80.9235C92.5504 78.5444 90.2631 74.9998 89.3948 71.1247C92.8126 70.5183 96.2709 70.1472 99.7425 70.0196C105.158 69.8175 110.575 70.4711 115.849 71.7244C116.085 73.1534 116.205 74.5955 116.071 76.0377L116.071 76.0369Z" fill="#FFB8A6"/>
<path d="M70.0185 138.894C70.164 138.894 70.2996 138.805 70.3526 138.66C73.9316 128.821 77.1907 111.586 77.9333 98.5701C77.944 98.3738 77.7952 98.2057 77.5983 98.1941C77.3751 98.1874 77.2337 98.3332 77.2229 98.5295C76.4836 111.486 73.2428 128.633 69.6836 138.416C69.6166 138.6 69.7117 138.805 69.8961 138.873C69.9366 138.888 69.9771 138.894 70.0177 138.894H70.0185Z" fill="#161D2E"/>
<path d="M133.61 129.992C133.798 129.992 133.955 129.845 133.965 129.655C134.454 121.013 134.85 108.597 133.965 98.5187C133.949 98.3232 133.767 98.1774 133.58 98.1948C133.384 98.2122 133.239 98.3845 133.256 98.5808C134.138 108.616 133.743 120.996 133.256 129.615C133.246 129.811 133.395 129.979 133.591 129.991C133.598 129.991 133.605 129.991 133.611 129.991L133.61 129.992Z" fill="#161D2E"/>
<path d="M95.1553 59.0771C97.159 62.215 100.03 64.7622 104.024 65.9617C107.618 66.5623 111.208 65.1358 113.528 62.543C113.825 66.6327 114.458 70.7008 115.386 74.7085C107.387 77.1265 98.8493 76.6709 91.061 73.6382C93.145 69.0267 94.5185 64.0987 95.1545 59.0771H95.1553Z" fill="#FFB8A6"/>
</svg>
