<svg width="86" height="116" viewBox="0 0 86 116" fill="none" xmlns="http://www.w3.org/2000/svg">
<g clip-path="url(#clip0_994_565)">
<path d="M86 0H0V116H86V0Z" fill="white"/>
<path fill-rule="evenodd" clip-rule="evenodd" d="M14.8784 45.1958H46.9199C47.2329 45.1958 47.4888 45.325 47.4888 45.4841C47.4888 45.6423 47.2329 45.7715 46.9199 45.7715H14.8784C14.5644 45.7715 14.3086 45.6423 14.3086 45.4841C14.3086 45.325 14.5644 45.1958 14.8784 45.1958Z" fill="#F5D0BA"/>
<path fill-rule="evenodd" clip-rule="evenodd" d="M14.8755 47.8784H37.206C37.5171 47.8784 37.7739 48.0096 37.7739 48.1667C37.7739 48.3249 37.5181 48.4541 37.206 48.4541H14.8755C14.5644 48.4541 14.3076 48.3249 14.3076 48.1667C14.3076 48.0086 14.5634 47.8784 14.8755 47.8784Z" fill="#F5D0BA"/>
<path fill-rule="evenodd" clip-rule="evenodd" d="M14.8784 50.561H28.8188C29.1319 50.561 29.3877 50.6912 29.3877 50.8494C29.3877 51.0075 29.129 51.1377 28.8188 51.1377H14.8784C14.5644 51.1377 14.3086 51.0075 14.3086 50.8494C14.3086 50.6912 14.5644 50.561 14.8784 50.561Z" fill="#F5D0BA"/>
<path fill-rule="evenodd" clip-rule="evenodd" d="M31.9302 50.561H46.9368C47.2508 50.561 47.5066 50.6922 47.5066 50.8494C47.5066 51.0075 47.2508 51.1377 46.9368 51.1377H31.9302C31.619 51.1377 31.3613 51.0075 31.3613 50.8494C31.3613 50.6912 31.6171 50.561 31.9302 50.561Z" fill="#F5D0BA"/>
<path fill-rule="evenodd" clip-rule="evenodd" d="M40.5005 47.8784H46.9729C47.286 47.8784 47.5418 48.0096 47.5418 48.1667C47.5418 48.3229 47.2831 48.4541 46.9729 48.4541H40.5005C40.1893 48.4541 39.9307 48.3249 39.9307 48.1667C39.9307 48.0086 40.1865 47.8784 40.5005 47.8784Z" fill="#F5D0BA"/>
<path fill-rule="evenodd" clip-rule="evenodd" d="M14.8203 56.8823H60.4728C60.7754 56.8823 61.0207 57.0096 61.0207 57.1591V57.161C61.0207 57.3105 60.7735 57.4368 60.4728 57.4368H14.8203C14.5206 57.4368 14.2705 57.3124 14.2705 57.161V57.1591C14.2705 57.0077 14.5177 56.8823 14.8203 56.8823Z" fill="#F5D0BA"/>
<path fill-rule="evenodd" clip-rule="evenodd" d="M14.8203 59.4673H36.3385C36.6411 59.4673 36.8883 59.5936 36.8883 59.746C36.8883 59.8973 36.6411 60.0227 36.3385 60.0227H14.8203C14.5206 60.0227 14.2725 59.8973 14.2725 59.746C14.2725 59.5926 14.5178 59.4673 14.8203 59.4673Z" fill="#F5D0BA"/>
<path fill-rule="evenodd" clip-rule="evenodd" d="M14.8203 62.0547H28.2577C28.5574 62.0547 28.8056 62.18 28.8056 62.3305C28.8056 62.4819 28.5584 62.6072 28.2577 62.6072H14.8203C14.5206 62.6072 14.2725 62.4819 14.2725 62.3305C14.2725 62.1791 14.5197 62.0547 14.8203 62.0547Z" fill="#F5D0BA"/>
<path fill-rule="evenodd" clip-rule="evenodd" d="M30.0811 62.0547H60.4732C60.7738 62.0547 61.021 62.18 61.021 62.3305C61.021 62.4819 60.7738 62.6072 60.4732 62.6072H30.0811C29.7833 62.6072 29.5332 62.4819 29.5332 62.3305C29.5332 62.1791 29.7804 62.0547 30.0811 62.0547Z" fill="#F5D0BA"/>
<path fill-rule="evenodd" clip-rule="evenodd" d="M38.8067 59.4702H60.4727C60.7753 59.4702 61.0206 59.5965 61.0206 59.746C61.0206 59.8955 60.7715 60.0227 60.4727 60.0227H38.8067C38.5089 60.0227 38.2588 59.8974 38.2588 59.746C38.2588 59.5927 38.506 59.4702 38.8067 59.4702Z" fill="#F5D0BA"/>
<path fill-rule="evenodd" clip-rule="evenodd" d="M19.9615 15.5352H61.418C61.8218 15.5352 62.153 16.4184 62.153 17.4907C62.153 18.5639 61.8208 19.4462 61.418 19.4462H19.9615C19.5577 19.4462 19.2236 18.5677 19.2236 17.4907C19.2236 16.4136 19.5548 15.5352 19.9615 15.5352Z" fill="#FDB387"/>
<path fill-rule="evenodd" clip-rule="evenodd" d="M14.8094 34.561H67.9891C68.3404 34.561 68.6277 34.7086 68.6277 34.8841V34.886C68.6277 35.0605 68.3384 35.2081 67.9891 35.2081H14.8094C14.4582 35.2081 14.1689 35.0624 14.1689 34.886V34.8841C14.1689 34.7076 14.4553 34.561 14.8094 34.561Z" fill="#F5D0BA"/>
<path fill-rule="evenodd" clip-rule="evenodd" d="M14.8095 37.5732H39.8774C40.2286 37.5732 40.515 37.7208 40.515 37.8963C40.515 38.0727 40.2258 38.2193 39.8774 38.2193H14.8095C14.4582 38.2193 14.1719 38.0718 14.1719 37.8963C14.1719 37.7179 14.4582 37.5732 14.8095 37.5732Z" fill="#F5D0BA"/>
<path fill-rule="evenodd" clip-rule="evenodd" d="M14.8095 40.5859H30.4603C30.8106 40.5859 31.0979 40.7306 31.0979 40.907C31.0979 41.0854 30.8106 41.2301 30.4603 41.2301H14.8095C14.4582 41.2301 14.1719 41.0854 14.1719 40.907C14.1719 40.7306 14.4582 40.5859 14.8095 40.5859Z" fill="#F5D0BA"/>
<path fill-rule="evenodd" clip-rule="evenodd" d="M32.5858 40.5859H67.989C68.3403 40.5859 68.6295 40.7306 68.6295 40.907C68.6295 41.0854 68.3384 41.2301 67.989 41.2301H32.5858C32.2394 41.2301 31.9482 41.0854 31.9482 40.907C31.9482 40.7306 32.2355 40.5859 32.5858 40.5859Z" fill="#F5D0BA"/>
<path fill-rule="evenodd" clip-rule="evenodd" d="M42.7509 37.5732H67.9887C68.3399 37.5732 68.6272 37.7227 68.6272 37.8963C68.6272 38.0698 68.338 38.2193 67.9887 38.2193H42.7509C42.4015 38.2193 42.1133 38.0718 42.1133 37.8963C42.1133 37.7179 42.3996 37.5732 42.7509 37.5732Z" fill="#F5D0BA"/>
<path fill-rule="evenodd" clip-rule="evenodd" d="M57.9829 83.3378C57.9829 83.2173 58.0841 83.1354 58.2082 83.1527C58.3323 83.172 58.4334 83.2877 58.4334 83.4111C58.4334 83.4497 58.4201 83.5654 58.3934 83.7467C58.5938 83.7747 58.7799 83.8807 58.9298 84.09C59.1235 84.36 59.2448 84.8189 59.2448 85.5402V85.5508C59.2448 86.9779 59.1627 88.028 59.0691 88.7705C59.4023 88.3115 59.8766 87.7532 60.5343 87.1428C61.2339 86.491 61.6377 86.4447 61.8897 86.7214H61.8916C62.1168 86.9712 62.114 87.4591 62.1102 87.975C62.1054 88.4301 62.1035 88.9132 62.2381 89.0896C62.344 89.2256 62.6466 89.1427 63.3415 88.5921C64.5603 87.6317 64.8849 87.4928 65.26 87.9788L65.2667 87.9856C65.3507 88.0945 65.4213 88.2353 65.512 88.405C65.869 89.0916 66.5409 90.3808 69.1362 91.7481C69.7089 92.0489 70.5803 92.0422 71.3105 92.0383H71.5692C71.6904 92.0383 71.8078 92.1386 71.8279 92.2611C71.847 92.3835 71.7658 92.4867 71.6446 92.4867L71.3859 92.4886C70.6023 92.4935 69.6669 92.4983 68.9797 92.1357C66.2288 90.6864 65.5053 89.2998 65.1187 88.5593C65.0414 88.4118 64.9803 88.2922 64.925 88.2199L64.923 88.2151C64.8171 88.0791 64.5947 88.2218 63.6536 88.9624C62.7 89.7135 62.1884 89.6981 61.9002 89.3259C61.653 89.0048 61.6577 88.4359 61.6596 87.8988C61.6644 87.4832 61.6663 87.0869 61.5804 86.9905C61.5317 86.9393 61.338 87.0551 60.8703 87.4899C59.6514 88.62 59.093 89.5554 58.8792 89.9874C58.8696 90.0047 58.8553 90.0182 58.8324 90.023C58.7627 90.2342 58.6673 90.3461 58.652 90.3509C58.6148 90.3615 58.4888 90.3191 58.4268 90.1995C58.149 90.2708 57.7185 90.3383 57.1687 90.3952L57.1449 90.5042C57.0189 91.0558 56.8996 91.5099 56.8003 91.7963C56.5865 92.4221 56.365 92.559 56.1579 92.0075C56.1131 91.8937 56.0892 91.6575 56.0892 91.2804C56.0892 91.0037 56.0663 90.7404 56.0253 90.4888C52.6387 90.7173 46.8373 90.7269 42.7625 90.3837C41.4663 90.2747 40.341 90.1291 39.5201 89.9498C38.6134 89.7482 38.0282 89.4724 37.9147 89.1108H37.9166L37.9147 89.1089C37.8641 88.944 37.8994 88.7811 38.0311 88.6249C39.7377 86.6057 43.6664 85.4226 47.4482 85.4226C48.8627 85.4226 50.263 85.5875 51.521 85.9356C52.7924 86.2856 53.9254 86.8275 54.7901 87.5729C55.5604 88.2353 56.1169 89.0578 56.3746 90.0481L56.7764 90.0153C56.8671 89.5988 56.9645 89.134 57.059 88.6528C56.2095 87.9325 55.4764 86.8728 56.2648 85.169C56.2782 85.142 56.2954 85.1198 56.3154 85.1044C56.4739 84.9096 56.9731 84.3465 57.4875 84.0176C57.6307 83.926 57.7787 83.8508 57.9247 83.7997C57.9619 83.5471 57.982 83.3841 57.982 83.3378H57.9829ZM58.3275 84.1883C58.1729 85.1719 57.8703 86.9172 57.5601 88.5217C57.7481 88.6663 57.9352 88.7955 58.1051 88.9093C58.2683 89.0202 58.4163 89.1205 58.5375 89.2188C58.6616 88.512 58.7961 87.3144 58.7961 85.4785V85.4679C58.7961 84.8565 58.7121 84.4959 58.5795 84.3108C58.5155 84.2211 58.4277 84.1854 58.3275 84.1883ZM57.4684 88.971C57.4007 89.3172 57.332 89.6518 57.2632 89.9652C57.8875 89.8948 58.3008 89.807 58.4201 89.7068C58.4353 89.6952 58.4401 89.6884 58.4382 89.6836L58.4363 89.6817L58.4344 89.6778C58.3485 89.5747 58.1404 89.4319 57.8961 89.2671C57.7615 89.1755 57.6173 89.0771 57.4694 88.9701L57.4684 88.971ZM57.1554 88.1707C57.4245 86.7841 57.6813 85.3165 57.835 84.3667L57.771 84.4072C57.2231 84.7572 56.7134 85.3589 56.68 85.4062L56.6781 85.41C56.0816 86.6992 56.5302 87.5623 57.1544 88.1707H57.1554ZM56.5311 91.0519C56.5769 90.8706 56.6275 90.6652 56.681 90.4406L56.4653 90.4589C56.4977 90.6508 56.5206 90.8494 56.5311 91.0519ZM55.9365 90.0799C55.7026 89.2034 55.2082 88.4764 54.5286 87.8901C53.7297 87.2007 52.6692 86.7002 51.4685 86.3666C50.2544 86.032 48.899 85.8738 47.5217 85.8738C43.8392 85.8738 40.0317 87.0068 38.3929 88.944C38.3528 88.9913 38.3375 89.0241 38.3423 89.0424C38.389 89.1938 38.831 89.3548 39.5478 89.5129C40.3496 89.6894 41.453 89.8312 42.7263 89.9372C46.8211 90.2824 52.6444 90.294 55.9355 90.0799H55.9365Z" fill="#EC661A"/>
<path fill-rule="evenodd" clip-rule="evenodd" d="M15.4187 22.1348H66.1406C66.6378 22.1348 67.0406 23.02 67.0406 24.0903V24.0922C67.0406 25.1645 66.635 26.0477 66.1406 26.0477H15.4187C14.9243 26.0477 14.5205 25.1664 14.5205 24.0922V24.0903C14.5205 23.0161 14.9243 22.1348 15.4187 22.1348Z" fill="#FDB387"/>
<path fill-rule="evenodd" clip-rule="evenodd" d="M14.8094 66.5464H67.9891C68.3404 66.5464 68.6277 66.6939 68.6277 66.8694C68.6277 67.0459 68.3384 67.1924 67.9891 67.1924H14.8094C14.4582 67.1924 14.1689 67.0478 14.1689 66.8694C14.1689 66.691 14.4553 66.5464 14.8094 66.5464Z" fill="#F5D0BA"/>
<path fill-rule="evenodd" clip-rule="evenodd" d="M14.8095 69.5586H39.8774C40.2286 69.5586 40.515 69.7032 40.515 69.8797V69.8816C40.515 70.0581 40.2258 70.2027 39.8774 70.2027H14.8095C14.4582 70.2027 14.1719 70.0581 14.1719 69.8816V69.8797C14.1719 69.7032 14.4582 69.5586 14.8095 69.5586Z" fill="#F5D0BA"/>
<path fill-rule="evenodd" clip-rule="evenodd" d="M14.8095 72.5693H30.4603C30.8106 72.5693 31.0979 72.7169 31.0979 72.8924C31.0979 73.0688 30.8106 73.2154 30.4603 73.2154H14.8095C14.4582 73.2154 14.1719 73.0707 14.1719 72.8924C14.1719 72.7149 14.4582 72.5693 14.8095 72.5693Z" fill="#F5D0BA"/>
<path fill-rule="evenodd" clip-rule="evenodd" d="M32.5858 72.5693H67.989C68.3403 72.5693 68.6295 72.7169 68.6295 72.8924C68.6295 73.0688 68.3384 73.2154 67.989 73.2154H32.5858C32.2394 73.2154 31.9482 73.0707 31.9482 72.8924C31.9482 72.7149 32.2355 72.5693 32.5858 72.5693Z" fill="#F5D0BA"/>
<path fill-rule="evenodd" clip-rule="evenodd" d="M42.7509 69.5586H67.9887C68.3399 69.5586 68.6272 69.7061 68.6272 69.8797V69.8816C68.6272 70.0552 68.338 70.2027 67.9887 70.2027H42.7509C42.4015 70.2027 42.1133 70.0581 42.1133 69.8816V69.8797C42.1133 69.7032 42.3996 69.5586 42.7509 69.5586Z" fill="#F5D0BA"/>
<path fill-rule="evenodd" clip-rule="evenodd" d="M37.0832 95.3364H73.658C74.167 95.3364 74.5834 95.484 74.5834 95.6575V95.6594C74.5834 95.833 74.1643 95.9805 73.658 95.9805H37.0832C36.5769 95.9805 36.1592 95.8359 36.1592 95.6594V95.6575C36.1592 95.4811 36.5742 95.3364 37.0832 95.3364Z" fill="#F5D0BA"/>
</g>
<rect x="2" y="2" width="82" height="112" rx="6" stroke="#FC833F" stroke-width="4"/>
<defs>
<clipPath id="clip0_994_565">
<rect width="86" height="116" rx="8" fill="white"/>
</clipPath>
</defs>
</svg>
