<svg width="307" height="170" viewBox="0 0 307 170" fill="none" xmlns="http://www.w3.org/2000/svg">
<g clip-path="url(#clip0_962_2001)">
<path d="M255.12 0H144.855V146.828H255.12V0Z" fill="white"/>
<path d="M167.8 36.3784H162.087V66.8873H167.8V36.3784Z" fill="#FFB469"/>
<path d="M181.521 28.8521H175.809V66.8876H181.521V28.8521Z" fill="#FFB469"/>
<path d="M209.979 28.8521H204.267V66.8876H209.979V28.8521Z" fill="#FFB469"/>
<path d="M195.616 22.1538H189.903V66.8875H195.616V22.1538Z" fill="#FFB469"/>
<path d="M224.331 22.1538H218.618V66.8875H224.331V22.1538Z" fill="#FFB469"/>
<path d="M239.312 11.2661H233.6V66.8874H239.312V11.2661Z" fill="#FFB469"/>
<path d="M245.922 65.6567H155.477V67.4674H245.922V65.6567Z" fill="#2B314C"/>
<path d="M165.352 51.3489H156.118V49.7986H164.792L179.19 37.5264L192.97 41.7986L206.774 32.7809H220.764L241.248 10.9702L242.355 12.0353L221.417 34.3312H207.217L193.203 43.4909L179.54 39.2542L165.352 51.3489Z" fill="#E57165"/>
<path d="M159.277 78.3193H155.477V82.1773H159.277V78.3193Z" fill="#E57165"/>
<path d="M245.934 79.6802H161.749V80.8163H245.934V79.6802Z" fill="#2B314C"/>
<path d="M159.277 86.5562H155.477V90.4141H159.277V86.5562Z" fill="#FFB469"/>
<path d="M245.934 87.917H161.749V89.0531H245.934V87.917Z" fill="#2B314C"/>
<path d="M225.334 99.3843H155.943V101.94H225.334V99.3843Z" fill="#C9EEFB"/>
<path d="M245.468 105.467H155.943V108.024H245.468V105.467Z" fill="#C9EEFB"/>
<path d="M245.468 111.42H155.943V113.976H245.468V111.42Z" fill="#C9EEFB"/>
<path d="M225.334 122.012H155.943V124.568H225.334V122.012Z" fill="#C9EEFB"/>
<path d="M245.468 128.095H155.943V130.651H245.468V128.095Z" fill="#C9EEFB"/>
<path d="M245.468 134.047H155.943V136.604H245.468V134.047Z" fill="#C9EEFB"/>
<path d="M257.65 94.284C257.65 94.284 257.102 92.1183 255.633 91.3491C254.176 90.5798 252.812 90.3313 252.812 90.3313C252.812 90.3313 251.798 90.2248 252.742 91.0296C252.742 91.0296 255.155 92.0355 254.817 94.4852C254.817 94.4852 254.759 95.1834 255.832 95.6449L256.286 96.1538L257.639 94.284H257.65Z" fill="#FC927A"/>
<path d="M278.262 97.0178L266.592 101.61L257.697 93.8462L255.75 96.0474L264.237 105.479C264.237 105.479 265.042 106.367 266.627 106.201L275.674 104.592L278.262 97.006V97.0178Z" fill="#2E3551"/>
<path d="M282.261 166.959L279.836 166.935L279.673 162.047H282.587L282.261 166.959Z" fill="#F9B393"/>
<path d="M296.986 165.219L294.619 165.68L293.71 162.296L296.566 161.716L296.986 165.219Z" fill="#F9B393"/>
<path d="M291.891 119.325C291.891 119.325 295.19 140.142 297.743 166.284L294.432 165.964L284.616 132.059L283.31 167.029H279.766C279.766 167.029 274.788 121.065 276.956 118.875L291.891 119.337V119.325Z" fill="#222741"/>
<path d="M283.311 166.662C283.311 166.662 284.617 135.242 284.617 132.047L282.553 126.083L282.623 128.106L281.294 126.686L282.623 129.834L283.031 163.68L283.299 166.662H283.311Z" fill="#1C2035"/>
<path d="M285.595 94.4971C285.595 94.4971 294.98 95.1598 293.5 101.988C292.019 108.805 291.261 114.438 292.649 124.627C292.649 124.627 285.759 127.467 276.327 124.272C276.327 124.272 274.473 105.692 276.304 99.2189C276.304 99.2189 277.411 94.1657 285.595 94.4971Z" fill="white"/>
<path d="M286.831 90.4849L287.099 95.6091C287.099 95.6091 284.15 97.2068 282.471 95.7393L282.844 91.1949L286.831 90.4849Z" fill="#FC927A"/>
<path d="M282.715 92.8518L282.646 93.9761C282.646 93.9761 286.726 92.485 286.726 90.8755L283.427 91.7867L282.715 92.8518Z" fill="#E87562"/>
<path d="M286.26 90.1572L286.572 87.0966C286.622 86.6022 287.058 86.2434 287.545 86.2946L287.614 86.3019C288.101 86.3531 288.455 86.7948 288.404 87.2892L288.093 90.3379C288.043 90.8323 287.608 91.1911 287.121 91.14L287.051 91.1326C286.564 91.0815 286.211 90.6398 286.261 90.1454L286.26 90.1572Z" fill="#963838"/>
<path d="M282.098 92.9941C282.925 93.0296 285.21 92.1657 285.863 91.8462C285.863 91.8462 287.122 91.4083 287.157 89.148C287.157 89.148 287.437 89.3255 287.682 88.7338C287.682 88.6983 287.694 88.6628 287.705 88.6273L288.125 87.2308C288.428 85.6095 287.495 84.0592 286.05 83.787L284.896 83.5622C284.569 83.1598 284.173 82.8758 283.707 82.7929C282.879 82.6391 282.028 83.1006 281.328 83.9645C281.293 84.0119 281.421 83.5148 280.99 83.5858C280.034 83.7515 279.673 85.5148 279.649 87.0296C279.614 89.5503 280.535 92.6864 281.795 92.9586L282.109 92.9941H282.098Z" fill="#FC927A"/>
<path d="M287.881 88.3079C287.694 88.9943 287.239 89.4676 286.866 89.3611C286.493 89.2546 286.365 88.6156 286.552 87.9173C286.738 87.231 287.193 86.7576 287.566 86.8641C287.927 86.9706 288.067 87.6097 287.881 88.3079Z" fill="#FC927A"/>
<path d="M282.937 89.9526C282.867 90.6627 282.413 91.1952 281.468 91.1834C281.072 91.1834 280.524 90.7692 280.466 90.0592L282.937 89.9526Z" fill="white"/>
<path d="M283.369 167.088C283.218 166 282.576 165.112 282.576 165.112C282.297 164.911 282.297 165.1 282.297 165.668C282.297 166.733 280.012 167.017 280.023 165.952C280.047 164.355 279.604 164.97 279.604 164.97L279.009 165.313C278.951 165.242 278.846 165.207 278.764 165.254C278.659 165.301 278.613 165.42 278.648 165.526L278.473 165.633C278.414 165.562 278.309 165.526 278.216 165.574C278.111 165.621 278.065 165.739 278.1 165.846L277.89 165.964C277.831 165.881 277.727 165.846 277.633 165.893C277.528 165.94 277.47 166.071 277.517 166.189L276.304 166.887C276.304 166.887 273.191 167.006 273.203 169.278C273.203 169.278 272.9 169.479 273.203 169.881H283.567C283.567 169.881 284.045 167.94 283.381 167.124L283.369 167.088Z" fill="#222741"/>
<path d="M299.096 169.254C299.096 169.254 299.096 169.16 299.096 169.101C299.096 168.012 298.63 167.041 297.907 166.414C297.954 166.284 297.907 166.142 297.779 166.083C297.732 166.059 297.674 166.036 297.627 166.012C297.65 165.917 297.662 165.823 297.662 165.716C297.662 164.935 296.904 164.296 295.96 164.296C295.016 164.296 294.258 164.935 294.258 165.716C294.258 165.811 294.27 165.905 294.293 166C294.188 166.047 294.118 166.071 294.106 166.083C293.978 166.154 293.92 166.308 293.99 166.438C293.29 167.077 292.836 168.024 292.836 169.101C292.836 169.148 292.836 169.195 292.836 169.254C292.684 169.266 292.567 169.396 292.567 169.55C292.567 169.716 292.696 169.846 292.859 169.846H299.049C299.213 169.846 299.341 169.716 299.341 169.55C299.341 169.396 299.224 169.278 299.073 169.254H299.096Z" fill="#222741"/>
<path d="M287.146 93.6328L283.065 96.047L282.587 94.2719L281.095 94.9346L280.967 98.1654L283.019 96.5322L283.8 98.8754L288.65 95.1121L287.146 93.6328Z" fill="#DCEEFF"/>
<path d="M288.65 95.1123C288.65 95.1123 285.083 96.7809 284.663 105.74C284.243 114.71 284.733 126.544 284.733 126.544C284.733 126.544 286.12 131.242 294.748 130.189C294.748 130.189 294.445 115.503 295.144 102.426C295.144 102.426 296.147 96.3904 288.639 95.1123H288.65Z" fill="#2E3551"/>
<path d="M281.096 94.9346C281.096 94.9346 277.073 99.1594 277.377 107.988L277.843 124.449C277.843 124.449 277.983 128.84 274.462 129.372C274.462 129.372 274.753 106.094 275.826 100.426C276.7 95.7511 281.096 94.9346 281.096 94.9346Z" fill="#2E3551"/>
<path d="M295.749 119.29C295.388 119.574 294.957 119.953 294.595 120.237C294.222 119.846 293.674 119.894 293.126 119.87C292.578 119.834 292.03 119.929 291.483 119.988C290.935 120.047 290.363 120.059 289.85 119.894C289.594 120.118 289.827 120.462 290.317 120.568C290.62 120.627 290.923 120.663 291.214 120.746C291.319 120.781 291.424 120.829 291.448 120.935C291.483 121.077 291.308 121.195 291.168 121.255C290.62 121.503 289.874 121.787 289.326 122.059C288.999 122.213 288.172 122.462 288.09 122.828C287.985 123.302 289.104 122.734 289.326 122.651C289.932 122.414 290.55 122.166 291.156 121.929C291.238 121.894 291.343 121.87 291.401 121.929C291.448 121.976 291.436 122.059 291.401 122.118C291.354 122.178 291.284 122.201 291.226 122.237C290.34 122.639 289.209 123.16 288.323 123.55C288.23 123.586 288.148 123.669 288.113 123.752C288.078 123.87 288.265 124.024 288.346 124.036C288.428 124.047 288.51 124.012 288.591 123.976C289.454 123.61 290.596 123.16 291.459 122.805C291.622 122.734 291.844 122.639 291.844 122.793C291.844 122.923 290.095 123.941 289.174 124.438C289.081 124.485 288.976 124.568 288.976 124.675C288.976 124.888 289.174 124.935 289.267 124.935C289.361 124.935 289.442 124.888 289.524 124.852C290.387 124.414 291.296 124.012 292.159 123.574C292.24 123.539 292.508 123.479 292.59 123.657C292.695 123.87 292.427 124.036 292.357 124.107C291.879 124.509 291.401 124.947 290.923 125.361C290.865 125.408 290.795 125.468 290.771 125.539C290.748 125.61 290.783 125.716 290.865 125.716C290.923 125.716 291.016 125.716 291.296 125.562C291.995 125.148 292.625 124.604 293.29 124.13C294.001 123.621 294.84 123.326 295.376 122.651C295.866 122.047 296.612 121.61 297.207 121.077C296.845 120.793 296.099 119.598 295.749 119.314V119.29Z" fill="#FC927A"/>
<path d="M282.995 96.4258L283.462 97.8459L283.077 97.7867L282.529 108.911L280.757 110.591L279.439 108.686L282.272 97.6329L281.794 97.5027L282.995 96.4258Z" fill="#2E3551"/>
<path d="M288.72 94.769C288.72 94.769 283.287 96.9111 284.5 113.349C284.5 113.349 286.913 99.775 292.346 96.0945C292.346 96.0945 290.76 95.0176 288.72 94.769Z" fill="#222741"/>
<path d="M281.096 94.9346C281.096 94.9346 276.875 99.1121 277.482 111.668C277.482 111.668 275.896 104.094 277.178 97.0411C277.178 97.0411 278.379 95.5026 281.096 94.9346Z" fill="#222741"/>
<path d="M278.985 84.2602C278.985 84.2602 278.309 80.4377 285.899 82.13C285.899 82.13 291.576 81.0413 288.149 88.3076H287.904C287.904 88.3076 288.149 86.8874 287.414 86.9466C286.54 87.278 286.435 88.8283 286.435 88.8283L285.957 88.8993C286.61 84.2957 284.838 85.1005 284.838 85.1005C281.41 86.6389 280.361 85.9407 279.941 85.6922C279.58 85.562 279.125 85.0768 278.997 84.2602H278.985Z" fill="#963838"/>
<path d="M293.441 97.3727L305.916 110.485C305.916 110.485 307.524 111.609 306.825 112.935C306.125 114.26 296.472 122.426 296.472 122.426L294.712 119.822L301.101 112.213L292.054 104.864L293.464 97.3608L293.441 97.3727Z" fill="#2E3551"/>
<path d="M193.424 95.3145H152.76C152.258 95.3145 151.851 95.7277 151.851 96.2375V100.652C151.851 101.162 152.258 101.575 152.76 101.575H193.424C193.927 101.575 194.334 101.162 194.334 100.652V96.2375C194.334 95.7277 193.927 95.3145 193.424 95.3145Z" fill="#F2BA3D"/>
<path d="M175.435 95.3018H157.621V101.538H175.435V95.3018Z" fill="#E89C23"/>
<path d="M191.43 95.3374H183.817V101.539H191.43V95.3374Z" fill="#F8D745"/>
<path d="M151.851 100.284V100.651C151.851 101.16 152.259 101.574 152.76 101.574H193.413C193.914 101.574 194.322 101.16 194.322 100.651V100.284H151.839H151.851Z" fill="#E89C23"/>
<path d="M193.424 101.574H152.76C152.258 101.574 151.851 101.987 151.851 102.497V106.911C151.851 107.421 152.258 107.834 152.76 107.834H193.424C193.927 107.834 194.334 107.421 194.334 106.911V102.497C194.334 101.987 193.927 101.574 193.424 101.574Z" fill="#F2BA3D"/>
<path d="M175.435 101.574H157.621V107.799H175.435V101.574Z" fill="#E89C23"/>
<path d="M191.43 101.597H183.817V107.798H191.43V101.597Z" fill="#F8D745"/>
<path d="M151.851 106.544V106.911C151.851 107.42 152.259 107.834 152.76 107.834H193.413C193.914 107.834 194.322 107.42 194.322 106.911V106.544H151.839H151.851Z" fill="#E89C23"/>
<path d="M193.424 107.751H152.76C152.258 107.751 151.851 108.165 151.851 108.675V113.089C151.851 113.599 152.258 114.012 152.76 114.012H193.424C193.927 114.012 194.334 113.599 194.334 113.089V108.675C194.334 108.165 193.927 107.751 193.424 107.751Z" fill="#F2BA3D"/>
<path d="M175.435 107.751H157.621V113.976H175.435V107.751Z" fill="#E89C23"/>
<path d="M191.43 107.775H183.817V113.976H191.43V107.775Z" fill="#F8D745"/>
<path d="M151.851 112.722V113.089C151.851 113.597 152.259 114.012 152.76 114.012H193.413C193.914 114.012 194.322 113.597 194.322 113.089V112.722H151.839H151.851Z" fill="#E89C23"/>
<path d="M193.424 113.929H152.76C152.258 113.929 151.851 114.342 151.851 114.852V119.266C151.851 119.776 152.258 120.19 152.76 120.19H193.424C193.927 120.19 194.334 119.776 194.334 119.266V114.852C194.334 114.342 193.927 113.929 193.424 113.929Z" fill="#F2BA3D"/>
<path d="M175.435 113.929H157.621V120.166H175.435V113.929Z" fill="#E89C23"/>
<path d="M191.43 113.965H183.817V120.166H191.43V113.965Z" fill="#F8D745"/>
<path d="M151.851 118.899V119.266C151.851 119.775 152.259 120.189 152.76 120.189H193.413C193.914 120.189 194.322 119.775 194.322 119.266V118.899H151.839H151.851Z" fill="#E89C23"/>
<path d="M193.424 120.189H152.76C152.258 120.189 151.851 120.603 151.851 121.113V125.527C151.851 126.037 152.258 126.45 152.76 126.45H193.424C193.927 126.45 194.334 126.037 194.334 125.527V121.113C194.334 120.603 193.927 120.189 193.424 120.189Z" fill="#F2BA3D"/>
<path d="M175.435 120.201H157.621V126.426H175.435V120.201Z" fill="#E89C23"/>
<path d="M191.43 120.225H183.817V126.426H191.43V120.225Z" fill="#F8D745"/>
<path d="M151.851 125.16V125.527C151.851 126.035 152.259 126.45 152.76 126.45H193.413C193.914 126.45 194.322 126.035 194.322 125.527V125.16H151.839H151.851Z" fill="#E89C23"/>
<path d="M193.424 126.379H152.76C152.258 126.379 151.851 126.792 151.851 127.302V131.716C151.851 132.226 152.258 132.639 152.76 132.639H193.424C193.927 132.639 194.334 132.226 194.334 131.716V127.302C194.334 126.792 193.927 126.379 193.424 126.379Z" fill="#F2BA3D"/>
<path d="M175.435 126.379H157.621V132.604H175.435V126.379Z" fill="#E89C23"/>
<path d="M191.43 126.402H183.817V132.604H191.43V126.402Z" fill="#F8D745"/>
<path d="M151.851 131.349V131.716C151.851 132.225 152.259 132.639 152.76 132.639H193.413C193.914 132.639 194.322 132.225 194.322 131.716V131.349H151.839H151.851Z" fill="#E89C23"/>
<path d="M193.424 132.521H152.76C152.258 132.521 151.851 132.934 151.851 133.444V137.858C151.851 138.368 152.258 138.781 152.76 138.781H193.424C193.927 138.781 194.334 138.368 194.334 137.858V133.444C194.334 132.934 193.927 132.521 193.424 132.521Z" fill="#F2BA3D"/>
<path d="M175.435 132.521H157.621V138.757H175.435V132.521Z" fill="#E89C23"/>
<path d="M191.43 132.544H183.817V138.745H191.43V132.544Z" fill="#F8D745"/>
<path d="M151.851 137.491V137.858C151.851 138.366 152.259 138.781 152.76 138.781H193.413C193.914 138.781 194.322 138.366 194.322 137.858V137.491H151.839H151.851Z" fill="#E89C23"/>
<path d="M193.424 138.781H152.76C152.258 138.781 151.851 139.195 151.851 139.704V144.119C151.851 144.628 152.258 145.042 152.76 145.042H193.424C193.927 145.042 194.334 144.628 194.334 144.119V139.704C194.334 139.195 193.927 138.781 193.424 138.781Z" fill="#F2BA3D"/>
<path d="M175.435 138.781H157.621V145.006H175.435V138.781Z" fill="#E89C23"/>
<path d="M191.43 138.805H183.817V145.006H191.43V138.805Z" fill="#F8D745"/>
<path d="M151.851 143.751V144.118C151.851 144.627 152.259 145.041 152.76 145.041H193.413C193.914 145.041 194.322 144.627 194.322 144.118V143.751H151.839H151.851Z" fill="#E89C23"/>
<path d="M193.424 144.958H152.76C152.258 144.958 151.851 145.372 151.851 145.882V150.296C151.851 150.806 152.258 151.219 152.76 151.219H193.424C193.927 151.219 194.334 150.806 194.334 150.296V145.882C194.334 145.372 193.927 144.958 193.424 144.958Z" fill="#F2BA3D"/>
<path d="M175.435 144.97H157.621V151.195H175.435V144.97Z" fill="#E89C23"/>
<path d="M191.43 144.994H183.817V151.195H191.43V144.994Z" fill="#F8D745"/>
<path d="M151.851 149.929V150.296C151.851 150.804 152.259 151.219 152.76 151.219H193.413C193.914 151.219 194.322 150.804 194.322 150.296V149.929H151.839H151.851Z" fill="#E89C23"/>
<path d="M193.424 151.148H152.76C152.258 151.148 151.851 151.561 151.851 152.071V156.485C151.851 156.995 152.258 157.408 152.76 157.408H193.424C193.927 157.408 194.334 156.995 194.334 156.485V152.071C194.334 151.561 193.927 151.148 193.424 151.148Z" fill="#F2BA3D"/>
<path d="M175.435 151.148H157.621V157.385H175.435V151.148Z" fill="#E89C23"/>
<path d="M191.43 151.171H183.817V157.373H191.43V151.171Z" fill="#F8D745"/>
<path d="M151.851 156.118V156.485C151.851 156.994 152.259 157.408 152.76 157.408H193.413C193.914 157.408 194.322 156.994 194.322 156.485V156.118H151.839H151.851Z" fill="#E89C23"/>
<path d="M193.424 157.408H152.76C152.258 157.408 151.851 157.821 151.851 158.331V162.745C151.851 163.255 152.258 163.669 152.76 163.669H193.424C193.927 163.669 194.334 163.255 194.334 162.745V158.331C194.334 157.821 193.927 157.408 193.424 157.408Z" fill="#F2BA3D"/>
<path d="M175.435 157.408H157.621V163.633H175.435V157.408Z" fill="#E89C23"/>
<path d="M191.43 157.432H183.817V163.633H191.43V157.432Z" fill="#F8D745"/>
<path d="M151.851 162.378V162.745C151.851 163.254 152.259 163.668 152.76 163.668H193.413C193.914 163.668 194.322 163.254 194.322 162.745V162.378H151.839H151.851Z" fill="#E89C23"/>
<path d="M193.424 163.586H152.76C152.258 163.586 151.851 163.999 151.851 164.509V168.923C151.851 169.433 152.258 169.846 152.76 169.846H193.424C193.927 169.846 194.334 169.433 194.334 168.923V164.509C194.334 163.999 193.927 163.586 193.424 163.586Z" fill="#F2BA3D"/>
<path d="M175.435 163.586H157.621V169.811H175.435V163.586Z" fill="#E89C23"/>
<path d="M191.43 163.622H183.817V169.823H191.43V163.622Z" fill="#F8D745"/>
<path d="M151.851 168.556V168.923C151.851 169.432 152.259 169.846 152.76 169.846H193.413C193.914 169.846 194.322 169.432 194.322 168.923V168.556H151.839H151.851Z" fill="#E89C23"/>
<path d="M161.48 95.3145H120.816C120.313 95.3145 119.906 95.7277 119.906 96.2375V100.652C119.906 101.162 120.313 101.575 120.816 101.575H161.48C161.982 101.575 162.389 101.162 162.389 100.652V96.2375C162.389 95.7277 161.982 95.3145 161.48 95.3145Z" fill="#F2BA3D"/>
<path d="M143.491 95.3018H125.677V101.538H143.491V95.3018Z" fill="#E89C23"/>
<path d="M159.474 95.3374H151.861V101.539H159.474V95.3374Z" fill="#F8D745"/>
<path d="M119.906 100.284V100.651C119.906 101.16 120.314 101.574 120.816 101.574H161.468C161.97 101.574 162.378 101.16 162.378 100.651V100.284H119.895H119.906Z" fill="#E89C23"/>
<path d="M161.48 101.574H120.816C120.313 101.574 119.906 101.987 119.906 102.497V106.911C119.906 107.421 120.313 107.834 120.816 107.834H161.48C161.982 107.834 162.389 107.421 162.389 106.911V102.497C162.389 101.987 161.982 101.574 161.48 101.574Z" fill="#F2BA3D"/>
<path d="M143.491 101.574H125.677V107.799H143.491V101.574Z" fill="#E89C23"/>
<path d="M159.474 101.597H151.861V107.798H159.474V101.597Z" fill="#F8D745"/>
<path d="M119.906 106.544V106.911C119.906 107.42 120.314 107.834 120.816 107.834H161.468C161.97 107.834 162.378 107.42 162.378 106.911V106.544H119.895H119.906Z" fill="#E89C23"/>
<path d="M161.48 107.751H120.816C120.313 107.751 119.906 108.165 119.906 108.675V113.089C119.906 113.599 120.313 114.012 120.816 114.012H161.48C161.982 114.012 162.389 113.599 162.389 113.089V108.675C162.389 108.165 161.982 107.751 161.48 107.751Z" fill="#F2BA3D"/>
<path d="M143.491 107.751H125.677V113.976H143.491V107.751Z" fill="#E89C23"/>
<path d="M159.474 107.775H151.861V113.976H159.474V107.775Z" fill="#F8D745"/>
<path d="M119.906 112.722V113.089C119.906 113.597 120.314 114.012 120.816 114.012H161.468C161.97 114.012 162.378 113.597 162.378 113.089V112.722H119.895H119.906Z" fill="#E89C23"/>
<path d="M161.48 113.929H120.816C120.313 113.929 119.906 114.342 119.906 114.852V119.266C119.906 119.776 120.313 120.19 120.816 120.19H161.48C161.982 120.19 162.389 119.776 162.389 119.266V114.852C162.389 114.342 161.982 113.929 161.48 113.929Z" fill="#F2BA3D"/>
<path d="M143.491 113.929H125.677V120.166H143.491V113.929Z" fill="#E89C23"/>
<path d="M159.474 113.965H151.861V120.166H159.474V113.965Z" fill="#F8D745"/>
<path d="M119.906 118.899V119.266C119.906 119.775 120.314 120.189 120.816 120.189H161.468C161.97 120.189 162.378 119.775 162.378 119.266V118.899H119.895H119.906Z" fill="#E89C23"/>
<path d="M161.48 120.189H120.816C120.313 120.189 119.906 120.603 119.906 121.113V125.527C119.906 126.037 120.313 126.45 120.816 126.45H161.48C161.982 126.45 162.389 126.037 162.389 125.527V121.113C162.389 120.603 161.982 120.189 161.48 120.189Z" fill="#F2BA3D"/>
<path d="M143.491 120.201H125.677V126.426H143.491V120.201Z" fill="#E89C23"/>
<path d="M159.474 120.225H151.861V126.426H159.474V120.225Z" fill="#F8D745"/>
<path d="M119.906 125.16V125.527C119.906 126.035 120.314 126.45 120.816 126.45H161.468C161.97 126.45 162.378 126.035 162.378 125.527V125.16H119.895H119.906Z" fill="#E89C23"/>
<path d="M161.48 126.379H120.816C120.313 126.379 119.906 126.792 119.906 127.302V131.716C119.906 132.226 120.313 132.639 120.816 132.639H161.48C161.982 132.639 162.389 132.226 162.389 131.716V127.302C162.389 126.792 161.982 126.379 161.48 126.379Z" fill="#F2BA3D"/>
<path d="M143.491 126.379H125.677V132.604H143.491V126.379Z" fill="#E89C23"/>
<path d="M159.474 126.402H151.861V132.604H159.474V126.402Z" fill="#F8D745"/>
<path d="M119.906 131.349V131.716C119.906 132.225 120.314 132.639 120.816 132.639H161.468C161.97 132.639 162.378 132.225 162.378 131.716V131.349H119.895H119.906Z" fill="#E89C23"/>
<path d="M161.48 132.521H120.816C120.313 132.521 119.906 132.934 119.906 133.444V137.858C119.906 138.368 120.313 138.781 120.816 138.781H161.48C161.982 138.781 162.389 138.368 162.389 137.858V133.444C162.389 132.934 161.982 132.521 161.48 132.521Z" fill="#F2BA3D"/>
<path d="M143.491 132.521H125.677V138.757H143.491V132.521Z" fill="#E89C23"/>
<path d="M159.474 132.544H151.861V138.745H159.474V132.544Z" fill="#F8D745"/>
<path d="M119.906 137.491V137.858C119.906 138.366 120.314 138.781 120.816 138.781H161.468C161.97 138.781 162.378 138.366 162.378 137.858V137.491H119.895H119.906Z" fill="#E89C23"/>
<path d="M161.48 138.781H120.816C120.313 138.781 119.906 139.195 119.906 139.704V144.119C119.906 144.628 120.313 145.042 120.816 145.042H161.48C161.982 145.042 162.389 144.628 162.389 144.119V139.704C162.389 139.195 161.982 138.781 161.48 138.781Z" fill="#F2BA3D"/>
<path d="M143.491 138.781H125.677V145.006H143.491V138.781Z" fill="#E89C23"/>
<path d="M159.474 138.805H151.861V145.006H159.474V138.805Z" fill="#F8D745"/>
<path d="M119.906 143.751V144.118C119.906 144.627 120.314 145.041 120.816 145.041H161.468C161.97 145.041 162.378 144.627 162.378 144.118V143.751H119.895H119.906Z" fill="#E89C23"/>
<path d="M161.48 144.958H120.816C120.313 144.958 119.906 145.372 119.906 145.882V150.296C119.906 150.806 120.313 151.219 120.816 151.219H161.48C161.982 151.219 162.389 150.806 162.389 150.296V145.882C162.389 145.372 161.982 144.958 161.48 144.958Z" fill="#F2BA3D"/>
<path d="M143.491 144.97H125.677V151.195H143.491V144.97Z" fill="#E89C23"/>
<path d="M159.474 144.994H151.861V151.195H159.474V144.994Z" fill="#F8D745"/>
<path d="M119.906 149.929V150.296C119.906 150.804 120.314 151.219 120.816 151.219H161.468C161.97 151.219 162.378 150.804 162.378 150.296V149.929H119.895H119.906Z" fill="#E89C23"/>
<path d="M161.48 151.148H120.816C120.313 151.148 119.906 151.561 119.906 152.071V156.485C119.906 156.995 120.313 157.408 120.816 157.408H161.48C161.982 157.408 162.389 156.995 162.389 156.485V152.071C162.389 151.561 161.982 151.148 161.48 151.148Z" fill="#F2BA3D"/>
<path d="M143.491 151.148H125.677V157.385H143.491V151.148Z" fill="#E89C23"/>
<path d="M159.474 151.171H151.861V157.373H159.474V151.171Z" fill="#F8D745"/>
<path d="M119.906 156.118V156.485C119.906 156.994 120.314 157.408 120.816 157.408H161.468C161.97 157.408 162.378 156.994 162.378 156.485V156.118H119.895H119.906Z" fill="#E89C23"/>
<path d="M161.48 157.408H120.816C120.313 157.408 119.906 157.821 119.906 158.331V162.745C119.906 163.255 120.313 163.669 120.816 163.669H161.48C161.982 163.669 162.389 163.255 162.389 162.745V158.331C162.389 157.821 161.982 157.408 161.48 157.408Z" fill="#F2BA3D"/>
<path d="M143.491 157.408H125.677V163.633H143.491V157.408Z" fill="#E89C23"/>
<path d="M159.474 157.432H151.861V163.633H159.474V157.432Z" fill="#F8D745"/>
<path d="M119.906 162.378V162.745C119.906 163.254 120.314 163.668 120.816 163.668H161.468C161.97 163.668 162.378 163.254 162.378 162.745V162.378H119.895H119.906Z" fill="#E89C23"/>
<path d="M161.48 163.586H120.816C120.313 163.586 119.906 163.999 119.906 164.509V168.923C119.906 169.433 120.313 169.846 120.816 169.846H161.48C161.982 169.846 162.389 169.433 162.389 168.923V164.509C162.389 163.999 161.982 163.586 161.48 163.586Z" fill="#F2BA3D"/>
<path d="M143.491 163.586H125.677V169.811H143.491V163.586Z" fill="#E89C23"/>
<path d="M159.474 163.622H151.861V169.823H159.474V163.622Z" fill="#F8D745"/>
<path d="M119.906 168.556V168.923C119.906 169.432 120.314 169.846 120.816 169.846H161.468C161.97 169.846 162.378 169.432 162.378 168.923V168.556H119.895H119.906Z" fill="#E89C23"/>
<path d="M241.55 132.521H200.886C200.384 132.521 199.977 132.934 199.977 133.444V137.858C199.977 138.368 200.384 138.781 200.886 138.781H241.55C242.053 138.781 242.46 138.368 242.46 137.858V133.444C242.46 132.934 242.053 132.521 241.55 132.521Z" fill="#F2BA3D"/>
<path d="M223.561 132.521H205.747V138.758H223.561V132.521Z" fill="#E89C23"/>
<path d="M239.545 132.544H231.932V138.746H239.545V132.544Z" fill="#F8D745"/>
<path d="M199.976 137.491V137.858C199.976 138.367 200.385 138.781 200.886 138.781H241.539C242.04 138.781 242.448 138.367 242.448 137.858V137.491H199.965H199.976Z" fill="#E89C23"/>
<path d="M241.55 138.781H200.886C200.384 138.781 199.977 139.195 199.977 139.704V144.119C199.977 144.628 200.384 145.042 200.886 145.042H241.55C242.053 145.042 242.46 144.628 242.46 144.119V139.704C242.46 139.195 242.053 138.781 241.55 138.781Z" fill="#F2BA3D"/>
<path d="M223.561 138.781H205.747V145.006H223.561V138.781Z" fill="#E89C23"/>
<path d="M239.545 138.805H231.932V145.006H239.545V138.805Z" fill="#F8D745"/>
<path d="M199.976 143.751V144.118C199.976 144.627 200.385 145.041 200.886 145.041H241.539C242.04 145.041 242.448 144.627 242.448 144.118V143.751H199.965H199.976Z" fill="#E89C23"/>
<path d="M241.55 144.959H200.886C200.384 144.959 199.977 145.372 199.977 145.882V150.296C199.977 150.806 200.384 151.219 200.886 151.219H241.55C242.053 151.219 242.46 150.806 242.46 150.296V145.882C242.46 145.372 242.053 144.959 241.55 144.959Z" fill="#F2BA3D"/>
<path d="M223.561 144.971H205.747V151.196H223.561V144.971Z" fill="#E89C23"/>
<path d="M239.545 144.995H231.932V151.196H239.545V144.995Z" fill="#F8D745"/>
<path d="M199.976 149.929V150.296C199.976 150.805 200.385 151.219 200.886 151.219H241.539C242.04 151.219 242.448 150.805 242.448 150.296V149.929H199.965H199.976Z" fill="#E89C23"/>
<path d="M241.55 151.148H200.886C200.384 151.148 199.977 151.562 199.977 152.072V156.486C199.977 156.996 200.384 157.409 200.886 157.409H241.55C242.053 157.409 242.46 156.996 242.46 156.486V152.072C242.46 151.562 242.053 151.148 241.55 151.148Z" fill="#F2BA3D"/>
<path d="M223.561 151.148H205.747V157.385H223.561V151.148Z" fill="#E89C23"/>
<path d="M239.545 151.172H231.932V157.373H239.545V151.172Z" fill="#F8D745"/>
<path d="M199.976 156.119V156.486C199.976 156.994 200.385 157.409 200.886 157.409H241.539C242.04 157.409 242.448 156.994 242.448 156.486V156.119H199.965H199.976Z" fill="#E89C23"/>
<path d="M241.55 157.409H200.886C200.384 157.409 199.977 157.822 199.977 158.332V162.746C199.977 163.256 200.384 163.669 200.886 163.669H241.55C242.053 163.669 242.46 163.256 242.46 162.746V158.332C242.46 157.822 242.053 157.409 241.55 157.409Z" fill="#F2BA3D"/>
<path d="M223.561 157.409H205.747V163.634H223.561V157.409Z" fill="#E89C23"/>
<path d="M239.545 157.432H231.932V163.633H239.545V157.432Z" fill="#F8D745"/>
<path d="M199.976 162.379V162.746C199.976 163.255 200.385 163.669 200.886 163.669H241.539C242.04 163.669 242.448 163.255 242.448 162.746V162.379H199.965H199.976Z" fill="#E89C23"/>
<path d="M241.55 163.586H200.886C200.384 163.586 199.977 163.999 199.977 164.509V168.923C199.977 169.433 200.384 169.846 200.886 169.846H241.55C242.053 169.846 242.46 169.433 242.46 168.923V164.509C242.46 163.999 242.053 163.586 241.55 163.586Z" fill="#F2BA3D"/>
<path d="M223.561 163.586H205.747V169.811H223.561V163.586Z" fill="#E89C23"/>
<path d="M239.545 163.622H231.932V169.823H239.545V163.622Z" fill="#F8D745"/>
<path d="M199.976 168.556V168.923C199.976 169.432 200.385 169.846 200.886 169.846H241.539C242.04 169.846 242.448 169.432 242.448 168.923V168.556H199.965H199.976Z" fill="#E89C23"/>
<path d="M242.093 114.642C243.952 102.95 236.123 91.9423 224.605 90.055C213.087 88.1676 202.242 96.1156 200.383 107.807C198.524 119.499 206.354 130.507 217.872 132.394C229.39 134.282 240.234 126.334 242.093 114.642Z" fill="#F2BA3D"/>
<path d="M209.687 129.172C212.998 131.373 216.951 132.651 221.206 132.651C232.876 132.651 242.331 123.054 242.331 111.208C242.331 109.728 242.179 108.296 241.9 106.9C236.782 110.356 217.86 123.492 209.676 129.16L209.687 129.172Z" fill="#F8D745"/>
<path d="M221.218 129.385C211.343 129.385 203.311 121.231 203.311 111.207C203.311 101.184 211.343 93.0298 221.218 93.0298C231.092 93.0298 239.125 101.184 239.125 111.207C239.125 121.231 231.092 129.385 221.218 129.385ZM221.218 94.3671C212.066 94.3671 204.628 101.929 204.628 111.207C204.628 120.485 212.066 128.048 221.218 128.048C230.37 128.048 237.808 120.497 237.808 111.207C237.808 101.917 230.358 94.3671 221.218 94.3671Z" fill="#E89C23"/>
<path d="M221.276 120.592C221.16 120.592 221.043 120.592 220.926 120.592C218.443 120.45 216.659 119.361 215.622 117.338C215.377 116.864 215.563 116.273 216.03 116.024C216.496 115.775 217.079 115.965 217.324 116.438C218.047 117.846 219.224 118.545 221.031 118.651C222.104 118.71 223.223 118.367 224.086 117.716C224.809 117.16 225.45 115.965 225.205 114.841C224.914 113.515 223.643 112.959 223.246 112.829C222.652 112.616 222.011 112.521 221.323 112.415C220.833 112.344 220.32 112.261 219.795 112.13C218.839 111.894 216.519 111.16 215.668 109.385C214.806 107.586 215.237 105.219 216.718 103.633C218.047 102.201 220.273 101.562 222.384 101.988C224.319 102.379 225.8 103.586 226.441 105.314C226.627 105.823 226.382 106.379 225.881 106.568C225.392 106.758 224.832 106.509 224.645 106C224.086 104.521 222.757 104.048 221.999 103.894C220.542 103.598 218.968 104.024 218.105 104.971C217.312 105.823 216.811 107.326 217.394 108.533C217.802 109.373 219.189 109.977 220.25 110.237C220.682 110.344 221.136 110.415 221.603 110.486C222.349 110.592 223.106 110.71 223.876 110.994C225.531 111.586 226.732 112.876 227.059 114.426C227.432 116.166 226.674 118.166 225.217 119.278C224.086 120.142 222.663 120.616 221.241 120.616L221.276 120.592Z" fill="#E89C23"/>
<path d="M221.3 99.1362H221.125C220.816 99.1362 220.565 99.3906 220.565 99.7043V122.722C220.565 123.036 220.816 123.29 221.125 123.29H221.3C221.609 123.29 221.86 123.036 221.86 122.722V99.7043C221.86 99.3906 221.609 99.1362 221.3 99.1362Z" fill="#E89C23"/>
<path d="M132.882 122.533H68.1201V146.178H132.882V122.533Z" fill="#5AB784"/>
<path d="M130.621 125.278H70.382C70.1955 125.278 70.0439 125.124 70.0439 124.935C70.0439 124.746 70.1955 124.592 70.382 124.592H130.621C130.807 124.592 130.959 124.746 130.959 124.935C130.959 125.124 130.807 125.278 130.621 125.278Z" fill="#3B9367"/>
<path d="M130.621 126.994H70.382C70.1955 126.994 70.0439 126.84 70.0439 126.651C70.0439 126.461 70.1955 126.308 70.382 126.308H130.621C130.807 126.308 130.959 126.461 130.959 126.651C130.959 126.84 130.807 126.994 130.621 126.994Z" fill="#3B9367"/>
<path d="M130.621 128.698H70.382C70.1955 128.698 70.0439 128.544 70.0439 128.355C70.0439 128.166 70.1955 128.012 70.382 128.012H130.621C130.807 128.012 130.959 128.166 130.959 128.355C130.959 128.544 130.807 128.698 130.621 128.698Z" fill="#3B9367"/>
<path d="M130.621 130.414H70.382C70.1955 130.414 70.0439 130.261 70.0439 130.071C70.0439 129.882 70.1955 129.728 70.382 129.728H130.621C130.807 129.728 130.959 129.882 130.959 130.071C130.959 130.261 130.807 130.414 130.621 130.414Z" fill="#3B9367"/>
<path d="M130.621 132.13H70.382C70.1955 132.13 70.0439 131.976 70.0439 131.787C70.0439 131.598 70.1955 131.444 70.382 131.444H130.621C130.807 131.444 130.959 131.598 130.959 131.787C130.959 131.976 130.807 132.13 130.621 132.13Z" fill="#3B9367"/>
<path d="M130.621 133.834H70.382C70.1955 133.834 70.0439 133.681 70.0439 133.491C70.0439 133.302 70.1955 133.148 70.382 133.148H130.621C130.807 133.148 130.959 133.302 130.959 133.491C130.959 133.681 130.807 133.834 130.621 133.834Z" fill="#3B9367"/>
<path d="M130.621 135.55H70.382C70.1955 135.55 70.0439 135.396 70.0439 135.207C70.0439 135.018 70.1955 134.864 70.382 134.864H130.621C130.807 134.864 130.959 135.018 130.959 135.207C130.959 135.396 130.807 135.55 130.621 135.55Z" fill="#3B9367"/>
<path d="M130.621 137.266H70.382C70.1955 137.266 70.0439 137.113 70.0439 136.923C70.0439 136.734 70.1955 136.58 70.382 136.58H130.621C130.807 136.58 130.959 136.734 130.959 136.923C130.959 137.113 130.807 137.266 130.621 137.266Z" fill="#3B9367"/>
<path d="M130.621 138.982H70.382C70.1955 138.982 70.0439 138.828 70.0439 138.639C70.0439 138.45 70.1955 138.296 70.382 138.296H130.621C130.807 138.296 130.959 138.45 130.959 138.639C130.959 138.828 130.807 138.982 130.621 138.982Z" fill="#3B9367"/>
<path d="M130.621 140.686H70.382C70.1955 140.686 70.0439 140.533 70.0439 140.343C70.0439 140.154 70.1955 140 70.382 140H130.621C130.807 140 130.959 140.154 130.959 140.343C130.959 140.533 130.807 140.686 130.621 140.686Z" fill="#3B9367"/>
<path d="M130.621 142.402H70.382C70.1955 142.402 70.0439 142.248 70.0439 142.059C70.0439 141.87 70.1955 141.716 70.382 141.716H130.621C130.807 141.716 130.959 141.87 130.959 142.059C130.959 142.248 130.807 142.402 130.621 142.402Z" fill="#3B9367"/>
<path d="M130.621 144.119H70.382C70.1955 144.119 70.0439 143.965 70.0439 143.775C70.0439 143.586 70.1955 143.432 70.382 143.432H130.621C130.807 143.432 130.959 143.586 130.959 143.775C130.959 143.965 130.807 144.119 130.621 144.119Z" fill="#3B9367"/>
<path d="M106.709 122.509H94.293V146.213H106.709V122.509Z" fill="#FFD892"/>
<path d="M106.732 140.71H94.2812V146.213H106.732V140.71Z" fill="#F7C87C"/>
<path d="M130.189 146.166H65.4268V169.81H130.189V146.166Z" fill="#3B9367"/>
<path d="M98.9209 164.343H86.4697V169.846H98.9209V164.343Z" fill="#F7C87C"/>
<path d="M105.357 146.167H64.1445V169.811H105.357V146.167Z" fill="#5AB784"/>
<path d="M103.095 148.911H66.4065C66.2199 148.911 66.0684 148.758 66.0684 148.568C66.0684 148.379 66.2199 148.225 66.4065 148.225H103.095C103.282 148.225 103.433 148.379 103.433 148.568C103.433 148.758 103.282 148.911 103.095 148.911Z" fill="#3B9367"/>
<path d="M103.095 150.627H66.4065C66.2199 150.627 66.0684 150.473 66.0684 150.284C66.0684 150.095 66.2199 149.941 66.4065 149.941H103.095C103.282 149.941 103.433 150.095 103.433 150.284C103.433 150.473 103.282 150.627 103.095 150.627Z" fill="#3B9367"/>
<path d="M103.095 152.344H66.4065C66.2199 152.344 66.0684 152.19 66.0684 152C66.0684 151.811 66.2199 151.657 66.4065 151.657H103.095C103.282 151.657 103.433 151.811 103.433 152C103.433 152.19 103.282 152.344 103.095 152.344Z" fill="#3B9367"/>
<path d="M103.095 154.048H66.4065C66.2199 154.048 66.0684 153.894 66.0684 153.705C66.0684 153.515 66.2199 153.361 66.4065 153.361H103.095C103.282 153.361 103.433 153.515 103.433 153.705C103.433 153.894 103.282 154.048 103.095 154.048Z" fill="#3B9367"/>
<path d="M103.095 155.764H66.4065C66.2199 155.764 66.0684 155.61 66.0684 155.42C66.0684 155.231 66.2199 155.077 66.4065 155.077H103.095C103.282 155.077 103.433 155.231 103.433 155.42C103.433 155.61 103.282 155.764 103.095 155.764Z" fill="#3B9367"/>
<path d="M103.095 157.479H66.4065C66.2199 157.479 66.0684 157.326 66.0684 157.136C66.0684 156.947 66.2199 156.793 66.4065 156.793H103.095C103.282 156.793 103.433 156.947 103.433 157.136C103.433 157.326 103.282 157.479 103.095 157.479Z" fill="#3B9367"/>
<path d="M103.095 159.183H66.4065C66.2199 159.183 66.0684 159.03 66.0684 158.84C66.0684 158.651 66.2199 158.497 66.4065 158.497H103.095C103.282 158.497 103.433 158.651 103.433 158.84C103.433 159.03 103.282 159.183 103.095 159.183Z" fill="#3B9367"/>
<path d="M103.095 160.9H66.4065C66.2199 160.9 66.0684 160.746 66.0684 160.557C66.0684 160.367 66.2199 160.213 66.4065 160.213H103.095C103.282 160.213 103.433 160.367 103.433 160.557C103.433 160.746 103.282 160.9 103.095 160.9Z" fill="#3B9367"/>
<path d="M103.095 162.616H66.4065C66.2199 162.616 66.0684 162.462 66.0684 162.272C66.0684 162.083 66.2199 161.929 66.4065 161.929H103.095C103.282 161.929 103.433 162.083 103.433 162.272C103.433 162.462 103.282 162.616 103.095 162.616Z" fill="#3B9367"/>
<path d="M103.095 164.331H66.4065C66.2199 164.331 66.0684 164.178 66.0684 163.988C66.0684 163.799 66.2199 163.645 66.4065 163.645H103.095C103.282 163.645 103.433 163.799 103.433 163.988C103.433 164.178 103.282 164.331 103.095 164.331Z" fill="#3B9367"/>
<path d="M103.095 166.036H66.4065C66.2199 166.036 66.0684 165.882 66.0684 165.692C66.0684 165.503 66.2199 165.349 66.4065 165.349H103.095C103.282 165.349 103.433 165.503 103.433 165.692C103.433 165.882 103.282 166.036 103.095 166.036Z" fill="#3B9367"/>
<path d="M103.095 167.752H66.4065C66.2199 167.752 66.0684 167.598 66.0684 167.409C66.0684 167.219 66.2199 167.065 66.4065 167.065H103.095C103.282 167.065 103.433 167.219 103.433 167.409C103.433 167.598 103.282 167.752 103.095 167.752Z" fill="#3B9367"/>
<path d="M90.4455 146.142H78.0293V169.846H90.4455V146.142Z" fill="#FFD892"/>
<path d="M90.4804 164.343H78.0293V169.846H90.4804V164.343Z" fill="#F7C87C"/>
<path d="M128.685 98.8994H63.9229V122.544H128.685V98.8994Z" fill="#3B9367"/>
<path d="M97.417 117.077H84.9658V122.58H97.417V117.077Z" fill="#F7C87C"/>
<path d="M103.853 98.9004H62.6406V122.545H103.853V98.9004Z" fill="#5AB784"/>
<path d="M101.591 101.645H64.9025C64.716 101.645 64.5645 101.492 64.5645 101.302C64.5645 101.113 64.716 100.959 64.9025 100.959H101.591C101.778 100.959 101.93 101.113 101.93 101.302C101.93 101.492 101.778 101.645 101.591 101.645Z" fill="#3B9367"/>
<path d="M101.591 103.361H64.9025C64.716 103.361 64.5645 103.207 64.5645 103.018C64.5645 102.829 64.716 102.675 64.9025 102.675H101.591C101.778 102.675 101.93 102.829 101.93 103.018C101.93 103.207 101.778 103.361 101.591 103.361Z" fill="#3B9367"/>
<path d="M101.591 105.077H64.9025C64.716 105.077 64.5645 104.924 64.5645 104.734C64.5645 104.545 64.716 104.391 64.9025 104.391H101.591C101.778 104.391 101.93 104.545 101.93 104.734C101.93 104.924 101.778 105.077 101.591 105.077Z" fill="#3B9367"/>
<path d="M101.591 106.782H64.9025C64.716 106.782 64.5645 106.628 64.5645 106.438C64.5645 106.249 64.716 106.095 64.9025 106.095H101.591C101.778 106.095 101.93 106.249 101.93 106.438C101.93 106.628 101.778 106.782 101.591 106.782Z" fill="#3B9367"/>
<path d="M101.591 108.497H64.9025C64.716 108.497 64.5645 108.344 64.5645 108.154C64.5645 107.965 64.716 107.811 64.9025 107.811H101.591C101.778 107.811 101.93 107.965 101.93 108.154C101.93 108.344 101.778 108.497 101.591 108.497Z" fill="#3B9367"/>
<path d="M101.591 110.213H64.9025C64.716 110.213 64.5645 110.059 64.5645 109.87C64.5645 109.681 64.716 109.527 64.9025 109.527H101.591C101.778 109.527 101.93 109.681 101.93 109.87C101.93 110.059 101.778 110.213 101.591 110.213Z" fill="#3B9367"/>
<path d="M101.591 111.917H64.9025C64.716 111.917 64.5645 111.764 64.5645 111.574C64.5645 111.385 64.716 111.231 64.9025 111.231H101.591C101.778 111.231 101.93 111.385 101.93 111.574C101.93 111.764 101.778 111.917 101.591 111.917Z" fill="#3B9367"/>
<path d="M101.591 113.634H64.9025C64.716 113.634 64.5645 113.48 64.5645 113.29C64.5645 113.101 64.716 112.947 64.9025 112.947H101.591C101.778 112.947 101.93 113.101 101.93 113.29C101.93 113.48 101.778 113.634 101.591 113.634Z" fill="#3B9367"/>
<path d="M101.591 115.349H64.9025C64.716 115.349 64.5645 115.196 64.5645 115.006C64.5645 114.817 64.716 114.663 64.9025 114.663H101.591C101.778 114.663 101.93 114.817 101.93 115.006C101.93 115.196 101.778 115.349 101.591 115.349Z" fill="#3B9367"/>
<path d="M101.591 117.065H64.9025C64.716 117.065 64.5645 116.911 64.5645 116.722C64.5645 116.533 64.716 116.379 64.9025 116.379H101.591C101.778 116.379 101.93 116.533 101.93 116.722C101.93 116.911 101.778 117.065 101.591 117.065Z" fill="#3B9367"/>
<path d="M101.591 118.769H64.9025C64.716 118.769 64.5645 118.616 64.5645 118.426C64.5645 118.237 64.716 118.083 64.9025 118.083H101.591C101.778 118.083 101.93 118.237 101.93 118.426C101.93 118.616 101.778 118.769 101.591 118.769Z" fill="#3B9367"/>
<path d="M101.591 120.486H64.9025C64.716 120.486 64.5645 120.332 64.5645 120.143C64.5645 119.953 64.716 119.799 64.9025 119.799H101.591C101.778 119.799 101.93 119.953 101.93 120.143C101.93 120.332 101.778 120.486 101.591 120.486Z" fill="#3B9367"/>
<path d="M88.9416 98.876H76.5254V122.58H88.9416V98.876Z" fill="#FFD892"/>
<path d="M88.9765 117.077H76.5254V122.58H88.9765V117.077Z" fill="#F7C87C"/>
<path d="M139.784 66.1304H80.21V98.9706H139.784V66.1304Z" fill="#5AB784"/>
<path d="M138.432 67.9766H81.5625V97.231H138.432V67.9766Z" fill="#A1DBA5"/>
<path d="M89.2222 67.5977C89.2222 67.5977 89.4554 74.6864 81.4111 75.5267V67.5977H89.2222Z" fill="#5AB784"/>
<path d="M130.773 67.5977C130.773 67.5977 130.54 74.6864 138.584 75.5267V67.5977H130.773Z" fill="#5AB784"/>
<path d="M89.2222 97.491C89.2222 97.491 89.4554 90.4022 81.4111 89.562V97.491H89.2222Z" fill="#5AB784"/>
<path d="M130.773 97.491C130.773 97.491 130.54 90.4022 138.584 89.562V97.491H130.773Z" fill="#5AB784"/>
<path d="M109.997 93.5743C115.998 93.5743 120.863 88.6362 120.863 82.5447C120.863 76.4533 115.998 71.5151 109.997 71.5151C103.997 71.5151 99.1318 76.4533 99.1318 82.5447C99.1318 88.6362 103.997 93.5743 109.997 93.5743Z" fill="white"/>
<path d="M110.044 89.4678C109.963 89.4678 109.87 89.4678 109.788 89.4678C107.958 89.3613 106.64 88.5566 105.871 87.0654C105.696 86.7104 105.824 86.2844 106.174 86.095C106.524 85.9175 106.943 86.0477 107.13 86.4027C107.666 87.4441 108.529 87.9648 109.87 88.0359C110.662 88.0832 111.49 87.8228 112.12 87.3376C112.656 86.9353 113.122 86.0477 112.947 85.2193C112.738 84.2489 111.793 83.8347 111.502 83.7282C111.059 83.5743 110.592 83.5033 110.091 83.4205C109.73 83.3613 109.345 83.314 108.972 83.2193C108.261 83.0418 106.559 82.4974 105.929 81.1956C105.288 79.8702 105.603 78.1187 106.699 76.9471C107.678 75.8938 109.322 75.4205 110.884 75.74C112.318 76.024 113.402 76.9234 113.88 78.1897C114.02 78.5566 113.833 78.9708 113.472 79.1128C113.111 79.2548 112.703 79.0654 112.563 78.6986C112.155 77.6098 111.164 77.2548 110.616 77.1483C109.543 76.9353 108.389 77.2429 107.736 77.9412C107.153 78.5684 106.78 79.669 107.212 80.5684C107.515 81.1838 108.529 81.6335 109.31 81.8228C109.625 81.9057 109.963 81.953 110.313 82.0003C110.861 82.0832 111.42 82.166 111.991 82.3672C113.216 82.8051 114.09 83.7518 114.346 84.8998C114.626 86.1897 114.067 87.6571 112.982 88.4737C112.155 89.1128 111.094 89.456 110.056 89.456L110.044 89.4678Z" fill="#A1DBA5"/>
<path d="M110.067 73.6333H109.928C109.702 73.6333 109.52 73.8188 109.52 74.0475V91.0298C109.52 91.2585 109.702 91.444 109.928 91.444H110.067C110.293 91.444 110.476 91.2585 110.476 91.0298V74.0475C110.476 73.8188 110.293 73.6333 110.067 73.6333Z" fill="#A1DBA5"/>
<path d="M90.7375 85.5624C92.3794 85.5624 93.7104 84.2113 93.7104 82.5446C93.7104 80.878 92.3794 79.5269 90.7375 79.5269C89.0957 79.5269 87.7646 80.878 87.7646 82.5446C87.7646 84.2113 89.0957 85.5624 90.7375 85.5624Z" fill="#5AB784"/>
<path d="M129.257 85.5624C130.899 85.5624 132.23 84.2113 132.23 82.5446C132.23 80.878 130.899 79.5269 129.257 79.5269C127.615 79.5269 126.284 80.878 126.284 82.5446C126.284 84.2113 127.615 85.5624 129.257 85.5624Z" fill="#5AB784"/>
<path d="M23.3643 95.302C23.3643 95.302 28.6805 90.8168 36.2934 95.302L26.4304 95.8464L23.3643 95.302Z" fill="#536B82"/>
<path d="M38.2403 97.2783L45.5967 105.716L57.395 104.888L57.1269 108.568L45.2936 110.201C45.2936 110.201 44.1744 110.166 43.848 109.846L38.0654 105.716L38.2403 97.2783Z" fill="#66879E"/>
<path d="M32.5393 166.947L34.9643 166.923L35.1391 162.012H32.2129L32.5393 166.947Z" fill="#F9B393"/>
<path d="M17.7324 165.195L20.1107 165.657L21.0201 162.261L18.1521 161.681L17.7324 165.195Z" fill="#F9B393"/>
<path d="M23.48 119.172C23.48 119.172 19.5512 139.989 16.9863 166.261L20.309 165.941L30.172 131.87L31.4893 167.006H35.0452C35.0452 167.006 39.8018 120.71 37.6333 118.509L23.48 119.172Z" fill="#3E5766"/>
<path d="M31.4785 166.651C31.4785 166.651 30.1611 135.089 30.1611 131.87L32.2363 125.882L32.1664 127.917L33.4954 126.485L32.1664 129.645L31.7583 163.645L31.4902 166.651H31.4785Z" fill="#2E4754"/>
<path d="M29.1815 94.142C29.1815 94.142 19.7498 94.8047 21.2421 101.669C22.7344 108.521 23.4922 114.178 22.0932 124.414C22.0932 124.414 29.0183 127.266 38.4965 124.059C38.4965 124.059 40.3619 105.385 38.5198 98.8876C38.5198 98.8876 37.4006 93.8106 29.1815 94.142Z" fill="white"/>
<path d="M31.4203 167.077C31.5718 165.976 32.213 165.089 32.213 165.089C32.4928 164.888 32.4928 165.077 32.4928 165.645C32.4928 166.71 34.7895 166.994 34.7779 165.929C34.7546 164.331 35.2092 164.935 35.2092 164.935L35.8038 165.278C35.8621 165.207 35.967 165.172 36.0603 165.219C36.1652 165.266 36.2119 165.385 36.1769 165.491L36.3518 165.598C36.4101 165.527 36.515 165.491 36.6082 165.539C36.7132 165.586 36.7598 165.704 36.7248 165.811L36.9347 165.929C36.993 165.846 37.0979 165.811 37.1912 165.858C37.2961 165.905 37.3544 166.036 37.3077 166.154L38.5319 166.852C38.5319 166.852 41.6563 166.971 41.6447 169.255C41.6447 169.255 41.9478 169.456 41.6447 169.858H31.2337C31.2337 169.858 30.7557 167.917 31.4203 167.089V167.077Z" fill="#3E5766"/>
<path d="M15.6227 169.255C15.6227 169.255 15.6227 169.16 15.6227 169.101C15.6227 168 16.089 167.042 16.8118 166.403C16.7652 166.272 16.8118 166.13 16.9401 166.071C16.9984 166.048 17.045 166.024 17.0917 166C17.0683 165.906 17.0567 165.811 17.0567 165.704C17.0567 164.912 17.8261 164.272 18.7588 164.272C19.6915 164.272 20.4609 164.912 20.4609 165.704C20.4609 165.799 20.4493 165.894 20.4259 165.988C20.5309 166.036 20.6008 166.059 20.6125 166.071C20.7407 166.142 20.799 166.296 20.7291 166.426C21.4402 167.065 21.8949 168.024 21.8949 169.101C21.8949 169.148 21.8949 169.196 21.8949 169.255C22.0465 169.267 22.163 169.397 22.163 169.551C22.163 169.716 22.0348 169.846 21.8716 169.846H15.6577C15.4945 169.846 15.3662 169.716 15.3662 169.551C15.3662 169.397 15.4828 169.267 15.6344 169.255H15.6227Z" fill="#3E5766"/>
<path d="M27.9342 90.1069L27.666 95.2549C27.666 95.2549 30.6272 96.8643 32.3177 95.385L31.9446 90.817L27.9342 90.1069Z" fill="#FFAA87"/>
<path d="M32.0729 92.4857L32.1429 93.6218C32.1429 93.6218 28.0508 92.1307 28.0508 90.4976L31.3618 91.4088L32.0846 92.4739L32.0729 92.4857Z" fill="#F48567"/>
<path d="M27.6547 90.7812H27.7246C28.2143 90.7221 28.564 90.2723 28.5174 89.7871L28.2026 86.7221C28.156 86.225 27.713 85.87 27.2233 85.9173H27.1534C26.6637 85.9765 26.314 86.4262 26.3606 86.9114L26.6754 89.9765C26.722 90.4735 27.165 90.8286 27.6547 90.7812Z" fill="#36465B"/>
<path d="M32.7031 92.6392C31.8753 92.6747 29.567 91.799 28.9258 91.4913C28.9258 91.4913 27.5734 91.1008 27.62 88.7694C27.62 88.7694 27.3402 88.9469 27.0954 88.3552C27.0954 88.3197 27.0837 88.2842 27.0721 88.2487L26.6524 86.8404C26.3493 85.2191 27.2936 83.657 28.7276 83.3848L29.8934 83.16C30.2198 82.7458 30.6162 82.4736 31.0826 82.3789C31.9103 82.225 32.773 82.6866 33.4725 83.5505C33.5075 83.5978 33.3793 83.1008 33.8106 83.1718C34.7666 83.3375 35.2912 85.0534 35.163 86.6274C34.9531 89.1481 34.2653 92.3197 33.0062 92.5801L32.6914 92.6156L32.7031 92.6392Z" fill="#FFAA87"/>
<path d="M26.8856 87.929C27.0838 88.6272 27.5384 89.1006 27.8999 88.9941C28.2729 88.8875 28.4128 88.2367 28.2146 87.5503C28.0164 86.852 27.5618 86.3787 27.2003 86.4852C26.8389 86.5917 26.6874 87.2426 26.8856 87.929Z" fill="#FFAA87"/>
<path d="M31.8048 84.3909C31.8048 84.3909 36.6314 86.3199 35.6404 83.9649C35.6404 83.9649 40.6302 78.5566 28.8785 81.7164C28.8785 81.7164 23.1776 80.6276 26.6168 87.9176H26.8616C26.8616 87.9176 26.6168 86.4856 27.3513 86.5448C27.3513 86.5448 27.8526 86.5211 28.2723 87.7637C28.2723 87.7637 27.8293 82.5329 31.7931 84.3791L31.8048 84.3909Z" fill="#36465B"/>
<path d="M31.8516 89.5742C31.9215 90.2843 32.3762 90.8287 33.3322 90.8168C33.7402 90.8168 34.2765 90.4026 34.3348 89.6926L31.8516 89.5861V89.5742Z" fill="white"/>
<path d="M27.6308 93.2666L31.7229 95.6926L32.2126 93.9175L33.7048 94.5802L33.8331 97.8346L31.7695 96.1897L30.9768 98.5447L26.1152 94.7577L27.6308 93.2666Z" fill="#DAE9ED"/>
<path d="M26.1156 94.7574C26.1156 94.7574 32.6093 97.0296 29.5781 126.509C29.5781 126.509 29.2167 130.639 26.2905 130.994L19.7734 131.172C19.7734 131.172 21.2657 112.118 20.0766 100.355C20.0766 100.355 19.1789 94.9586 26.1156 94.7456V94.7574Z" fill="#66879E"/>
<path d="M26.6052 93.9886C26.6052 93.9886 31.7582 97.314 30.1143 119.089C30.1143 119.089 29.3099 100.474 23.1543 95.2193C23.1543 95.2193 25.451 93.7992 26.6052 93.9886Z" fill="#536B82"/>
<path d="M21.3584 106.947L29.9623 116.438L30.1138 119.089L21.3584 106.947Z" fill="#536B82"/>
<path d="M33.6934 94.6035C33.6934 94.6035 37.937 95.858 38.0303 103.775L37.8787 127.68C37.8787 127.68 37.7038 130.414 41.2014 130.497L39.8606 103.527C39.8606 103.527 40.2803 95.1242 33.705 94.6035H33.6934Z" fill="#66879E"/>
<path d="M33.6934 94.6035C33.6934 94.6035 36.9344 96.1065 37.7038 104.071L37.902 119.515L39.0212 104.497C39.0212 104.497 40.4552 94.9112 33.705 94.6035H33.6934Z" fill="#536B82"/>
<path d="M73.7282 102.842L72.7646 100.455L38.3618 114.763L39.3253 117.15L73.7282 102.842Z" fill="#262656"/>
<path d="M97.7066 101.429C99.9211 93.5068 95.3892 85.2621 87.5844 83.0143C79.7797 80.7664 71.6575 85.3667 69.4431 93.2892C67.2287 101.212 71.7606 109.457 79.5653 111.704C87.3701 113.952 95.4922 109.352 97.7066 101.429Z" fill="#C9EEFB"/>
<path d="M85.0134 82.4497L73.3433 107.893C73.3433 107.893 67.7007 102.604 69.8691 92.568C69.8691 92.568 72.5622 82.6391 85.0134 82.4497Z" fill="#0397C7"/>
<path d="M87.3096 82.6982L74.8701 109.231L78.4959 111.183L90.6089 84.4616L87.3096 82.6982Z" fill="#0397C7"/>
<path d="M69.3209 103.29C66.1031 95.3139 69.8688 86.166 77.7382 82.8997C85.5959 79.6335 94.6079 83.4559 97.8256 91.4441C101.043 99.4204 97.2776 108.568 89.4082 111.835C81.5505 115.101 72.5386 111.278 69.3209 103.29ZM96.5082 91.9767C93.5819 84.734 85.3978 81.2548 78.2628 84.2252C71.1279 87.1956 67.7003 95.5033 70.6266 102.746C73.5528 109.988 81.737 113.468 88.872 110.497C96.0069 107.527 99.4344 99.2193 96.5082 91.9767Z" fill="#262656"/>
<path d="M42.7399 112.012L16.8583 122.781C16.1355 123.077 15.7857 123.929 16.0888 124.651L16.6251 125.976C16.9166 126.71 17.756 127.065 18.4671 126.757L44.3487 115.988L42.7399 112V112.012Z" fill="#262656"/>
<path d="M44.5006 111.538C44.5006 111.538 47.0188 110.071 48.8142 110.426L47.287 111.077C47.287 111.077 46.5059 111.598 47.9282 112.355C49.3505 113.124 51.2275 112.189 51.2275 112.189C51.2275 112.189 50.5863 114.533 47.8466 114.426L45.4566 113.941L44.2441 114.024L44.5006 111.538Z" fill="#FFAA87"/>
<path d="M58.6533 105.136C58.6533 105.136 60.7751 104.604 61.8477 104.781C62.9203 104.959 63.8529 105.29 63.8529 105.29C63.8529 105.29 64.2959 105.953 62.8153 105.823L60.985 105.681L57.3825 106.876L57.1377 106.971L57.2893 105.113H58.6416L58.6533 105.136Z" fill="#FFAA87"/>
<path d="M63.7942 106.694L61.9804 105.944C61.7776 105.86 61.5463 105.959 61.4637 106.165L61.4197 106.274C61.3371 106.48 61.4345 106.715 61.6372 106.799L63.451 107.549C63.6537 107.633 63.8851 107.534 63.9677 107.328L64.0117 107.219C64.0943 107.013 63.9969 106.778 63.7942 106.694Z" fill="#FFAA87"/>
<path d="M61.0487 106.524L62.8516 107.271C63.0567 107.355 63.1526 107.587 63.069 107.795L63.0294 107.894C62.9457 108.102 62.7178 108.199 62.5127 108.114L60.7098 107.368C60.5047 107.283 60.4088 107.052 60.4924 106.844L60.532 106.745C60.6156 106.537 60.8436 106.44 61.0487 106.524Z" fill="#FFAA87"/>
<path d="M60.1659 107.067L61.9688 107.814C62.1739 107.898 62.2698 108.13 62.1862 108.338L62.1466 108.437C62.0629 108.645 61.835 108.742 61.6299 108.657L59.827 107.911C59.6219 107.826 59.526 107.595 59.6096 107.387L59.6492 107.288C59.7328 107.08 59.9608 106.983 60.1659 107.067Z" fill="#FFAA87"/>
<path d="M60.8963 108.178L59.2985 107.516C59.1137 107.44 58.9028 107.53 58.8274 107.718L58.7878 107.816C58.7125 108.004 58.8012 108.218 58.986 108.294L60.5838 108.956C60.7686 109.032 60.9796 108.942 61.0549 108.754L61.0945 108.656C61.1699 108.468 61.0811 108.254 60.8963 108.178Z" fill="#FFAA87"/>
<path d="M23.9589 96.2485C24.0638 96.6746 32.1431 111.515 32.1431 111.515L44.6175 111.29L44.6875 114.639L31.5601 117.254C31.5601 117.254 30.1262 117.74 29.5316 116.521L22.6182 107.527L23.9705 96.2604L23.9589 96.2485Z" fill="#66879E"/>
<path d="M32.5507 97.5976C32.5507 97.7633 32.4225 97.8935 32.2592 97.8935C32.096 97.8935 31.9678 97.7633 31.9678 97.5976C31.9678 97.4319 32.096 97.3018 32.2592 97.3018C32.4225 97.3018 32.5507 97.4319 32.5507 97.5976Z" fill="#DAE9ED"/>
<path d="M33.8915 101.562C33.8915 101.728 33.7633 101.858 33.6001 101.858C33.4368 101.858 33.3086 101.728 33.3086 101.562C33.3086 101.397 33.4368 101.267 33.6001 101.267C33.7633 101.267 33.8915 101.397 33.8915 101.562Z" fill="#DAE9ED"/>
<path d="M34.6728 106.485C34.6728 106.651 34.5445 106.781 34.3813 106.781C34.2181 106.781 34.0898 106.651 34.0898 106.485C34.0898 106.32 34.2181 106.189 34.3813 106.189C34.5445 106.189 34.6728 106.32 34.6728 106.485Z" fill="#DAE9ED"/>
<path d="M35.0692 121.692C35.0692 121.858 34.941 121.988 34.7778 121.988C34.6146 121.988 34.4863 121.858 34.4863 121.692C34.4863 121.527 34.6146 121.396 34.7778 121.396C34.941 121.396 35.0692 121.527 35.0692 121.692Z" fill="#DAE9ED"/>
</g>
<defs>
<clipPath id="clip0_962_2001">
<rect width="307" height="170" fill="white"/>
</clipPath>
</defs>
</svg>
