<svg width="76" height="96" viewBox="0 0 76 96" fill="none" xmlns="http://www.w3.org/2000/svg">
<g clip-path="url(#clip0_993_554)">
<path d="M46.5543 51.5946L51.2734 58.478L48.5402 60.357L43.821 53.4735L46.5543 51.5946Z" fill="#F5D0BA"/>
<path fill-rule="evenodd" clip-rule="evenodd" d="M12.2682 4.9707C25.1323 -3.87248 42.7212 -0.596819 51.5524 12.2847C59.5226 23.9135 57.6349 39.3891 47.7329 48.7997L47.8543 48.9802C48.3548 49.7098 48.1671 50.7157 47.4385 51.2131L42.7175 54.4593C41.9889 54.9567 40.9844 54.7725 40.4876 54.0429L40.3662 53.8624C28.0393 59.732 12.9379 55.9332 4.96772 44.3081C-3.8635 31.4265 -0.592274 13.8139 12.2719 4.9707H12.2682ZM14.5018 8.22793C3.43329 15.8367 0.61834 30.988 8.21687 42.0752C15.8154 53.1586 30.9462 55.9774 42.0184 48.3686C53.0868 40.7598 55.9018 25.6084 48.3032 14.5213C40.7047 3.43419 25.5702 0.619117 14.5018 8.22793Z" fill="#FC833F"/>
<path fill-rule="evenodd" clip-rule="evenodd" d="M46.3347 57.1344L49.065 55.2552C49.4881 54.9641 50.0658 55.0746 50.3565 55.4947L54.6618 61.7733L54.6691 61.7844L63.964 75.3439L66.5397 79.1023L75.8383 92.6692C76.129 93.0929 76.0186 93.6714 75.5991 93.9625L72.8688 95.8417C72.4456 96.1291 71.8679 96.0222 71.5772 95.6022L67.272 89.3198L67.2646 89.3125L57.9661 75.7456L55.3903 71.9909L46.0955 58.4277C45.8085 58.0039 45.9152 57.4255 46.3347 57.1344Z" fill="#FC833F"/>
<g opacity="0.4">
<path fill-rule="evenodd" clip-rule="evenodd" d="M48.2996 14.5176C55.8981 25.6011 53.0869 40.7561 42.0147 48.3649C30.9463 55.9737 15.8117 53.1586 8.21322 42.0715C0.614693 30.988 3.42965 15.833 14.4981 8.22424C25.5666 0.615423 40.7011 3.43418 48.2959 14.5176H48.2996Z" fill="#FFF0E9"/>
</g>
<g opacity="0.4">
<path fill-rule="evenodd" clip-rule="evenodd" d="M13.9719 48.0001L17.0996 6.66565C17.7509 6.32666 18.4096 6.02452 19.0756 5.75186L15.786 49.2013C15.1641 48.8292 14.5606 48.4275 13.9682 48.0001H13.9719ZM25.5665 52.4917L29.2388 3.97217C33.0951 4.13061 36.8852 5.20284 40.2705 7.12623L36.9478 51.0363C33.2644 52.4512 29.3603 52.9154 25.5665 52.4917ZM17.405 50.0856C18.7113 50.7341 20.0654 51.2647 21.4563 51.67L25.0551 4.16377C23.6273 4.35537 22.2033 4.67225 20.8087 5.12178L17.405 50.0893V50.0856Z" fill="#FEFEFE"/>
</g>
</g>
<defs>
<clipPath id="clip0_993_554">
<rect width="76" height="96" fill="white" transform="matrix(-1 0 0 1 76 0)"/>
</clipPath>
</defs>
</svg>
