<svg width="417" height="66" viewBox="0 0 417 66" fill="none" xmlns="http://www.w3.org/2000/svg">
    <line x1="413.163" y1="32.7441" x2="0.162598" y2="32.7441" stroke="url(#paint0_linear_93_8974)" stroke-width="3"/>
    <circle cx="211.444" cy="32.2447" r="5.33366" transform="rotate(-90 211.444 32.2447)" fill="#EC661A" fill-opacity="0.5"/>
    <circle cx="230.111" cy="32.2447" r="5.33366" transform="rotate(-90 230.111 32.2447)" fill="#EC661A" fill-opacity="0.5"/>
    <circle cx="248.778" cy="32.2447" r="5.33366" transform="rotate(-90 248.778 32.2447)" fill="#EC661A" fill-opacity="0.5"/>
    <circle cx="267.446" cy="32.2447" r="5.33366" transform="rotate(-90 267.446 32.2447)" fill="#EC661A" fill-opacity="0.5"/>
    <circle cx="286.113" cy="32.2447" r="5.33366" transform="rotate(-90 286.113 32.2447)" fill="#EC661A" fill-opacity="0.5"/>
    <circle cx="304.78" cy="32.2447" r="5.33366" transform="rotate(-90 304.78 32.2447)" fill="#EC661A" fill-opacity="0.5"/>
    <circle cx="323.448" cy="32.2447" r="5.33366" transform="rotate(-90 323.448 32.2447)" fill="#EC661A" fill-opacity="0.5"/>
    <circle cx="342.115" cy="32.2447" r="5.33366" transform="rotate(-90 342.115 32.2447)" fill="#EC661A" fill-opacity="0.5"/>
    <circle cx="360.782" cy="32.2447" r="5.33366" transform="rotate(-90 360.782 32.2447)" fill="#EC661A" fill-opacity="0.5"/>
    <circle cx="17.1611" cy="32.2446" r="8.00049" transform="rotate(-90 17.1611 32.2446)" fill="url(#paint1_linear_93_8974)"/>
    <path d="M6.31971 51.8524L6.51074 61.749L5.26683 61.773L5.1006 53.1613L5.04593 53.1624L2.671 54.8081L2.64699 53.5642L5.0758 51.8764L6.31971 51.8524ZM18.4633 50.4693L18.6978 62.6214L17.6316 62.6419L17.397 50.4899L18.4633 50.4693ZM8.73869 59.5728C9.77742 59.5459 10.9665 59.5161 12.196 59.4513L12.1704 58.1254C10.7049 58.0033 9.74558 57.1876 9.73577 55.9708C9.69558 54.5973 10.8472 53.6862 12.6038 53.6592C14.3602 53.6184 15.5666 54.484 15.5862 55.8579C15.6163 57.0606 14.6892 57.9127 13.2503 58.1046L13.2751 59.3895C14.4496 59.3121 15.6372 59.2071 16.7552 59.0351L16.853 59.8537C14.1481 60.3435 11.1758 60.4419 8.9204 60.4854L8.73869 59.5728ZM8.87228 53.0338L8.8554 52.159L12.054 52.0972L12.0253 50.6073L13.1051 50.5864L13.1339 52.0764L16.3052 52.0152L16.3221 52.89L8.87228 53.0338ZM10.7336 55.9515C10.743 56.7923 11.5465 57.3306 12.674 57.2952C13.8088 57.287 14.5841 56.7182 14.561 55.8777C14.5515 55.03 13.7544 54.4711 12.6199 54.493C11.4922 54.5148 10.7104 55.1042 10.7336 55.9515ZM24.7183 54.3142C24.7627 56.2619 26.0655 58.2264 27.8452 59.0399L27.2325 59.8858C25.8803 59.2556 24.7952 57.9432 24.2592 56.3879C23.7588 58.0932 22.6583 59.5229 21.2906 60.2193L20.6594 59.3974C22.4271 58.5291 23.713 56.4258 23.6794 54.3342L23.6607 53.3637L20.8722 53.4175L20.8553 52.5427L23.6301 52.4891L23.5937 50.6028L24.6736 50.5819L24.71 52.4683L27.4439 52.4155L27.4608 53.2903L24.6996 53.3436L24.7183 54.3142ZM29.1685 62.4192L28.934 50.2672L30.0002 50.2466L30.0965 55.2359L32.1332 55.1966L32.1509 56.1125L30.1141 56.1518L30.2347 62.3987L29.1685 62.4192Z" fill="#666666"/>
    <circle cx="57.4833" cy="32.2446" r="8.00049" transform="rotate(-90 57.4833 32.2446)" fill="url(#paint2_linear_93_8974)"/>
    <path d="M42.2946 61.8561L42.2635 60.9542L45.5713 57.335C46.716 56.0685 47.2635 55.3879 47.2527 54.4719C47.2262 53.4537 46.366 52.8139 45.2518 52.8286C44.0696 52.8582 43.3458 53.6175 43.3603 54.7248L42.1984 54.7472C42.151 52.9978 43.4816 51.7961 45.2722 51.7616C47.0698 51.7269 48.3644 52.9121 48.4009 54.4498C48.4154 55.5571 47.9194 56.4282 46.2046 58.2663L43.9806 60.6475L43.9822 60.7296L48.6981 60.6385L48.7192 61.7321L42.2946 61.8561ZM59.8242 50.4688L60.0588 62.6208L58.9926 62.6414L58.758 50.4894L59.8242 50.4688ZM50.0997 59.5722C51.1384 59.5453 52.3275 59.5155 53.5569 59.4508L53.5314 58.1249C52.0658 58.0027 51.1066 57.1871 51.0967 55.9703C51.0566 54.5968 52.2081 53.6857 53.9648 53.6586C55.7212 53.6179 56.9275 54.4834 56.9472 55.8573C56.9773 57.0601 56.0502 57.9121 54.6112 58.104L54.636 59.3889C55.8105 59.3116 56.9982 59.2066 58.1162 59.0346L58.214 59.8532C55.5091 60.343 52.5368 60.4414 50.2814 60.4849L50.0997 59.5722ZM50.2333 53.0333L50.2164 52.1584L53.415 52.0967L53.3862 50.6067L54.4661 50.5859L54.4949 52.0758L57.6662 52.0146L57.683 52.8895L50.2333 53.0333ZM52.0946 55.951C52.104 56.7918 52.9075 57.3301 54.035 57.2947C55.1698 57.2864 55.9451 56.7177 55.922 55.8771C55.9125 55.0295 55.1154 54.4706 53.9809 54.4925C52.8532 54.5142 52.0714 55.1036 52.0946 55.951ZM66.0793 54.3136C66.1237 56.2614 67.4265 58.2259 69.2062 59.0393L68.5935 59.8853C67.2413 59.255 66.1562 57.9427 65.6202 56.3873C65.1198 58.0926 64.0193 59.5223 62.6516 60.2188L62.0204 59.3968C63.7881 58.5286 65.0739 56.4252 65.0404 54.3337L65.0217 53.3632L62.2331 53.417L62.2163 52.5422L64.9911 52.4886L64.9547 50.6022L66.0346 50.5814L66.071 52.4677L68.8049 52.415L68.8218 53.2898L66.0605 53.3431L66.0793 54.3136ZM70.5295 62.4187L70.2949 50.2667L71.3611 50.2461L71.4574 55.2354L73.4942 55.1961L73.5119 56.1119L71.4751 56.1513L71.5957 62.3981L70.5295 62.4187Z" fill="#666666"/>
    <circle cx="98.8052" cy="32.2446" r="8.00049" transform="rotate(-90 98.8052 32.2446)" fill="url(#paint3_linear_93_8974)"/>
    <path d="M86.8247 61.9309C84.8563 61.9689 83.4212 60.9437 83.3293 59.3729L84.5732 59.3489C84.6598 60.2907 85.6075 60.8604 86.7899 60.8376C88.0953 60.8124 89.0249 60.0902 89.0118 59.0581C88.9841 57.9783 88.1083 57.2363 86.5704 57.2592L85.7639 57.2747L85.7431 56.1948L86.5495 56.1793C87.7524 56.1561 88.58 55.4632 88.5536 54.445C88.5413 53.4538 87.8041 52.8117 86.6763 52.8266C85.617 52.8539 84.6646 53.4534 84.6286 54.425L83.4394 54.448C83.4706 52.8748 84.9129 51.794 86.6694 51.7601C88.5557 51.7237 89.7278 52.9386 89.7415 54.3537C89.7769 55.4811 89.1366 56.314 88.1034 56.6279L88.1047 56.6962C89.4003 56.8695 90.1973 57.7772 90.2147 59.0349C90.2529 60.6614 88.7999 61.8928 86.8247 61.9309ZM101.358 50.4647L101.593 62.6167L100.526 62.6373L100.292 50.4853L101.358 50.4647ZM91.6335 59.5681C92.6722 59.5412 93.8613 59.5115 95.0908 59.4467L95.0652 58.1208C93.5996 57.9986 92.6404 57.183 92.6305 55.9662C92.5904 54.5927 93.7419 53.6816 95.4986 53.6545C97.255 53.6138 98.4613 54.4794 98.481 55.8533C98.5111 57.056 97.584 57.9081 96.145 58.0999L96.1698 59.3848C97.3443 59.3075 98.532 59.2025 99.65 59.0305L99.7478 59.8491C97.0429 60.3389 94.0706 60.4373 91.8152 60.4808L91.6335 59.5681ZM91.7671 53.0292L91.7502 52.1543L94.9488 52.0926L94.92 50.6026L95.9999 50.5818L96.0287 52.0718L99.2 52.0105L99.2169 52.8854L91.7671 53.0292ZM93.6284 55.9469C93.6378 56.7877 94.4413 57.326 95.5688 57.2906C96.7036 57.2824 97.4789 56.7136 97.4558 55.873C97.4463 55.0254 96.6492 54.4665 95.5147 54.4884C94.387 54.5101 93.6052 55.0996 93.6284 55.9469ZM107.613 54.3095C107.658 56.2573 108.96 58.2218 110.74 59.0352L110.127 59.8812C108.775 59.2509 107.69 57.9386 107.154 56.3832C106.654 58.0885 105.553 59.5182 104.185 60.2147L103.554 59.3927C105.322 58.5245 106.608 56.4211 106.574 54.3296L106.555 53.3591L103.767 53.4129L103.75 52.5381L106.525 52.4845L106.489 50.5981L107.568 50.5773L107.605 52.4637L110.339 52.4109L110.356 53.2857L107.594 53.339L107.613 54.3095ZM112.063 62.4146L111.829 50.2626L112.895 50.242L112.991 55.2313L115.028 55.192L115.046 56.1078L113.009 56.1472L113.13 62.394L112.063 62.4146Z" fill="#666666"/>
    <circle cx="140.127" cy="32.2446" r="8.00049" transform="rotate(-90 140.127 32.2446)" fill="url(#paint4_linear_93_8974)"/>
    <path d="M124.394 59.8428L124.374 58.8313L128.698 51.8832L130.215 51.8539L130.346 58.6476L131.727 58.621L131.748 59.7008L130.367 59.7275L130.406 61.7505L129.231 61.7732L129.192 59.7502L124.394 59.8428ZM125.699 58.7373L129.171 58.6703L129.07 53.4349L128.947 53.4373L125.697 58.6553L125.699 58.7373ZM142.728 50.4638L142.962 62.6158L141.896 62.6364L141.662 50.4844L142.728 50.4638ZM133.003 59.5672C134.042 59.5403 135.231 59.5105 136.461 59.4458L136.435 58.1198C134.969 57.9977 134.01 57.1821 134 55.9653C133.96 54.5918 135.112 53.6807 136.868 53.6536C138.625 53.6129 139.831 54.4784 139.851 55.8523C139.881 57.0551 138.954 57.9071 137.515 58.099L137.54 59.3839C138.714 59.3066 139.902 59.2016 141.02 59.0296L141.118 59.8482C138.413 60.338 135.44 60.4363 133.185 60.4799L133.003 59.5672ZM133.137 53.0283L133.12 52.1534L136.319 52.0917L136.29 50.6017L137.37 50.5809L137.398 52.0708L140.57 52.0096L140.587 52.8845L133.137 53.0283ZM134.998 55.946C135.008 56.7868 135.811 57.3251 136.939 57.2897C138.073 57.2814 138.849 56.7127 138.826 55.8721C138.816 55.0245 138.019 54.4656 136.884 54.4875C135.757 54.5092 134.975 55.0986 134.998 55.946ZM148.983 54.3086C149.027 56.2564 150.33 58.2209 152.11 59.0343L151.497 59.8803C150.145 59.25 149.06 57.9377 148.524 56.3823C148.023 58.0876 146.923 59.5173 145.555 60.2138L144.924 59.3918C146.692 58.5235 147.978 56.4202 147.944 54.3287L147.925 53.3582L145.137 53.412L145.12 52.5371L147.895 52.4836L147.858 50.5972L148.938 50.5764L148.975 52.4627L151.708 52.41L151.725 53.2848L148.964 53.3381L148.983 54.3086ZM153.433 62.4137L153.199 50.2617L154.265 50.2411L154.361 55.2304L156.398 55.1911L156.415 56.1069L154.379 56.1462L154.499 62.3931L153.433 62.4137Z" fill="#666666"/>
    <circle cx="181.449" cy="32.2446" r="8.00049" transform="rotate(-90 181.449 32.2446)" fill="#EC661A" fill-opacity="0.5"/>
    <path d="M169.421 61.9318C167.637 61.9663 166.262 60.892 166.158 59.3693L167.347 59.3464C167.453 60.2263 168.327 60.8658 169.4 60.8519C170.685 60.8203 171.596 59.866 171.572 58.6221C171.547 57.3372 170.565 56.4058 169.232 56.4247C168.398 56.4271 167.754 56.6993 167.404 57.3488L166.215 57.3718L166.808 51.9452L172.166 51.8418L172.187 52.9354L167.854 53.019L167.541 55.924L167.636 55.9222C168.074 55.5719 168.733 55.3267 169.43 55.3132C171.316 55.2768 172.73 56.6443 172.774 58.5716C172.805 60.4854 171.396 61.8937 169.421 61.9318ZM183.858 50.4675L184.093 62.6195L183.027 62.6401L182.792 50.4881L183.858 50.4675ZM174.134 59.5709C175.173 59.544 176.362 59.5142 177.591 59.4495L177.565 58.1235C176.1 58.0014 175.141 57.1858 175.131 55.969C175.091 54.5955 176.242 53.6844 177.999 53.6573C179.755 53.6166 180.962 54.4821 180.981 55.856C181.011 57.0588 180.084 57.9108 178.645 58.1027L178.67 59.3876C179.845 59.3102 181.032 59.2053 182.15 59.0333L182.248 59.8519C179.543 60.3416 176.571 60.44 174.316 60.4836L174.134 59.5709ZM174.267 53.0319L174.251 52.1571L177.449 52.0954L177.42 50.6054L178.5 50.5846L178.529 52.0745L181.7 52.0133L181.717 52.8881L174.267 53.0319ZM176.129 55.9497C176.138 56.7905 176.942 57.3288 178.069 57.2934C179.204 57.2851 179.979 56.7163 179.956 55.8758C179.947 55.0282 179.15 54.4692 178.015 54.4911C176.887 54.5129 176.106 55.1023 176.129 55.9497ZM190.113 54.3123C190.158 56.2601 191.461 58.2245 193.24 59.038L192.628 59.884C191.275 59.2537 190.19 57.9414 189.654 56.386C189.154 58.0913 188.053 59.521 186.686 60.2175L186.055 59.3955C187.822 58.5272 189.108 56.4239 189.075 54.3324L189.056 53.3618L186.267 53.4157L186.25 52.5408L189.025 52.4873L188.989 50.6009L190.069 50.5801L190.105 52.4664L192.839 52.4137L192.856 53.2885L190.095 53.3418L190.113 54.3123ZM194.564 62.4174L194.329 50.2654L195.395 50.2448L195.492 55.2341L197.528 55.1948L197.546 56.1106L195.509 56.1499L195.63 62.3968L194.564 62.4174Z" fill="#666666"/>
    <g clip-path="url(#clip0_93_8974)">
    <mask id="mask0_93_8974" style="mask-type:alpha" maskUnits="userSpaceOnUse" x="16" y="0" width="125" height="31">
    <mask id="path-21-inside-1_93_8974" fill="white">
    <path fill-rule="evenodd" clip-rule="evenodd" d="M83.6785 10.9946L78.8779 0.244629L74.0773 10.9946H16.9995V30.9946H140.756V10.9946H83.6785Z"/>
    </mask>
    <path d="M78.8779 0.244629L79.791 -0.163129L78.8779 -2.20781L77.9648 -0.163129L78.8779 0.244629ZM83.6785 10.9946L82.7654 11.4024L83.0299 11.9946H83.6785V10.9946ZM74.0773 10.9946V11.9946H74.7259L74.9904 11.4024L74.0773 10.9946ZM16.9995 10.9946V9.99463H15.9995V10.9946H16.9995ZM16.9995 30.9946H15.9995V31.9946H16.9995V30.9946ZM140.756 30.9946V31.9946H141.756V30.9946H140.756ZM140.756 10.9946H141.756V9.99463H140.756V10.9946ZM77.9648 0.652386L82.7654 11.4024L84.5916 10.5869L79.791 -0.163129L77.9648 0.652386ZM74.9904 11.4024L79.791 0.652387L77.9648 -0.163129L73.1642 10.5869L74.9904 11.4024ZM16.9995 11.9946H74.0773V9.99463H16.9995V11.9946ZM17.9995 30.9946V10.9946H15.9995V30.9946H17.9995ZM140.756 29.9946H16.9995V31.9946H140.756V29.9946ZM139.756 10.9946V30.9946H141.756V10.9946H139.756ZM83.6785 11.9946H140.756V9.99463H83.6785V11.9946Z" fill="#EC661A" mask="url(#path-21-inside-1_93_8974)"/>
    </mask>
    <g mask="url(#mask0_93_8974)">
    <rect x="9.16806" y="-0.380371" width="135.939" height="22.625" fill="url(#paint5_linear_93_8974)"/>
    </g>
    </g>
    <mask id="mask1_93_8974" style="mask-type:alpha" maskUnits="userSpaceOnUse" x="181" y="0" width="215" height="31">
    <mask id="path-24-inside-2_93_8974" fill="white">
    <path fill-rule="evenodd" clip-rule="evenodd" d="M296.781 10.9946L288.478 0.244629L280.174 10.9946H181.449V30.9946H395.506V10.9946H296.781Z"/>
    </mask>
    <path d="M288.478 0.244629L289.269 -0.366663L288.478 -1.39125L287.686 -0.366663L288.478 0.244629ZM296.781 10.9946L295.99 11.6059L296.29 11.9946H296.781V10.9946ZM280.174 10.9946V11.9946H280.665L280.966 11.6059L280.174 10.9946ZM181.449 10.9946V9.99463H180.449V10.9946H181.449ZM181.449 30.9946H180.449V31.9946H181.449V30.9946ZM395.506 30.9946V31.9946H396.506V30.9946H395.506ZM395.506 10.9946H396.506V9.99463H395.506V10.9946ZM287.686 0.85592L295.99 11.6059L297.573 10.3833L289.269 -0.366663L287.686 0.85592ZM280.966 11.6059L289.269 0.85592L287.686 -0.366663L279.383 10.3833L280.966 11.6059ZM181.449 11.9946H280.174V9.99463H181.449V11.9946ZM182.449 30.9946V10.9946H180.449V30.9946H182.449ZM395.506 29.9946H181.449V31.9946H395.506V29.9946ZM394.506 10.9946V30.9946H396.506V10.9946H394.506ZM296.781 11.9946H395.506V9.99463H296.781V11.9946Z" fill="#EC661A" mask="url(#path-24-inside-2_93_8974)"/>
    </mask>
    <g mask="url(#mask1_93_8974)">
    <rect x="167.903" y="-0.380371" width="235.129" height="22.625" fill="url(#paint6_linear_93_8974)"/>
    </g>
    <circle cx="395.116" cy="32.2446" r="8.00049" transform="rotate(-90 395.116 32.2446)" fill="#EC661A" fill-opacity="0.5"/>
    <path d="M375.087 59.2217V58.21L379.544 51.3467H381.061V58.1416H382.442V59.2217H381.061V61.2451H379.885V59.2217H375.087ZM376.413 58.1416H379.885V52.9053H379.762L376.413 58.0596V58.1416ZM387.378 61.3818C385.293 61.3818 383.857 60.2266 383.864 58.6201C383.857 57.3418 384.746 56.2822 385.874 56.1045V56.0498C384.889 55.8242 384.24 54.915 384.247 53.835C384.24 52.3242 385.566 51.21 387.378 51.21C389.182 51.21 390.508 52.3242 390.522 53.835C390.508 54.915 389.852 55.8242 388.882 56.0498V56.1045C390.003 56.2822 390.891 57.3418 390.905 58.6201C390.891 60.2266 389.442 61.3818 387.378 61.3818ZM385.094 58.5518C385.074 59.5908 385.956 60.2949 387.378 60.3018C388.793 60.2949 389.674 59.5908 389.674 58.5518C389.674 57.458 388.711 56.6514 387.378 56.6514C386.051 56.6514 385.074 57.458 385.094 58.5518ZM385.436 53.9307C385.443 54.9287 386.243 55.6055 387.378 55.6123C388.506 55.6055 389.319 54.9287 389.319 53.9307C389.319 52.9395 388.533 52.2695 387.378 52.2764C386.202 52.2695 385.443 52.9395 385.436 53.9307ZM402.089 50.1982V62.3525H401.022V50.1982H402.089ZM392.19 59.1123C393.229 59.1055 394.419 59.0986 395.649 59.0576V57.7314C394.186 57.5811 393.243 56.7471 393.257 55.5303C393.243 54.1562 394.412 53.2676 396.169 53.2744C397.925 53.2676 399.115 54.1562 399.108 55.5303C399.115 56.7334 398.172 57.5674 396.729 57.7314V59.0166C397.905 58.9619 399.094 58.8799 400.215 58.7295L400.298 59.5498C397.584 59.9873 394.61 60.0283 392.354 60.0283L392.19 59.1123ZM392.45 52.5771V51.7021H395.649V50.2119H396.729V51.7021H399.901V52.5771H392.45ZM394.255 55.5303C394.248 56.3711 395.041 56.9248 396.169 56.9111C397.303 56.9248 398.09 56.3711 398.083 55.5303C398.09 54.6826 397.303 54.1084 396.169 54.1084C395.041 54.1084 394.248 54.6826 394.255 55.5303ZM408.268 54.1631C408.275 56.1113 409.54 58.1006 411.303 58.9482L410.674 59.7822C409.335 59.126 408.275 57.793 407.769 56.2275C407.236 57.9229 406.108 59.3311 404.727 60.001L404.112 59.167C405.896 58.333 407.222 56.2549 407.229 54.1631V53.1924H404.44V52.3174H407.215V50.4307H408.296V52.3174H411.03V53.1924H408.268V54.1631ZM412.561 62.3525V50.1982H413.628V55.1885H415.665V56.1045H413.628V62.3525H412.561Z" fill="#666666"/>
    <defs>
    <linearGradient id="paint0_linear_93_8974" x1="413.163" y1="-18.7723" x2="0.162601" y2="-18.7722" gradientUnits="userSpaceOnUse">
    <stop stop-color="#FD6F22"/>
    <stop offset="1" stop-color="#FD6F22" stop-opacity="0.2"/>
    </linearGradient>
    <linearGradient id="paint1_linear_93_8974" x1="17.1611" y1="24.2441" x2="17.1611" y2="40.2451" gradientUnits="userSpaceOnUse">
    <stop stop-color="#EC661A"/>
    <stop offset="1" stop-color="#EC661A" stop-opacity="0.7"/>
    </linearGradient>
    <linearGradient id="paint2_linear_93_8974" x1="57.4833" y1="24.2441" x2="57.4833" y2="40.2451" gradientUnits="userSpaceOnUse">
    <stop stop-color="#EC661A"/>
    <stop offset="1" stop-color="#EC661A" stop-opacity="0.7"/>
    </linearGradient>
    <linearGradient id="paint3_linear_93_8974" x1="98.8052" y1="24.2441" x2="98.8052" y2="40.2451" gradientUnits="userSpaceOnUse">
    <stop stop-color="#EC661A"/>
    <stop offset="1" stop-color="#EC661A" stop-opacity="0.7"/>
    </linearGradient>
    <linearGradient id="paint4_linear_93_8974" x1="140.127" y1="24.2441" x2="140.127" y2="40.2451" gradientUnits="userSpaceOnUse">
    <stop stop-color="#EC661A"/>
    <stop offset="1" stop-color="#EC661A" stop-opacity="0.7"/>
    </linearGradient>
    <linearGradient id="paint5_linear_93_8974" x1="77.1376" y1="-0.380371" x2="77.1376" y2="22.2446" gradientUnits="userSpaceOnUse">
    <stop stop-color="#EC661A"/>
    <stop offset="0.72" stop-color="#EC661A" stop-opacity="0.3232"/>
    <stop offset="1" stop-color="#EC661A" stop-opacity="0.06"/>
    </linearGradient>
    <linearGradient id="paint6_linear_93_8974" x1="285.468" y1="-0.380371" x2="285.468" y2="22.2446" gradientUnits="userSpaceOnUse">
    <stop stop-color="#EC661A"/>
    <stop offset="0.72" stop-color="#EC661A" stop-opacity="0.3232"/>
    <stop offset="1" stop-color="#EC661A" stop-opacity="0.06"/>
    </linearGradient>
    <clipPath id="clip0_93_8974">
    <rect width="212" height="20" fill="white" transform="translate(16.9995 0.244629)"/>
    </clipPath>
    </defs>
    </svg>
